{"glyphs":{"0":{"ha":867,"x_min":66,"x_max":793,"o":"m 498 784 q 721 698 648 784 q 793 469 793 612 q 738 232 793 342 q 584 55 682 121 q 366 -11 486 -11 q 198 33 266 -11 q 99 148 131 76 q 66 305 66 219 q 125 548 66 439 q 283 721 184 658 q 498 784 382 784 m 392 133 q 513 179 464 133 q 586 298 562 225 q 610 448 610 370 q 579 591 610 541 q 476 642 547 642 q 345 591 395 642 q 272 468 294 541 q 250 324 250 395 q 266 227 250 271 q 314 158 282 184 q 392 133 346 133 z "},"1":{"ha":667,"x_min":121,"x_max":513,"o":"m 294 574 q 235 558 262 564 q 159 544 208 553 l 142 541 l 121 651 q 263 705 186 665 q 404 788 339 744 l 513 778 l 401 0 l 212 0 l 294 574 z "},"2":{"ha":861,"x_min":39,"x_max":763,"o":"m 39 92 q 277 237 168 158 q 452 394 387 316 q 518 533 518 472 q 490 610 518 584 q 409 636 463 636 q 298 608 357 636 q 195 543 239 581 l 130 646 q 210 710 161 678 q 322 764 259 743 q 452 786 385 786 q 604 755 543 786 q 695 672 665 724 q 725 558 725 620 q 669 390 725 467 q 525 250 613 312 q 315 124 437 188 l 763 144 l 739 0 l 65 0 l 39 92 z "},"3":{"ha":770,"x_min":31,"x_max":666,"o":"m 137 -85 q 303 -62 231 -85 q 414 5 374 -39 q 453 112 453 50 q 416 205 453 169 q 297 243 378 241 l 186 218 l 201 363 q 389 428 311 382 q 468 549 468 473 q 439 613 468 591 q 356 635 411 635 q 256 614 307 635 q 160 558 205 593 l 106 678 q 178 727 130 703 q 288 769 225 752 q 419 786 351 786 q 543 765 487 786 q 632 700 599 743 q 666 592 666 656 q 634 478 666 532 q 545 382 602 423 q 419 318 489 340 q 548 288 494 317 q 631 213 603 259 q 660 113 660 166 q 590 -64 660 12 q 401 -181 519 -140 q 142 -222 282 -222 q 31 -214 95 -222 l 47 -79 q 137 -85 103 -85 z "},"4":{"ha":871,"x_min":7,"x_max":804,"o":"m 550 852 l 626 791 l 251 191 l 197 120 l 475 132 l 513 416 l 688 440 l 650 138 l 804 148 l 784 0 l 631 0 l 600 -254 l 424 -254 l 457 0 l 46 0 l 7 87 l 50 161 q 261 529 174 374 q 433 852 348 684 l 550 852 z "},"5":{"ha":777,"x_min":27,"x_max":722,"o":"m 101 -109 q 276 -84 192 -109 q 415 -6 361 -59 q 470 126 470 46 q 434 235 470 197 q 321 273 399 273 q 237 262 285 273 q 156 237 189 252 l 89 308 l 195 775 l 580 775 l 595 786 l 722 786 l 682 625 l 338 625 l 272 380 q 342 396 300 389 q 423 402 385 402 q 614 338 547 402 q 681 153 681 275 q 607 -55 681 34 q 405 -193 534 -144 q 115 -241 277 -241 q 27 -230 60 -241 l 47 -104 q 101 -109 77 -109 z "},"6":{"ha":867,"x_min":87,"x_max":782,"o":"m 726 973 q 546 879 629 939 q 407 750 463 819 q 330 624 351 682 q 424 669 366 652 q 541 687 481 687 q 676 649 623 687 q 756 548 730 611 q 782 411 782 486 q 739 209 782 306 q 608 51 696 113 q 393 -11 521 -11 q 223 36 292 -11 q 120 162 154 82 q 87 341 87 241 q 163 664 87 510 q 376 928 240 818 q 684 1084 513 1039 l 726 973 m 418 117 q 523 160 481 117 q 582 267 564 203 q 601 390 601 330 q 565 512 601 472 q 473 552 530 552 q 359 527 407 552 q 286 474 311 503 q 265 340 265 398 q 283 224 265 275 q 335 145 300 174 q 418 117 370 117 z "},"7":{"ha":757,"x_min":60,"x_max":747,"o":"m 60 628 l 94 775 l 719 775 l 747 739 l 330 -227 l 169 -168 l 530 629 l 60 628 z "},"8":{"ha":902,"x_min":85,"x_max":827,"o":"m 335 540 q 242 646 275 591 q 210 770 210 701 q 251 924 210 859 q 368 1023 293 989 q 540 1057 443 1057 q 687 1029 621 1057 q 789 949 752 1001 q 827 831 827 898 q 795 704 827 761 q 712 608 764 648 q 599 548 660 569 q 731 421 682 487 q 779 275 779 355 q 730 122 779 186 q 596 22 682 57 q 406 -12 511 -12 q 245 17 319 -12 q 129 103 172 46 q 85 238 85 159 q 119 370 85 311 q 209 472 153 430 q 335 540 266 514 m 654 816 q 637 884 654 856 q 590 928 619 913 q 527 943 561 943 q 454 923 486 943 q 406 869 423 903 q 389 793 389 835 q 422 698 389 741 q 519 608 456 655 q 617 693 580 640 q 654 816 654 747 m 431 107 q 512 125 477 107 q 567 177 547 144 q 587 252 587 210 q 543 365 587 313 q 412 479 498 418 q 310 389 350 444 q 270 263 271 334 q 291 183 270 218 q 350 127 313 147 q 431 107 387 107 z "},"9":{"ha":867,"x_min":81,"x_max":777,"o":"m 534 149 q 448 103 498 120 q 343 85 399 85 q 199 124 258 85 q 111 227 140 163 q 81 365 81 290 q 124 567 81 470 q 255 725 168 663 q 471 787 343 787 q 641 740 572 787 q 743 614 709 694 q 777 435 777 534 q 700 112 777 266 q 487 -154 623 -43 q 179 -310 351 -265 l 138 -199 q 318 -105 235 -165 q 457 23 401 -45 q 534 149 513 91 m 400 220 q 508 245 462 220 q 578 298 553 270 q 599 436 599 380 q 581 552 599 502 q 529 631 564 602 q 445 659 494 659 q 341 616 382 659 q 281 509 300 572 q 262 386 262 446 q 301 261 262 302 q 400 220 339 220 z "},"\u0000":{"ha":0,"x_min":0,"x_max":0,"o":""},"\r":{"ha":0,"x_min":0,"x_max":0,"o":""}," ":{"ha":329,"x_min":0,"x_max":0,"o":""},"A":{"ha":885,"x_min":-68,"x_max":838,"o":"m 617 231 l 237 231 l 136 0 l -68 -1 l 437 1038 l 663 1038 l 838 0 l 650 -1 l 617 231 m 599 364 l 534 827 l 527 907 l 495 825 l 295 364 l 599 364 z "},"Á":{"ha":885,"x_min":-68,"x_max":838,"o":"m 617 231 l 237 231 l 136 0 l -68 -1 l 437 1038 l 663 1038 l 838 0 l 650 -1 l 617 231 m 599 364 l 534 827 l 527 907 l 495 825 l 295 364 l 599 364 m 687 1361 l 800 1255 q 741 1181 782 1221 q 652 1110 699 1142 q 572 1066 606 1078 l 499 1129 l 687 1361 z "},"Ă":{"ha":885,"x_min":-68,"x_max":838,"o":"m 617 231 l 237 231 l 136 0 l -68 -1 l 437 1038 l 663 1038 l 838 0 l 650 -1 l 617 231 m 599 364 l 534 827 l 527 907 l 495 825 l 295 364 l 599 364 m 348 1319 q 353 1354 348 1335 l 462 1354 q 461 1343 462 1351 q 462 1329 461 1335 q 489 1256 467 1282 q 567 1230 511 1230 q 633 1249 608 1230 q 670 1294 659 1269 q 690 1354 682 1320 l 798 1354 q 797 1332 798 1339 q 765 1224 793 1276 q 684 1139 736 1172 q 559 1106 632 1106 q 399 1165 450 1106 q 348 1319 348 1225 z "},"Ǎ":{"ha":885,"x_min":-68,"x_max":838,"o":"m 617 231 l 237 231 l 136 0 l -68 -1 l 437 1038 l 663 1038 l 838 0 l 650 -1 l 617 231 m 599 364 l 534 827 l 527 907 l 495 825 l 295 364 l 599 364 m 402 1361 l 549 1221 l 753 1361 l 831 1309 l 598 1090 l 477 1090 l 323 1305 l 402 1361 z "},"Â":{"ha":885,"x_min":-68,"x_max":838,"o":"m 617 231 l 237 231 l 136 0 l -68 -1 l 437 1038 l 663 1038 l 838 0 l 650 -1 l 617 231 m 599 364 l 534 827 l 527 907 l 495 825 l 295 364 l 599 364 m 548 1361 l 669 1361 l 806 1131 l 725 1081 l 591 1217 l 388 1078 l 311 1126 l 548 1361 z "},"Ä":{"ha":885,"x_min":-68,"x_max":838,"o":"m 617 231 l 237 231 l 136 0 l -68 -1 l 437 1038 l 663 1038 l 838 0 l 650 -1 l 617 231 m 599 364 l 534 827 l 527 907 l 495 825 l 295 364 l 599 364 m 309 1223 q 324 1282 309 1255 q 365 1325 339 1309 q 420 1341 391 1341 q 469 1328 448 1341 q 502 1294 490 1315 q 514 1250 514 1274 q 500 1190 514 1217 q 459 1145 486 1162 q 399 1128 433 1128 q 354 1142 375 1128 q 321 1177 334 1156 q 309 1223 309 1199 m 612 1224 q 627 1282 612 1255 q 667 1325 642 1309 q 722 1341 692 1341 q 772 1328 750 1341 q 805 1294 793 1315 q 817 1250 817 1274 q 803 1190 817 1217 q 762 1145 789 1162 q 701 1128 735 1128 q 656 1142 677 1128 q 624 1178 636 1156 q 612 1224 612 1200 z "},"À":{"ha":885,"x_min":-68,"x_max":838,"o":"m 617 231 l 237 231 l 136 0 l -68 -1 l 437 1038 l 663 1038 l 838 0 l 650 -1 l 617 231 m 599 364 l 534 827 l 527 907 l 495 825 l 295 364 l 599 364 m 436 1361 l 624 1129 l 551 1066 q 471 1110 517 1078 q 382 1181 424 1142 q 323 1255 341 1221 l 436 1361 z "},"Ā":{"ha":885,"x_min":-68,"x_max":838,"o":"m 617 231 l 237 231 l 136 0 l -68 -1 l 437 1038 l 663 1038 l 838 0 l 650 -1 l 617 231 m 599 364 l 534 827 l 527 907 l 495 825 l 295 364 l 599 364 m 740 1286 l 731 1165 l 363 1165 l 371 1286 l 740 1286 z "},"Ą":{"ha":889,"x_min":-64,"x_max":842,"o":"m 700 -191 q 746 -183 724 -191 q 795 -154 768 -174 l 827 -247 q 744 -300 793 -280 q 632 -321 694 -321 q 558 -304 589 -321 q 511 -260 527 -287 q 494 -203 494 -233 q 524 -119 494 -159 q 594 -49 553 -79 q 671 -1 634 -19 l 654 -1 l 621 231 l 241 231 l 140 0 l -64 -1 l 441 1038 l 667 1038 l 842 0 l 809 0 q 702 -72 747 -32 q 656 -144 656 -112 q 668 -181 656 -170 q 700 -191 681 -191 m 603 364 l 538 827 l 531 907 l 499 825 l 299 364 l 603 364 z "},"Å":{"ha":885,"x_min":-68,"x_max":838,"o":"m 617 231 l 237 231 l 136 0 l -68 -1 l 428 1019 q 362 1077 385 1040 q 339 1165 339 1114 q 377 1276 339 1232 q 473 1341 415 1320 q 589 1361 530 1361 q 733 1317 679 1361 q 787 1192 787 1273 q 754 1086 787 1130 q 667 1019 722 1042 l 838 0 l 650 -1 l 617 231 m 575 1278 q 489 1253 525 1278 q 453 1171 453 1228 q 467 1125 453 1146 q 503 1092 480 1104 q 552 1080 526 1080 q 672 1189 672 1080 q 644 1253 672 1227 q 575 1278 616 1278 m 599 364 l 534 827 l 527 907 l 495 825 l 295 364 l 599 364 z "},"Ã":{"ha":885,"x_min":-68,"x_max":867,"o":"m 617 231 l 237 231 l 136 0 l -68 -1 l 437 1038 l 663 1038 l 838 0 l 650 -1 l 617 231 m 599 364 l 534 827 l 527 907 l 495 825 l 295 364 l 599 364 m 295 1215 q 343 1274 310 1245 q 417 1321 376 1303 q 493 1339 458 1339 q 561 1325 534 1339 q 617 1283 587 1310 q 656 1253 641 1262 q 692 1243 671 1243 q 735 1254 716 1243 q 764 1276 753 1264 q 798 1318 774 1287 l 867 1238 q 824 1174 855 1205 q 753 1124 793 1143 q 675 1105 713 1105 q 620 1113 644 1105 q 582 1132 597 1121 q 546 1160 566 1143 q 505 1192 522 1181 q 461 1202 487 1202 q 424 1193 441 1202 q 393 1173 406 1185 q 361 1141 380 1162 l 295 1215 z "},"Æ":{"ha":1271,"x_min":-85,"x_max":1248,"o":"m 846 895 l 806 602 l 1097 606 l 1081 456 l 788 464 l 745 142 l 1197 151 l 1179 0 l 538 0 l 571 241 l 249 241 l 121 0 l -85 0 l 435 928 l 254 946 l 269 1038 l 1248 1038 l 1233 891 l 846 895 m 589 378 l 660 901 l 602 906 l 321 378 l 589 378 z "},"Ǽ":{"ha":1275,"x_min":-81,"x_max":1252,"o":"m 888 1361 l 1002 1255 q 942 1181 983 1221 q 854 1110 901 1142 q 774 1066 807 1078 l 701 1129 l 888 1361 m 850 895 l 810 602 l 1101 606 l 1085 456 l 792 464 l 749 142 l 1201 151 l 1183 0 l 543 0 l 575 241 l 253 241 l 125 0 l -81 0 l 439 928 l 258 946 l 273 1038 l 1252 1038 l 1237 891 l 850 895 m 593 378 l 664 901 l 606 906 l 326 378 l 593 378 z "},"B":{"ha":879,"x_min":62,"x_max":826,"o":"m 621 545 q 724 506 680 535 q 792 431 768 476 q 816 328 816 385 q 689 72 816 153 q 336 -10 562 -10 q 237 -5 307 -10 q 194 -2 224 -4 q 146 0 163 0 l 62 0 l 201 1038 l 287 1038 q 389 1043 319 1038 q 501 1048 463 1048 q 752 984 678 1048 q 826 816 826 920 q 772 642 826 712 q 621 545 719 571 m 635 795 q 594 890 635 861 q 465 918 553 918 q 372 914 406 918 l 330 601 q 418 600 359 600 q 577 649 519 600 q 635 795 635 699 m 367 122 q 552 166 487 122 q 617 317 617 210 q 568 436 617 399 q 418 472 519 472 q 312 469 368 472 l 267 130 q 315 124 286 126 q 367 122 345 122 z "},"Ḃ":{"ha":888,"x_min":66,"x_max":830,"o":"m 404 1216 q 420 1275 404 1248 q 464 1318 436 1302 q 524 1334 492 1334 q 598 1308 570 1334 q 627 1243 627 1282 q 611 1183 627 1211 q 566 1138 595 1155 q 501 1122 538 1122 q 452 1135 474 1122 q 416 1169 429 1147 q 404 1216 404 1190 m 625 545 q 728 506 684 535 q 796 431 772 476 q 820 328 820 385 q 693 72 820 153 q 340 -10 566 -10 q 241 -5 311 -10 q 198 -2 228 -4 q 150 0 168 0 l 66 0 l 205 1038 l 291 1038 q 393 1043 323 1038 q 505 1048 467 1048 q 756 984 682 1048 q 830 816 830 920 q 777 642 830 712 q 625 545 723 571 m 640 795 q 598 890 640 861 q 469 918 557 918 q 376 914 410 918 l 334 601 q 422 600 363 600 q 581 649 523 600 q 640 795 640 699 m 371 122 q 556 166 491 122 q 621 317 621 210 q 572 436 621 399 q 422 472 524 472 q 316 469 372 472 l 271 130 q 319 124 290 126 q 371 122 349 122 z "},"C":{"ha":791,"x_min":64,"x_max":810,"o":"m 581 1048 q 687 1039 644 1048 q 774 1013 730 1029 l 810 1002 l 752 833 q 678 873 721 856 q 566 891 635 891 q 388 823 458 891 q 287 652 318 755 q 256 439 256 549 q 306 219 256 297 q 463 140 357 140 q 557 152 511 140 q 637 178 603 163 q 689 208 671 194 l 715 66 q 656 35 696 52 q 555 3 616 17 q 419 -11 494 -11 q 212 52 291 -11 q 98 215 132 115 q 64 433 64 315 q 131 747 64 606 q 316 968 198 887 q 581 1048 433 1048 z "},"Ć":{"ha":791,"x_min":64,"x_max":817,"o":"m 581 1048 q 687 1039 644 1048 q 774 1013 730 1029 l 810 1002 l 752 833 q 678 873 721 856 q 566 891 635 891 q 388 823 458 891 q 287 652 318 755 q 256 439 256 549 q 306 219 256 297 q 463 140 357 140 q 557 152 511 140 q 637 178 603 163 q 689 208 671 194 l 715 66 q 656 35 696 52 q 555 3 616 17 q 419 -11 494 -11 q 212 52 291 -11 q 98 215 132 115 q 64 433 64 315 q 131 747 64 606 q 316 968 198 887 q 581 1048 433 1048 m 704 1361 l 817 1255 q 758 1181 799 1221 q 669 1110 716 1142 q 589 1066 623 1078 l 516 1129 l 704 1361 z "},"Č":{"ha":791,"x_min":64,"x_max":848,"o":"m 581 1048 q 687 1039 644 1048 q 774 1013 730 1029 l 810 1002 l 752 833 q 678 873 721 856 q 566 891 635 891 q 388 823 458 891 q 287 652 318 755 q 256 439 256 549 q 306 219 256 297 q 463 140 357 140 q 557 152 511 140 q 637 178 603 163 q 689 208 671 194 l 715 66 q 656 35 696 52 q 555 3 616 17 q 419 -11 494 -11 q 212 52 291 -11 q 98 215 132 115 q 64 433 64 315 q 131 747 64 606 q 316 968 198 887 q 581 1048 433 1048 m 419 1361 l 566 1221 l 770 1361 l 848 1309 l 615 1090 l 494 1090 l 340 1305 l 419 1361 z "},"Ç":{"ha":791,"x_min":64,"x_max":810,"o":"m 566 891 q 388 823 458 891 q 287 652 318 755 q 256 439 256 549 q 306 219 256 297 q 463 140 357 140 q 557 152 511 140 q 637 178 603 163 q 689 208 671 194 l 715 66 q 629 24 690 47 q 486 -7 568 1 q 501 -70 495 -35 q 507 -136 507 -104 q 457 -271 507 -225 q 311 -316 406 -316 q 236 -309 282 -316 q 179 -294 190 -302 l 200 -174 q 251 -184 219 -184 q 335 -162 305 -184 q 367 -81 366 -140 l 368 -50 q 366 -7 368 -33 q 190 70 258 5 q 94 229 123 135 q 64 433 64 323 q 131 747 64 606 q 316 968 198 887 q 581 1048 433 1048 q 687 1039 644 1048 q 774 1013 730 1029 l 810 1002 l 752 833 q 678 873 721 856 q 566 891 635 891 z "},"Ĉ":{"ha":791,"x_min":64,"x_max":823,"o":"m 581 1048 q 687 1039 644 1048 q 774 1013 730 1029 l 810 1002 l 752 833 q 678 873 721 856 q 566 891 635 891 q 388 823 458 891 q 287 652 318 755 q 256 439 256 549 q 306 219 256 297 q 463 140 357 140 q 557 152 511 140 q 637 178 603 163 q 689 208 671 194 l 715 66 q 656 35 696 52 q 555 3 616 17 q 419 -11 494 -11 q 212 52 291 -11 q 98 215 132 115 q 64 433 64 315 q 131 747 64 606 q 316 968 198 887 q 581 1048 433 1048 m 565 1361 l 686 1361 l 823 1131 l 742 1081 l 608 1217 l 405 1078 l 328 1126 l 565 1361 z "},"Ċ":{"ha":795,"x_min":68,"x_max":814,"o":"m 473 1216 q 490 1275 473 1248 q 534 1318 506 1302 q 593 1334 562 1334 q 668 1308 640 1334 q 696 1243 696 1282 q 681 1183 696 1211 q 636 1138 665 1155 q 571 1122 608 1122 q 522 1135 544 1122 q 486 1169 499 1147 q 473 1216 473 1190 m 585 1048 q 691 1039 648 1048 q 778 1013 734 1029 l 814 1002 l 756 833 q 682 873 725 856 q 570 891 639 891 q 392 823 462 891 q 291 652 322 755 q 260 439 260 549 q 310 219 260 297 q 467 140 361 140 q 561 152 515 140 q 641 178 607 163 q 693 208 675 194 l 719 66 q 661 35 701 52 q 559 3 621 17 q 423 -11 498 -11 q 216 52 295 -11 q 102 215 136 115 q 68 433 68 315 q 135 747 68 606 q 320 968 202 887 q 585 1048 437 1048 z "},"D":{"ha":949,"x_min":62,"x_max":920,"o":"m 920 620 q 856 303 920 447 q 668 74 791 159 q 378 -11 545 -11 q 283 -6 341 -11 q 145 0 196 0 l 62 0 l 201 1038 l 286 1038 q 403 1043 315 1038 q 528 1048 494 1048 q 826 935 732 1048 q 920 620 920 822 m 401 128 q 582 199 509 130 q 691 378 655 267 q 727 618 727 489 q 702 794 727 730 q 624 884 677 857 q 483 911 572 911 q 424 908 458 911 q 370 900 390 905 l 269 146 q 330 132 295 137 q 401 128 366 127 z "},"Ǳ":{"ha":1735,"x_min":62,"x_max":1777,"o":"m 920 620 q 856 303 920 447 q 668 74 791 159 q 378 -11 545 -11 q 283 -6 341 -11 q 145 0 196 0 l 62 0 l 201 1038 l 286 1038 q 403 1043 315 1038 q 528 1048 494 1048 q 826 935 732 1048 q 920 620 920 822 m 401 128 q 582 199 509 130 q 691 378 655 267 q 727 618 727 489 q 702 794 727 730 q 624 884 677 857 q 483 911 572 911 q 424 908 458 911 q 370 900 390 905 l 269 146 q 330 132 295 137 q 401 128 366 127 m 1458 816 l 1535 892 l 1102 884 l 1125 1038 l 1761 1038 l 1777 979 l 1261 224 l 1190 149 l 1655 157 l 1630 0 l 950 0 l 931 60 l 1458 816 z "},"Ǆ":{"ha":1735,"x_min":62,"x_max":1777,"o":"m 920 620 q 856 303 920 447 q 668 74 791 159 q 378 -11 545 -11 q 283 -6 341 -11 q 145 0 196 0 l 62 0 l 201 1038 l 286 1038 q 403 1043 315 1038 q 528 1048 494 1048 q 826 935 732 1048 q 920 620 920 822 m 401 128 q 582 199 509 130 q 691 378 655 267 q 727 618 727 489 q 702 794 727 730 q 624 884 677 857 q 483 911 572 911 q 424 908 458 911 q 370 900 390 905 l 269 146 q 330 132 295 137 q 401 128 366 127 m 1458 816 l 1535 892 l 1102 884 l 1125 1038 l 1761 1038 l 1777 979 l 1261 224 l 1190 149 l 1655 157 l 1630 0 l 950 0 l 931 60 l 1458 816 m 1313 1361 l 1460 1221 l 1664 1361 l 1742 1309 l 1509 1090 l 1388 1090 l 1234 1305 l 1313 1361 z "},"Ð":{"ha":955,"x_min":24,"x_max":924,"o":"m 924 621 q 860 303 924 448 q 672 75 795 159 q 382 -10 549 -10 q 287 -5 345 -10 q 149 1 200 1 l 66 1 l 130 473 l 24 473 l 38 602 l 146 602 l 205 1038 l 290 1038 q 407 1044 319 1038 q 532 1049 498 1049 q 830 936 736 1049 q 924 621 924 823 m 406 129 q 586 199 513 131 q 695 379 659 268 q 731 618 731 490 q 706 794 731 731 q 628 885 681 858 q 487 911 576 911 q 428 908 463 911 q 374 901 394 905 l 334 602 l 564 602 l 549 473 l 317 473 l 273 146 q 334 133 299 138 q 406 129 370 128 z "},"Ď":{"ha":954,"x_min":66,"x_max":924,"o":"m 401 1361 l 548 1221 l 751 1361 l 829 1309 l 597 1090 l 476 1090 l 322 1305 l 401 1361 m 924 620 q 860 303 924 447 q 672 74 795 159 q 382 -11 549 -11 q 287 -6 345 -11 q 149 0 200 0 l 66 0 l 205 1038 l 290 1038 q 407 1043 319 1038 q 532 1048 498 1048 q 830 935 736 1048 q 924 620 924 822 m 406 128 q 586 199 513 130 q 695 378 659 267 q 731 618 731 489 q 706 794 731 730 q 628 884 681 857 q 487 911 576 911 q 428 908 463 911 q 374 900 394 905 l 273 146 q 334 132 299 137 q 406 128 370 127 z "},"Đ":{"ha":955,"x_min":24,"x_max":924,"o":"m 924 621 q 860 303 924 448 q 672 75 795 159 q 382 -10 549 -10 q 287 -5 345 -10 q 149 1 200 1 l 66 1 l 130 473 l 24 473 l 38 602 l 146 602 l 205 1038 l 290 1038 q 407 1044 319 1038 q 532 1049 498 1049 q 830 936 736 1049 q 924 621 924 823 m 406 129 q 586 199 513 131 q 695 379 659 268 q 731 618 731 490 q 706 794 731 731 q 628 885 681 858 q 487 911 576 911 q 428 908 463 911 q 374 901 394 905 l 334 602 l 564 602 l 549 473 l 317 473 l 273 146 q 334 133 299 138 q 406 129 370 128 z "},"Ḋ":{"ha":954,"x_min":66,"x_max":924,"o":"m 451 1216 q 467 1275 451 1248 q 511 1318 484 1302 q 571 1334 539 1334 q 646 1308 618 1334 q 674 1243 674 1282 q 658 1183 674 1211 q 614 1138 642 1155 q 549 1122 585 1122 q 499 1135 522 1122 q 464 1169 477 1147 q 451 1216 451 1190 m 924 620 q 860 303 924 447 q 672 74 795 159 q 382 -11 549 -11 q 287 -6 345 -11 q 149 0 200 0 l 66 0 l 205 1038 l 290 1038 q 407 1043 319 1038 q 532 1048 498 1048 q 830 935 736 1048 q 924 620 924 822 m 406 128 q 586 199 513 130 q 695 378 659 267 q 731 618 731 489 q 706 794 731 730 q 628 884 681 857 q 487 911 576 911 q 428 908 463 911 q 374 900 394 905 l 273 146 q 334 132 299 137 q 406 128 370 127 z "},"ǲ":{"ha":1611,"x_min":62,"x_max":1625,"o":"m 920 620 q 856 303 920 447 q 668 74 791 159 q 378 -11 545 -11 q 283 -6 341 -11 q 145 0 196 0 l 62 0 l 201 1038 l 286 1038 q 403 1043 315 1038 q 528 1048 494 1048 q 826 935 732 1048 q 920 620 920 822 m 401 128 q 582 199 509 130 q 691 378 655 267 q 727 618 727 489 q 702 794 727 730 q 624 884 677 857 q 483 911 572 911 q 424 908 458 911 q 370 900 390 905 l 269 146 q 330 132 295 137 q 401 128 366 127 m 1171 145 l 1532 145 l 1517 0 l 956 0 l 924 35 l 1309 559 l 1384 630 l 1053 630 l 1073 773 l 1597 773 l 1625 741 l 1238 207 l 1171 145 z "},"ǅ":{"ha":1611,"x_min":62,"x_max":1646,"o":"m 920 620 q 856 303 920 447 q 668 74 791 159 q 378 -11 545 -11 q 283 -6 341 -11 q 145 0 196 0 l 62 0 l 201 1038 l 286 1038 q 403 1043 315 1038 q 528 1048 494 1048 q 826 935 732 1048 q 920 620 920 822 m 401 128 q 582 199 509 130 q 691 378 655 267 q 727 618 727 489 q 702 794 727 730 q 624 884 677 857 q 483 911 572 911 q 424 908 458 911 q 370 900 390 905 l 269 146 q 330 132 295 137 q 401 128 366 127 m 1171 145 l 1532 145 l 1517 0 l 956 0 l 924 35 l 1309 559 l 1384 630 l 1053 630 l 1073 773 l 1597 773 l 1625 741 l 1238 207 l 1171 145 m 1211 1127 l 1369 980 l 1568 1127 l 1646 1075 l 1413 844 l 1293 844 l 1139 1074 l 1211 1127 z "},"E":{"ha":794,"x_min":62,"x_max":772,"o":"m 772 1038 l 757 891 l 369 895 l 330 602 l 621 606 l 604 456 l 311 464 l 269 142 l 720 151 l 703 0 l 62 0 l 201 1038 l 772 1038 z "},"É":{"ha":794,"x_min":62,"x_max":772,"o":"m 635 1361 l 748 1255 q 688 1181 730 1221 q 600 1110 647 1142 q 520 1066 553 1078 l 447 1129 l 635 1361 m 772 1038 l 757 891 l 369 895 l 330 602 l 621 606 l 604 456 l 311 464 l 269 142 l 720 151 l 703 0 l 62 0 l 201 1038 l 772 1038 z "},"Ĕ":{"ha":794,"x_min":62,"x_max":772,"o":"m 296 1319 q 300 1354 296 1335 l 410 1354 q 409 1343 410 1351 q 410 1329 409 1335 q 436 1256 414 1282 q 515 1230 458 1230 q 581 1249 556 1230 q 618 1294 606 1269 q 638 1354 629 1320 l 745 1354 q 745 1332 745 1339 q 712 1224 741 1276 q 632 1139 684 1172 q 507 1106 580 1106 q 347 1165 398 1106 q 296 1319 296 1225 m 772 1038 l 757 891 l 369 895 l 330 602 l 621 606 l 604 456 l 311 464 l 269 142 l 720 151 l 703 0 l 62 0 l 201 1038 l 772 1038 z "},"Ě":{"ha":794,"x_min":62,"x_max":779,"o":"m 350 1361 l 497 1221 l 701 1361 l 779 1309 l 546 1090 l 425 1090 l 271 1305 l 350 1361 m 772 1038 l 757 891 l 369 895 l 330 602 l 621 606 l 604 456 l 311 464 l 269 142 l 720 151 l 703 0 l 62 0 l 201 1038 l 772 1038 z "},"Ê":{"ha":794,"x_min":62,"x_max":772,"o":"m 772 1038 l 757 891 l 369 895 l 330 602 l 621 606 l 604 456 l 311 464 l 269 142 l 720 151 l 703 0 l 62 0 l 201 1038 l 772 1038 m 496 1361 l 617 1361 l 753 1131 l 673 1081 l 539 1217 l 336 1078 l 259 1126 l 496 1361 z "},"Ë":{"ha":794,"x_min":62,"x_max":772,"o":"m 257 1223 q 272 1282 257 1255 q 313 1325 287 1309 q 368 1341 338 1341 q 417 1328 396 1341 q 450 1294 438 1315 q 462 1250 462 1274 q 448 1190 462 1217 q 407 1145 433 1162 q 347 1128 381 1128 q 302 1142 323 1128 q 269 1177 281 1156 q 257 1223 257 1199 m 559 1224 q 574 1282 559 1255 q 615 1325 589 1309 q 670 1341 640 1341 q 720 1328 698 1341 q 753 1294 741 1315 q 765 1250 765 1274 q 751 1190 765 1217 q 710 1145 736 1162 q 648 1128 683 1128 q 604 1142 625 1128 q 572 1178 584 1156 q 559 1224 559 1200 m 772 1038 l 757 891 l 369 895 l 330 602 l 621 606 l 604 456 l 311 464 l 269 142 l 720 151 l 703 0 l 62 0 l 201 1038 l 772 1038 z "},"Ė":{"ha":794,"x_min":62,"x_max":772,"o":"m 401 1216 q 417 1275 401 1248 q 461 1318 433 1302 q 521 1334 489 1334 q 596 1308 568 1334 q 624 1243 624 1282 q 608 1183 624 1211 q 564 1138 592 1155 q 498 1122 535 1122 q 449 1135 471 1122 q 414 1169 427 1147 q 401 1216 401 1190 m 772 1038 l 757 891 l 369 895 l 330 602 l 621 606 l 604 456 l 311 464 l 269 142 l 720 151 l 703 0 l 62 0 l 201 1038 l 772 1038 z "},"È":{"ha":794,"x_min":62,"x_max":772,"o":"m 384 1361 l 572 1129 l 498 1066 q 418 1110 465 1078 q 330 1181 372 1142 q 271 1255 289 1221 l 384 1361 m 772 1038 l 757 891 l 369 895 l 330 602 l 621 606 l 604 456 l 311 464 l 269 142 l 720 151 l 703 0 l 62 0 l 201 1038 l 772 1038 z "},"Ē":{"ha":794,"x_min":62,"x_max":772,"o":"m 688 1286 l 679 1165 l 311 1165 l 319 1286 l 688 1286 m 772 1038 l 757 891 l 369 895 l 330 602 l 621 606 l 604 456 l 311 464 l 269 142 l 720 151 l 703 0 l 62 0 l 201 1038 l 772 1038 z "},"Ę":{"ha":798,"x_min":66,"x_max":776,"o":"m 373 895 l 334 602 l 625 606 l 608 456 l 315 464 l 273 142 l 724 151 l 707 0 l 692 0 q 585 -72 631 -32 q 539 -144 539 -112 q 552 -181 539 -170 q 583 -191 564 -191 q 629 -183 607 -191 q 679 -154 651 -174 l 710 -247 q 627 -300 676 -280 q 515 -321 578 -321 q 441 -304 473 -321 q 394 -260 410 -287 q 378 -203 378 -233 q 408 -118 378 -159 q 478 -48 437 -78 q 555 0 518 -18 l 66 0 l 205 1038 l 776 1038 l 761 891 l 373 895 z "},"F":{"ha":725,"x_min":62,"x_max":760,"o":"m 760 1038 l 741 891 l 369 895 l 329 591 l 633 595 l 617 439 l 309 448 l 249 0 l 62 0 l 201 1038 l 760 1038 z "},"Ḟ":{"ha":725,"x_min":62,"x_max":760,"o":"m 379 1216 q 395 1275 379 1248 q 439 1318 412 1302 q 499 1334 467 1334 q 574 1308 546 1334 q 602 1243 602 1282 q 586 1183 602 1211 q 542 1138 570 1155 q 477 1122 513 1122 q 427 1135 450 1122 q 392 1169 405 1147 q 379 1216 379 1190 m 760 1038 l 741 891 l 369 895 l 329 591 l 633 595 l 617 439 l 309 448 l 249 0 l 62 0 l 201 1038 l 760 1038 z "},"G":{"ha":939,"x_min":60,"x_max":879,"o":"m 530 536 l 869 536 l 806 59 q 722 40 774 55 q 628 14 665 24 q 541 -3 591 5 q 436 -11 490 -11 q 223 51 307 -11 q 101 209 139 112 q 62 418 63 307 q 130 746 60 602 q 319 969 199 889 q 587 1048 440 1048 q 728 1038 670 1048 q 834 1010 785 1027 l 879 996 l 833 826 q 777 857 814 840 q 690 885 741 873 q 583 897 639 897 q 394 827 468 897 q 286 652 319 758 q 252 437 252 547 q 304 216 252 300 q 466 132 356 132 q 556 141 506 132 q 643 168 607 151 l 674 387 l 511 387 l 530 536 z "},"Ǵ":{"ha":939,"x_min":60,"x_max":879,"o":"m 530 536 l 869 536 l 806 59 q 722 40 774 55 q 628 14 665 24 q 541 -3 591 5 q 436 -11 490 -11 q 223 51 307 -11 q 101 209 139 112 q 62 418 63 307 q 130 746 60 602 q 319 969 199 889 q 587 1048 440 1048 q 728 1038 670 1048 q 834 1010 785 1027 l 879 996 l 833 826 q 777 857 814 840 q 690 885 741 873 q 583 897 639 897 q 394 827 468 897 q 286 652 319 758 q 252 437 252 547 q 304 216 252 300 q 466 132 356 132 q 556 141 506 132 q 643 168 607 151 l 674 387 l 511 387 l 530 536 m 734 1361 l 848 1255 q 788 1181 829 1221 q 700 1110 747 1142 q 620 1066 653 1078 l 547 1129 l 734 1361 z "},"Ğ":{"ha":943,"x_min":64,"x_max":883,"o":"m 399 1319 q 404 1354 399 1335 l 513 1354 q 512 1343 513 1351 q 513 1329 512 1335 q 539 1256 517 1282 q 618 1230 562 1230 q 684 1249 659 1230 q 721 1294 709 1269 q 741 1354 732 1320 l 848 1354 q 848 1332 848 1339 q 815 1224 844 1276 q 735 1139 787 1172 q 610 1106 683 1106 q 450 1165 501 1106 q 399 1319 399 1225 m 534 536 l 873 536 l 810 59 q 726 40 779 55 q 632 14 669 24 q 545 -3 595 5 q 440 -11 494 -11 q 227 51 311 -11 q 105 209 143 112 q 66 418 67 307 q 134 746 64 602 q 323 969 203 889 q 591 1048 444 1048 q 732 1038 674 1048 q 838 1010 789 1027 l 883 996 l 837 826 q 781 857 818 840 q 694 885 745 873 q 587 897 643 897 q 398 827 472 897 q 290 652 323 758 q 256 437 256 547 q 308 216 256 300 q 470 132 360 132 q 561 141 510 132 q 647 168 611 151 l 678 387 l 515 387 l 534 536 z "},"Ǧ":{"ha":939,"x_min":60,"x_max":879,"o":"m 530 536 l 869 536 l 806 59 q 722 40 774 55 q 628 14 665 24 q 541 -3 591 5 q 436 -11 490 -11 q 223 51 307 -11 q 101 209 139 112 q 62 418 63 307 q 130 746 60 602 q 319 969 199 889 q 587 1048 440 1048 q 728 1038 670 1048 q 834 1010 785 1027 l 879 996 l 833 826 q 777 857 814 840 q 690 885 741 873 q 583 897 639 897 q 394 827 468 897 q 286 652 319 758 q 252 437 252 547 q 304 216 252 300 q 466 132 356 132 q 556 141 506 132 q 643 168 607 151 l 674 387 l 511 387 l 530 536 m 450 1361 l 597 1221 l 800 1361 l 878 1309 l 646 1090 l 525 1090 l 371 1305 l 450 1361 z "},"Ĝ":{"ha":939,"x_min":60,"x_max":879,"o":"m 530 536 l 869 536 l 806 59 q 722 40 774 55 q 628 14 665 24 q 541 -3 591 5 q 436 -11 490 -11 q 223 51 307 -11 q 101 209 139 112 q 62 418 63 307 q 130 746 60 602 q 319 969 199 889 q 587 1048 440 1048 q 728 1038 670 1048 q 834 1010 785 1027 l 879 996 l 833 826 q 777 857 814 840 q 690 885 741 873 q 583 897 639 897 q 394 827 468 897 q 286 652 319 758 q 252 437 252 547 q 304 216 252 300 q 466 132 356 132 q 556 141 506 132 q 643 168 607 151 l 674 387 l 511 387 l 530 536 m 595 1361 l 717 1361 l 853 1131 l 772 1081 l 639 1217 l 435 1078 l 359 1126 l 595 1361 z "},"Ģ":{"ha":943,"x_min":64,"x_max":883,"o":"m 380 -106 l 475 -30 q 526 -58 503 -36 q 561 -111 549 -79 q 574 -176 574 -142 q 552 -274 574 -230 q 499 -346 531 -318 q 434 -380 467 -374 l 373 -339 l 375 -321 q 421 -227 421 -288 q 407 -180 421 -202 q 374 -156 393 -159 l 380 -106 m 534 536 l 873 536 l 810 59 q 726 40 779 55 q 632 14 669 24 q 545 -3 595 5 q 440 -11 494 -11 q 227 51 311 -11 q 105 209 143 112 q 66 418 67 307 q 134 746 64 602 q 323 969 203 889 q 591 1048 444 1048 q 732 1038 674 1048 q 838 1010 789 1027 l 883 996 l 837 826 q 781 857 818 840 q 694 885 745 873 q 587 897 643 897 q 398 827 472 897 q 290 652 323 758 q 256 437 256 547 q 308 216 256 300 q 470 132 360 132 q 561 141 510 132 q 647 168 611 151 l 678 387 l 515 387 l 534 536 z "},"Ġ":{"ha":943,"x_min":64,"x_max":883,"o":"m 504 1216 q 520 1275 504 1248 q 564 1318 536 1302 q 624 1334 592 1334 q 699 1308 671 1334 q 727 1243 727 1282 q 711 1183 727 1211 q 667 1138 695 1155 q 602 1122 638 1122 q 552 1135 574 1122 q 517 1169 530 1147 q 504 1216 504 1190 m 534 536 l 873 536 l 810 59 q 726 40 779 55 q 632 14 669 24 q 545 -3 595 5 q 440 -11 494 -11 q 227 51 311 -11 q 105 209 143 112 q 66 418 67 307 q 134 746 64 602 q 323 969 203 889 q 591 1048 444 1048 q 732 1038 674 1048 q 838 1010 789 1027 l 883 996 l 837 826 q 781 857 818 840 q 694 885 745 873 q 587 897 643 897 q 398 827 472 897 q 290 652 323 758 q 256 437 256 547 q 308 216 256 300 q 470 132 360 132 q 561 141 510 132 q 647 168 611 151 l 678 387 l 515 387 l 534 536 z "},"Ḡ":{"ha":939,"x_min":60,"x_max":879,"o":"m 530 536 l 869 536 l 806 59 q 722 40 774 55 q 628 14 665 24 q 541 -3 591 5 q 436 -11 490 -11 q 223 51 307 -11 q 101 209 139 112 q 62 418 63 307 q 130 746 60 602 q 319 969 199 889 q 587 1048 440 1048 q 728 1038 670 1048 q 834 1010 785 1027 l 879 996 l 833 826 q 777 857 814 840 q 690 885 741 873 q 583 897 639 897 q 394 827 468 897 q 286 652 319 758 q 252 437 252 547 q 304 216 252 300 q 466 132 356 132 q 556 141 506 132 q 643 168 607 151 l 674 387 l 511 387 l 530 536 m 787 1286 l 779 1165 l 410 1165 l 418 1286 l 787 1286 z "},"H":{"ha":987,"x_min":58,"x_max":958,"o":"m 958 1038 l 819 0 l 630 0 l 690 446 l 305 446 l 245 0 l 58 0 l 197 1038 l 385 1038 l 323 580 l 708 580 l 770 1038 l 958 1038 z "},"Ħ":{"ha":991,"x_min":18,"x_max":1069,"o":"m 1056 650 l 914 650 l 827 0 l 638 0 l 686 351 l 300 351 l 253 0 l 66 0 l 153 650 l 18 650 l 31 785 l 172 785 l 205 1038 l 393 1038 l 359 785 l 744 785 l 778 1038 l 966 1038 l 932 785 l 1069 785 l 1056 650 m 726 650 l 340 650 l 319 486 l 704 486 l 726 650 z "},"Ĥ":{"ha":987,"x_min":58,"x_max":958,"o":"m 958 1038 l 819 0 l 630 0 l 690 446 l 305 446 l 245 0 l 58 0 l 197 1038 l 385 1038 l 323 580 l 708 580 l 770 1038 l 958 1038 m 577 1361 l 699 1361 l 835 1131 l 754 1081 l 621 1217 l 417 1078 l 340 1126 l 577 1361 z "},"I":{"ha":436,"x_min":77,"x_max":404,"o":"m 404 1038 l 264 0 l 77 0 l 216 1038 l 404 1038 z "},"Ĳ":{"ha":870,"x_min":77,"x_max":838,"o":"m 404 1038 l 264 0 l 77 0 l 216 1038 l 404 1038 m 838 1038 q 747 348 781 602 q 699 51 712 95 q 566 -155 659 -93 q 344 -228 473 -218 l 317 -158 q 413 -109 371 -142 q 480 -32 454 -75 q 515 58 507 12 q 566 356 543 187 q 618 780 589 526 q 650 1038 644 995 l 838 1038 z "},"Í":{"ha":436,"x_min":77,"x_max":569,"o":"m 404 1038 l 264 0 l 77 0 l 216 1038 l 404 1038 m 456 1361 l 569 1255 q 509 1181 551 1221 q 421 1110 468 1142 q 341 1066 374 1078 l 268 1129 l 456 1361 z "},"Ĭ":{"ha":436,"x_min":77,"x_max":566,"o":"m 404 1038 l 264 0 l 77 0 l 216 1038 l 404 1038 m 117 1319 q 121 1354 117 1335 l 231 1354 q 230 1343 231 1351 q 231 1329 230 1335 q 257 1256 235 1282 q 336 1230 279 1230 q 402 1249 377 1230 q 439 1294 427 1269 q 459 1354 450 1320 l 566 1354 q 566 1332 566 1339 q 533 1224 562 1276 q 453 1139 505 1172 q 328 1106 401 1106 q 168 1165 219 1106 q 117 1319 117 1225 z "},"Ǐ":{"ha":436,"x_min":77,"x_max":600,"o":"m 404 1038 l 264 0 l 77 0 l 216 1038 l 404 1038 m 171 1361 l 318 1221 l 522 1361 l 600 1309 l 367 1090 l 246 1090 l 92 1305 l 171 1361 z "},"Î":{"ha":436,"x_min":77,"x_max":574,"o":"m 404 1038 l 264 0 l 77 0 l 216 1038 l 404 1038 m 317 1361 l 438 1361 l 574 1131 l 494 1081 l 360 1217 l 157 1078 l 80 1126 l 317 1361 z "},"Ï":{"ha":436,"x_min":77,"x_max":586,"o":"m 404 1038 l 264 0 l 77 0 l 216 1038 l 404 1038 m 78 1223 q 93 1282 78 1255 q 134 1325 108 1309 q 189 1341 159 1341 q 238 1328 217 1341 q 271 1294 259 1315 q 283 1250 283 1274 q 269 1190 283 1217 q 228 1145 254 1162 q 168 1128 202 1128 q 123 1142 144 1128 q 90 1177 102 1156 q 78 1223 78 1199 m 380 1224 q 395 1282 380 1255 q 436 1325 410 1309 q 491 1341 461 1341 q 541 1328 519 1341 q 574 1294 562 1315 q 586 1250 586 1274 q 572 1190 586 1217 q 531 1145 557 1162 q 469 1128 504 1128 q 425 1142 446 1128 q 393 1178 405 1156 q 380 1224 380 1200 z "},"İ":{"ha":436,"x_min":77,"x_max":445,"o":"m 404 1038 l 264 0 l 77 0 l 216 1038 l 404 1038 m 222 1216 q 238 1275 222 1248 q 282 1318 254 1302 q 342 1334 310 1334 q 417 1308 389 1334 q 445 1243 445 1282 q 429 1183 445 1211 q 385 1138 413 1155 q 319 1122 356 1122 q 270 1135 292 1122 q 235 1169 248 1147 q 222 1216 222 1190 z "},"Ì":{"ha":436,"x_min":77,"x_max":404,"o":"m 404 1038 l 264 0 l 77 0 l 216 1038 l 404 1038 m 205 1361 l 393 1129 l 319 1066 q 239 1110 286 1078 q 151 1181 193 1142 q 92 1255 110 1221 l 205 1361 z "},"Ī":{"ha":436,"x_min":77,"x_max":509,"o":"m 404 1038 l 264 0 l 77 0 l 216 1038 l 404 1038 m 509 1286 l 500 1165 l 132 1165 l 140 1286 l 509 1286 z "},"Į":{"ha":436,"x_min":-96,"x_max":404,"o":"m 218 0 q 111 -72 157 -32 q 65 -144 65 -112 q 78 -181 65 -170 q 109 -191 90 -191 q 155 -183 133 -191 q 205 -154 177 -174 l 236 -247 q 153 -300 202 -280 q 41 -321 104 -321 q -33 -304 -1 -321 q -80 -260 -64 -287 q -96 -203 -96 -233 q -66 -118 -96 -159 q 4 -48 -37 -78 q 81 0 44 -18 l 77 0 l 216 1038 l 404 1038 l 264 0 l 218 0 z "},"Ĩ":{"ha":436,"x_min":64,"x_max":636,"o":"m 404 1038 l 264 0 l 77 0 l 216 1038 l 404 1038 m 64 1215 q 112 1274 79 1245 q 186 1321 145 1303 q 262 1339 227 1339 q 329 1325 302 1339 q 386 1283 356 1310 q 425 1253 410 1262 q 460 1243 440 1243 q 504 1254 485 1243 q 532 1276 522 1264 q 567 1318 543 1287 l 636 1238 q 593 1174 624 1205 q 522 1124 562 1143 q 444 1105 481 1105 q 389 1113 412 1105 q 350 1132 366 1121 q 315 1160 335 1143 q 273 1192 291 1181 q 230 1202 256 1202 q 192 1193 210 1202 q 162 1173 175 1185 q 130 1141 149 1162 l 64 1215 z "},"J":{"ha":434,"x_min":-119,"x_max":401,"o":"m 401 1038 q 311 348 345 602 q 262 51 276 95 q 130 -155 222 -93 q -92 -228 37 -218 l -119 -158 q -23 -109 -65 -142 q 44 -32 18 -75 q 79 58 71 12 q 130 356 107 187 q 182 780 153 526 q 214 1038 208 995 l 401 1038 z "},"Ĵ":{"ha":434,"x_min":-119,"x_max":565,"o":"m 401 1038 q 311 348 345 602 q 262 51 276 95 q 130 -155 222 -93 q -92 -228 37 -218 l -119 -158 q -23 -109 -65 -142 q 44 -32 18 -75 q 79 58 71 12 q 130 356 107 187 q 182 780 153 526 q 214 1038 208 995 l 401 1038 m 307 1361 l 429 1361 l 565 1131 l 484 1081 l 351 1217 l 147 1078 l 71 1126 l 307 1361 z "},"K":{"ha":876,"x_min":62,"x_max":945,"o":"m 532 578 q 661 340 576 502 l 718 232 q 852 -1 791 93 l 629 1 q 589 77 621 12 q 519 219 557 142 q 479 302 507 242 q 440 382 450 361 l 411 444 l 291 311 l 249 0 l 62 0 l 201 1038 l 389 1038 l 323 550 l 730 1038 l 945 1038 l 532 578 z "},"Ķ":{"ha":880,"x_min":66,"x_max":949,"o":"m 330 -104 l 425 -28 q 476 -56 454 -35 q 512 -110 499 -78 q 524 -175 524 -141 q 503 -273 524 -229 q 449 -345 481 -317 q 385 -378 417 -372 l 323 -338 l 326 -320 q 372 -226 372 -287 q 358 -179 372 -201 q 324 -155 344 -157 l 330 -104 m 536 578 q 665 340 580 502 l 722 232 q 856 -1 795 93 l 633 1 q 593 77 625 12 q 524 219 561 142 q 483 302 511 242 q 444 382 454 361 l 415 444 l 295 311 l 253 0 l 66 0 l 205 1038 l 393 1038 l 327 550 l 734 1038 l 949 1038 l 536 578 z "},"L":{"ha":694,"x_min":62,"x_max":631,"o":"m 389 1038 l 269 150 l 631 155 l 610 0 l 62 0 l 201 1038 l 389 1038 z "},"Ǉ":{"ha":1128,"x_min":62,"x_max":1095,"o":"m 389 1038 l 269 150 l 631 155 l 610 0 l 62 0 l 201 1038 l 389 1038 m 1095 1038 q 1004 348 1039 602 q 956 51 970 95 q 823 -155 916 -93 q 602 -228 730 -218 l 575 -158 q 670 -109 629 -142 q 738 -32 712 -75 q 773 58 764 12 q 824 356 801 187 q 876 780 846 526 q 907 1038 902 995 l 1095 1038 z "},"Ĺ":{"ha":698,"x_min":66,"x_max":635,"o":"m 461 1362 l 574 1256 q 515 1183 556 1222 q 427 1112 473 1143 q 347 1067 380 1080 l 273 1131 l 461 1362 m 393 1038 l 273 150 l 635 155 l 614 0 l 66 0 l 205 1038 l 393 1038 z "},"Ľ":{"ha":698,"x_min":62,"x_max":730,"o":"m 389 1038 l 269 150 l 631 155 l 610 0 l 62 0 l 201 1038 l 389 1038 m 551 722 q 571 821 563 765 q 578 930 578 876 q 574 1010 578 972 q 559 1063 569 1048 l 569 1088 l 707 1120 q 730 978 730 1081 q 705 818 730 901 q 640 682 681 734 l 555 705 l 551 722 z "},"Ļ":{"ha":698,"x_min":66,"x_max":635,"o":"m 233 -104 l 328 -28 q 379 -56 356 -35 q 414 -110 401 -78 q 427 -175 427 -141 q 405 -273 427 -229 q 352 -345 384 -317 q 287 -378 319 -372 l 226 -338 l 228 -320 q 274 -226 274 -287 q 260 -179 274 -201 q 227 -155 246 -157 l 233 -104 m 393 1038 l 273 150 l 635 155 l 614 0 l 66 0 l 205 1038 l 393 1038 z "},"Ŀ":{"ha":770,"x_min":62,"x_max":750,"o":"m 389 1038 l 269 150 l 631 155 l 610 0 l 62 0 l 201 1038 l 389 1038 m 655 724 q 727 700 704 724 q 750 636 750 675 q 716 542 750 577 q 625 507 682 507 q 557 532 583 507 q 532 597 532 557 q 547 660 532 631 q 590 707 562 689 q 655 724 618 724 z "},"ǈ":{"ha":1116,"x_min":62,"x_max":1109,"o":"m 389 1038 l 269 150 l 631 155 l 610 0 l 62 0 l 201 1038 l 389 1038 m 1056 773 l 950 1 q 889 -189 935 -109 q 776 -311 844 -269 q 629 -353 709 -353 q 566 -347 595 -353 q 523 -329 538 -340 l 570 -230 q 585 -236 576 -234 q 602 -237 595 -237 q 691 -200 659 -237 q 740 -105 724 -163 q 768 45 755 -47 l 868 773 l 1056 773 m 887 1011 q 903 1070 887 1043 q 946 1115 919 1098 q 1007 1131 974 1131 q 1060 1119 1037 1131 q 1096 1085 1084 1106 q 1109 1039 1109 1064 q 1093 978 1109 1006 q 1049 934 1078 950 q 983 918 1020 918 q 936 930 958 918 q 900 964 913 943 q 887 1011 887 985 z "},"Ł":{"ha":698,"x_min":-28,"x_max":635,"o":"m 635 156 l 614 1 l 66 1 l 116 373 l 4 331 l -28 433 l 132 496 l 205 1038 l 393 1038 l 330 572 l 577 668 l 608 559 l 313 448 l 273 151 l 635 156 z "},"M":{"ha":1282,"x_min":6,"x_max":1194,"o":"m 538 1038 l 615 321 l 623 188 l 656 321 l 921 1038 l 1194 1038 l 1173 0 l 985 0 l 1032 732 l 1050 941 l 979 749 l 682 -2 l 503 -12 l 408 740 l 395 941 l 357 736 l 192 0 l 6 0 l 277 1038 l 538 1038 z "},"Ṁ":{"ha":1282,"x_min":6,"x_max":1194,"o":"m 631 1216 q 647 1275 631 1248 q 691 1318 663 1302 q 751 1334 719 1334 q 826 1308 798 1334 q 854 1243 854 1282 q 838 1183 854 1211 q 793 1138 822 1155 q 728 1122 765 1122 q 679 1135 701 1122 q 644 1169 656 1147 q 631 1216 631 1190 m 538 1038 l 615 321 l 623 188 l 656 321 l 921 1038 l 1194 1038 l 1173 0 l 985 0 l 1032 732 l 1050 941 l 979 749 l 682 -2 l 503 -12 l 408 740 l 395 941 l 357 736 l 192 0 l 6 0 l 277 1038 l 538 1038 z "},"N":{"ha":983,"x_min":62,"x_max":959,"o":"m 376 1038 l 646 409 l 694 251 l 705 423 l 779 1038 l 959 1038 l 819 0 l 653 0 l 380 647 l 329 819 l 321 625 l 239 0 l 62 0 l 201 1038 l 376 1038 z "},"Ǌ":{"ha":1417,"x_min":62,"x_max":1385,"o":"m 376 1038 l 646 409 l 694 251 l 705 423 l 779 1038 l 959 1038 l 819 0 l 653 0 l 380 647 l 329 819 l 321 625 l 239 0 l 62 0 l 201 1038 l 376 1038 m 1385 1038 q 1294 348 1329 602 q 1246 51 1259 95 q 1113 -155 1206 -93 q 891 -228 1020 -218 l 865 -158 q 960 -109 918 -142 q 1028 -32 1002 -75 q 1063 58 1054 12 q 1113 356 1090 187 q 1166 780 1136 526 q 1197 1038 1192 995 l 1385 1038 z "},"Ń":{"ha":987,"x_min":66,"x_max":963,"o":"m 726 1361 l 840 1255 q 780 1181 821 1221 q 692 1110 739 1142 q 612 1066 645 1078 l 538 1129 l 726 1361 m 380 1038 l 650 409 l 698 251 l 709 423 l 783 1038 l 963 1038 l 823 0 l 657 0 l 385 647 l 333 819 l 325 625 l 243 0 l 66 0 l 205 1038 l 380 1038 z "},"Ň":{"ha":987,"x_min":66,"x_max":963,"o":"m 441 1361 l 589 1221 l 792 1361 l 870 1309 l 637 1090 l 517 1090 l 363 1305 l 441 1361 m 380 1038 l 650 409 l 698 251 l 709 423 l 783 1038 l 963 1038 l 823 0 l 657 0 l 385 647 l 333 819 l 325 625 l 243 0 l 66 0 l 205 1038 l 380 1038 z "},"Ņ":{"ha":987,"x_min":66,"x_max":963,"o":"m 357 -106 l 452 -30 q 504 -58 481 -36 q 539 -111 526 -79 q 551 -176 551 -142 q 530 -274 551 -230 q 476 -346 509 -318 q 412 -380 444 -374 l 351 -339 l 353 -321 q 399 -227 399 -288 q 385 -180 399 -202 q 351 -156 371 -159 l 357 -106 m 380 1038 l 650 409 l 698 251 l 709 423 l 783 1038 l 963 1038 l 823 0 l 657 0 l 385 647 l 333 819 l 325 625 l 243 0 l 66 0 l 205 1038 l 380 1038 z "},"Ṅ":{"ha":983,"x_min":62,"x_max":959,"o":"m 376 1038 l 646 409 l 694 251 l 705 423 l 779 1038 l 959 1038 l 819 0 l 653 0 l 380 647 l 329 819 l 321 625 l 239 0 l 62 0 l 201 1038 l 376 1038 m 488 1216 q 505 1275 488 1248 q 549 1318 521 1302 q 608 1334 576 1334 q 683 1308 655 1334 q 711 1243 711 1282 q 695 1183 711 1211 q 651 1138 680 1155 q 586 1122 623 1122 q 536 1135 559 1122 q 501 1169 514 1147 q 488 1216 488 1190 z "},"Ŋ":{"ha":1027,"x_min":66,"x_max":963,"o":"m 963 1038 l 823 0 l 822 0 q 701 -166 791 -100 q 473 -248 610 -233 l 442 -174 q 581 -92 531 -141 q 648 22 630 -43 l 385 647 l 333 819 l 325 625 l 243 0 l 66 0 l 205 1038 l 380 1038 l 650 409 l 698 251 l 709 423 l 783 1038 l 963 1038 z "},"ǋ":{"ha":1405,"x_min":62,"x_max":1398,"o":"m 376 1038 l 646 409 l 694 251 l 705 423 l 779 1038 l 959 1038 l 819 0 l 653 0 l 380 647 l 329 819 l 321 625 l 239 0 l 62 0 l 201 1038 l 376 1038 m 1345 773 l 1240 1 q 1179 -189 1225 -109 q 1066 -311 1133 -269 q 919 -353 998 -353 q 856 -347 884 -353 q 812 -329 827 -340 l 860 -230 q 875 -236 865 -234 q 891 -237 884 -237 q 981 -200 948 -237 q 1029 -105 1014 -163 q 1058 45 1045 -47 l 1158 773 l 1345 773 m 1177 1011 q 1193 1070 1177 1043 q 1236 1115 1208 1098 q 1297 1131 1263 1131 q 1350 1119 1326 1131 q 1386 1085 1373 1106 q 1398 1039 1398 1064 q 1383 978 1398 1006 q 1338 934 1367 950 q 1273 918 1310 918 q 1225 930 1247 918 q 1190 964 1203 943 q 1177 1011 1177 985 z "},"Ñ":{"ha":987,"x_min":66,"x_max":963,"o":"m 334 1215 q 382 1274 349 1245 q 456 1321 416 1303 q 532 1339 497 1339 q 600 1325 573 1339 q 656 1283 627 1310 q 695 1253 680 1262 q 731 1243 711 1243 q 774 1254 755 1243 q 803 1276 793 1264 q 838 1318 813 1287 l 907 1238 q 863 1174 895 1205 q 792 1124 832 1143 q 714 1105 752 1105 q 660 1113 683 1105 q 621 1132 636 1121 q 585 1160 606 1143 q 544 1192 562 1181 q 500 1202 526 1202 q 463 1193 480 1202 q 433 1173 446 1185 q 400 1141 420 1162 l 334 1215 m 380 1038 l 650 409 l 698 251 l 709 423 l 783 1038 l 963 1038 l 823 0 l 657 0 l 385 647 l 333 819 l 325 625 l 243 0 l 66 0 l 205 1038 l 380 1038 z "},"O":{"ha":940,"x_min":59,"x_max":905,"o":"m 59 412 q 121 733 59 587 q 297 964 184 879 q 555 1048 410 1048 q 747 992 668 1048 q 866 840 826 935 q 905 626 905 744 q 844 305 905 450 q 671 74 783 159 q 413 -11 559 -11 q 218 45 298 -11 q 99 197 138 102 q 59 412 59 293 m 712 610 q 692 781 712 716 q 632 876 672 846 q 531 905 593 905 q 386 836 450 905 q 287 656 322 766 q 252 428 252 546 q 297 201 252 271 q 433 131 341 131 q 579 199 515 131 q 677 378 642 267 q 712 610 712 488 z "},"Ó":{"ha":940,"x_min":59,"x_max":905,"o":"m 714 1361 l 827 1255 q 768 1181 809 1221 q 680 1110 726 1142 q 600 1066 633 1078 l 526 1129 l 714 1361 m 59 412 q 121 733 59 587 q 297 964 184 879 q 555 1048 410 1048 q 747 992 668 1048 q 866 840 826 935 q 905 626 905 744 q 844 305 905 450 q 671 74 783 159 q 413 -11 559 -11 q 218 45 298 -11 q 99 197 138 102 q 59 412 59 293 m 712 610 q 692 781 712 716 q 632 876 672 846 q 531 905 593 905 q 386 836 450 905 q 287 656 322 766 q 252 428 252 546 q 297 201 252 271 q 433 131 341 131 q 579 199 515 131 q 677 378 642 267 q 712 610 712 488 z "},"Ŏ":{"ha":940,"x_min":59,"x_max":905,"o":"m 374 1319 q 379 1354 374 1335 l 488 1354 q 488 1343 488 1351 q 488 1329 488 1335 q 515 1256 493 1282 q 593 1230 537 1230 q 660 1249 635 1230 q 696 1294 685 1269 q 717 1354 708 1320 l 824 1354 q 823 1332 824 1339 q 791 1224 819 1276 q 711 1139 763 1172 q 586 1106 659 1106 q 426 1165 477 1106 q 374 1319 374 1225 m 59 412 q 121 733 59 587 q 297 964 184 879 q 555 1048 410 1048 q 747 992 668 1048 q 866 840 826 935 q 905 626 905 744 q 844 305 905 450 q 671 74 783 159 q 413 -11 559 -11 q 218 45 298 -11 q 99 197 138 102 q 59 412 59 293 m 712 610 q 692 781 712 716 q 632 876 672 846 q 531 905 593 905 q 386 836 450 905 q 287 656 322 766 q 252 428 252 546 q 297 201 252 271 q 433 131 341 131 q 579 199 515 131 q 677 378 642 267 q 712 610 712 488 z "},"Ǒ":{"ha":940,"x_min":59,"x_max":905,"o":"m 59 412 q 121 733 59 587 q 297 964 184 879 q 555 1048 410 1048 q 747 992 668 1048 q 866 840 826 935 q 905 626 905 744 q 844 305 905 450 q 671 74 783 159 q 413 -11 559 -11 q 218 45 298 -11 q 99 197 138 102 q 59 412 59 293 m 712 610 q 692 781 712 716 q 632 876 672 846 q 531 905 593 905 q 386 836 450 905 q 287 656 322 766 q 252 428 252 546 q 297 201 252 271 q 433 131 341 131 q 579 199 515 131 q 677 378 642 267 q 712 610 712 488 m 429 1361 l 576 1221 l 780 1361 l 858 1309 l 625 1090 l 505 1090 l 351 1305 l 429 1361 z "},"Ô":{"ha":940,"x_min":59,"x_max":905,"o":"m 59 412 q 121 733 59 587 q 297 964 184 879 q 555 1048 410 1048 q 747 992 668 1048 q 866 840 826 935 q 905 626 905 744 q 844 305 905 450 q 671 74 783 159 q 413 -11 559 -11 q 218 45 298 -11 q 99 197 138 102 q 59 412 59 293 m 712 610 q 692 781 712 716 q 632 876 672 846 q 531 905 593 905 q 386 836 450 905 q 287 656 322 766 q 252 428 252 546 q 297 201 252 271 q 433 131 341 131 q 579 199 515 131 q 677 378 642 267 q 712 610 712 488 m 575 1361 l 696 1361 l 833 1131 l 752 1081 l 618 1217 l 415 1078 l 338 1126 l 575 1361 z "},"Ö":{"ha":940,"x_min":59,"x_max":905,"o":"m 336 1223 q 351 1282 336 1255 q 391 1325 366 1309 q 447 1341 417 1341 q 496 1328 475 1341 q 529 1294 517 1315 q 541 1250 541 1274 q 526 1190 541 1217 q 486 1145 512 1162 q 425 1128 460 1128 q 381 1142 401 1128 q 348 1177 360 1156 q 336 1223 336 1199 m 638 1224 q 653 1282 638 1255 q 693 1325 668 1309 q 749 1341 719 1341 q 798 1328 777 1341 q 832 1294 820 1315 q 844 1250 844 1274 q 829 1190 844 1217 q 788 1145 815 1162 q 727 1128 762 1128 q 683 1142 703 1128 q 650 1178 663 1156 q 638 1224 638 1200 m 59 412 q 121 733 59 587 q 297 964 184 879 q 555 1048 410 1048 q 747 992 668 1048 q 866 840 826 935 q 905 626 905 744 q 844 305 905 450 q 671 74 783 159 q 413 -11 559 -11 q 218 45 298 -11 q 99 197 138 102 q 59 412 59 293 m 712 610 q 692 781 712 716 q 632 876 672 846 q 531 905 593 905 q 386 836 450 905 q 287 656 322 766 q 252 428 252 546 q 297 201 252 271 q 433 131 341 131 q 579 199 515 131 q 677 378 642 267 q 712 610 712 488 z "},"Ò":{"ha":940,"x_min":59,"x_max":905,"o":"m 463 1361 l 651 1129 l 578 1066 q 498 1110 545 1078 q 410 1181 451 1142 q 350 1255 368 1221 l 463 1361 m 59 412 q 121 733 59 587 q 297 964 184 879 q 555 1048 410 1048 q 747 992 668 1048 q 866 840 826 935 q 905 626 905 744 q 844 305 905 450 q 671 74 783 159 q 413 -11 559 -11 q 218 45 298 -11 q 99 197 138 102 q 59 412 59 293 m 712 610 q 692 781 712 716 q 632 876 672 846 q 531 905 593 905 q 386 836 450 905 q 287 656 322 766 q 252 428 252 546 q 297 201 252 271 q 433 131 341 131 q 579 199 515 131 q 677 378 642 267 q 712 610 712 488 z "},"Ő":{"ha":940,"x_min":59,"x_max":966,"o":"m 59 412 q 121 733 59 587 q 297 964 184 879 q 555 1048 410 1048 q 747 992 668 1048 q 866 840 826 935 q 905 626 905 744 q 844 305 905 450 q 671 74 783 159 q 413 -11 559 -11 q 218 45 298 -11 q 99 197 138 102 q 59 412 59 293 m 712 610 q 692 781 712 716 q 632 876 672 846 q 531 905 593 905 q 386 836 450 905 q 287 656 322 766 q 252 428 252 546 q 297 201 252 271 q 433 131 341 131 q 579 199 515 131 q 677 378 642 267 q 712 610 712 488 m 551 1361 l 659 1273 q 598 1190 642 1236 q 506 1107 555 1144 q 422 1058 456 1071 l 349 1109 l 551 1361 m 860 1361 l 966 1272 q 902 1188 945 1234 q 809 1107 859 1143 q 722 1058 760 1071 l 657 1109 l 860 1361 z "},"Ō":{"ha":940,"x_min":59,"x_max":905,"o":"m 767 1286 l 758 1165 l 390 1165 l 398 1286 l 767 1286 m 59 412 q 121 733 59 587 q 297 964 184 879 q 555 1048 410 1048 q 747 992 668 1048 q 866 840 826 935 q 905 626 905 744 q 844 305 905 450 q 671 74 783 159 q 413 -11 559 -11 q 218 45 298 -11 q 99 197 138 102 q 59 412 59 293 m 712 610 q 692 781 712 716 q 632 876 672 846 q 531 905 593 905 q 386 836 450 905 q 287 656 322 766 q 252 428 252 546 q 297 201 252 271 q 433 131 341 131 q 579 199 515 131 q 677 378 642 267 q 712 610 712 488 z "},"Ø":{"ha":940,"x_min":59,"x_max":905,"o":"m 905 627 q 844 306 905 451 q 671 75 783 160 q 413 -10 559 -10 q 216 47 298 -10 l 127 -90 l 67 -56 l 165 93 q 86 233 113 151 q 59 412 59 315 q 121 734 59 588 q 297 964 184 880 q 555 1049 410 1049 q 741 997 663 1049 l 826 1133 l 886 1099 l 795 952 q 877 810 849 895 q 905 627 905 726 m 531 906 q 386 837 450 906 q 287 657 322 767 q 252 429 252 547 q 275 250 252 319 l 646 864 q 531 906 604 906 m 433 132 q 579 200 515 132 q 677 378 642 268 q 712 610 712 489 q 686 798 712 729 l 312 181 q 433 132 355 132 z "},"Ǿ":{"ha":940,"x_min":59,"x_max":905,"o":"m 905 627 q 844 306 905 451 q 671 75 783 160 q 413 -10 559 -10 q 216 47 298 -10 l 127 -90 l 67 -56 l 165 93 q 86 233 113 151 q 59 412 59 315 q 121 734 59 588 q 297 964 184 880 q 555 1049 410 1049 q 741 997 663 1049 l 826 1133 l 886 1099 l 795 952 q 877 810 849 895 q 905 627 905 726 m 531 906 q 386 837 450 906 q 287 657 322 767 q 252 429 252 547 q 275 250 252 319 l 646 864 q 531 906 604 906 m 433 132 q 579 200 515 132 q 677 378 642 268 q 712 610 712 489 q 686 798 712 729 l 312 181 q 433 132 355 132 m 682 1361 l 795 1255 q 735 1181 777 1221 q 647 1110 694 1142 q 567 1066 600 1078 l 494 1129 l 682 1361 z "},"Õ":{"ha":940,"x_min":59,"x_max":905,"o":"m 321 1215 q 370 1274 336 1245 q 444 1321 403 1303 q 519 1339 484 1339 q 587 1325 560 1339 q 644 1283 614 1310 q 683 1253 667 1262 q 718 1243 698 1243 q 761 1254 743 1243 q 790 1276 780 1264 q 825 1318 800 1287 l 894 1238 q 850 1174 882 1205 q 779 1124 819 1143 q 701 1105 739 1105 q 647 1113 670 1105 q 608 1132 623 1121 q 572 1160 593 1143 q 531 1192 549 1181 q 488 1202 513 1202 q 450 1193 467 1202 q 420 1173 433 1185 q 387 1141 407 1162 l 321 1215 m 59 412 q 121 733 59 587 q 297 964 184 879 q 555 1048 410 1048 q 747 992 668 1048 q 866 840 826 935 q 905 626 905 744 q 844 305 905 450 q 671 74 783 159 q 413 -11 559 -11 q 218 45 298 -11 q 99 197 138 102 q 59 412 59 293 m 712 610 q 692 781 712 716 q 632 876 672 846 q 531 905 593 905 q 386 836 450 905 q 287 656 322 766 q 252 428 252 546 q 297 201 252 271 q 433 131 341 131 q 579 199 515 131 q 677 378 642 267 q 712 610 712 488 z "},"Œ":{"ha":1464,"x_min":59,"x_max":1440,"o":"m 1038 895 l 999 602 l 1289 606 l 1273 456 l 980 464 l 937 142 l 1389 151 l 1372 0 l 730 0 l 751 154 q 601 32 687 75 q 413 -11 515 -11 q 218 45 298 -11 q 99 197 138 102 q 59 412 59 293 q 121 733 59 587 q 297 964 184 879 q 555 1048 410 1048 q 732 1001 659 1048 q 848 870 806 954 l 870 1038 l 1440 1038 l 1426 891 l 1038 895 m 433 131 q 579 199 515 131 q 677 378 642 267 q 712 610 712 488 q 692 781 712 716 q 632 876 672 846 q 531 905 593 905 q 386 836 450 905 q 287 656 322 766 q 252 428 252 546 q 297 201 252 271 q 433 131 341 131 z "},"P":{"ha":840,"x_min":62,"x_max":844,"o":"m 294 1038 q 382 1042 327 1038 q 428 1046 389 1043 q 505 1048 467 1048 q 755 978 668 1048 q 842 768 842 908 q 791 547 844 644 q 641 396 739 450 q 412 342 543 342 q 296 346 328 342 l 249 0 l 62 0 l 201 1038 l 294 1038 m 416 484 q 656 751 647 486 q 615 874 659 833 q 473 915 572 915 q 423 912 453 915 q 370 905 393 909 l 315 493 q 360 487 330 490 q 416 484 390 484 z "},"Ṗ":{"ha":844,"x_min":66,"x_max":848,"o":"m 444 1216 q 460 1275 444 1248 q 504 1318 476 1302 q 564 1334 532 1334 q 638 1308 610 1334 q 667 1243 667 1282 q 651 1183 667 1211 q 606 1138 635 1155 q 541 1122 578 1122 q 492 1135 514 1122 q 456 1169 469 1147 q 444 1216 444 1190 m 298 1038 q 387 1042 331 1038 q 432 1046 393 1043 q 509 1048 471 1048 q 759 978 672 1048 q 846 768 846 908 q 795 547 848 644 q 645 396 743 450 q 416 342 547 342 q 300 346 332 342 l 253 0 l 66 0 l 205 1038 l 298 1038 m 420 484 q 660 751 651 486 q 620 874 663 833 q 477 915 576 915 q 427 912 457 915 q 374 905 397 909 l 319 493 q 364 487 334 490 q 420 484 394 484 z "},"Þ":{"ha":853,"x_min":63,"x_max":824,"o":"m 823 600 q 772 382 824 478 q 621 233 720 287 q 392 179 523 179 q 277 186 342 179 l 253 0 l 63 0 l 201 1038 l 391 1038 l 368 871 q 486 877 433 877 q 735 807 648 877 q 823 600 822 738 m 637 584 q 596 702 640 662 q 453 743 552 743 q 401 740 430 743 q 351 734 372 738 l 351 734 l 297 331 q 342 324 313 327 q 396 322 371 321 q 573 390 514 323 q 637 584 633 457 z "},"Q":{"ha":941,"x_min":59,"x_max":905,"o":"m 486 -5 q 509 -72 486 -49 q 571 -101 533 -94 q 668 -108 610 -108 q 763 -103 717 -108 q 839 -90 808 -99 l 839 -210 q 740 -249 812 -233 q 604 -264 667 -264 q 481 -245 537 -264 q 391 -184 425 -227 q 356 -77 356 -142 q 365 -8 356 -44 q 196 62 265 3 q 93 211 127 120 q 59 412 59 302 q 121 733 59 587 q 297 964 184 879 q 555 1048 410 1048 q 747 992 668 1048 q 866 839 826 935 q 905 625 905 743 q 854 329 905 465 q 707 105 802 193 q 486 -5 612 16 m 252 428 q 297 201 252 271 q 433 131 341 131 q 579 199 515 131 q 677 378 642 267 q 712 610 712 488 q 692 781 712 716 q 632 876 672 846 q 531 905 593 905 q 386 836 450 905 q 287 656 322 766 q 252 428 252 546 z "},"R":{"ha":886,"x_min":61,"x_max":852,"o":"m 620 448 q 673 372 647 423 q 715 267 700 321 q 787 78 766 130 q 828 -1 809 26 l 618 1 q 595 53 607 18 q 555 175 583 87 l 545 208 q 489 357 519 301 q 427 415 458 414 l 305 416 l 248 0 l 61 0 l 201 1038 l 304 1038 q 401 1043 343 1038 q 507 1048 464 1048 q 852 791 852 1048 q 793 574 852 666 q 620 448 735 482 m 466 561 q 577 591 533 561 q 642 670 621 621 q 662 777 662 720 q 619 881 662 848 q 488 913 576 913 q 425 911 462 913 q 370 905 388 908 l 324 563 q 466 561 360 561 z "},"Ŕ":{"ha":886,"x_min":61,"x_max":852,"o":"m 620 448 q 673 372 647 423 q 715 267 700 321 q 787 78 766 130 q 828 -1 809 26 l 618 1 q 595 53 607 18 q 555 175 583 87 l 545 208 q 489 357 519 301 q 427 415 458 414 l 305 416 l 248 0 l 61 0 l 201 1038 l 304 1038 q 401 1043 343 1038 q 507 1048 464 1048 q 852 791 852 1048 q 793 574 852 666 q 620 448 735 482 m 466 561 q 577 591 533 561 q 642 670 621 621 q 662 777 662 720 q 619 881 662 848 q 488 913 576 913 q 425 911 462 913 q 370 905 388 908 l 324 563 q 466 561 360 561 m 667 1361 l 781 1255 q 721 1181 762 1221 q 633 1110 680 1142 q 553 1066 586 1078 l 479 1129 l 667 1361 z "},"Ř":{"ha":890,"x_min":65,"x_max":856,"o":"m 387 1361 l 534 1221 l 737 1361 l 815 1309 l 583 1090 l 462 1090 l 308 1305 l 387 1361 m 624 448 q 677 372 651 423 q 720 267 704 321 q 791 78 770 130 q 832 -1 813 26 l 623 1 q 599 53 611 18 q 559 175 587 87 l 549 208 q 493 357 524 301 q 431 415 462 414 l 309 416 l 252 0 l 65 0 l 205 1038 l 308 1038 q 406 1043 347 1038 q 511 1048 468 1048 q 856 791 856 1048 q 798 574 856 666 q 624 448 739 482 m 470 561 q 581 591 537 561 q 646 670 625 621 q 666 777 666 720 q 623 881 666 848 q 492 913 580 913 q 429 911 466 913 q 374 905 392 908 l 328 563 q 470 561 364 561 z "},"Ŗ":{"ha":890,"x_min":65,"x_max":856,"o":"m 332 -106 l 427 -30 q 478 -58 455 -36 q 513 -111 500 -79 q 526 -176 526 -142 q 504 -274 526 -230 q 451 -346 483 -318 q 386 -380 418 -374 l 325 -339 l 327 -321 q 373 -227 373 -288 q 359 -180 373 -202 q 326 -156 345 -159 l 332 -106 m 624 448 q 677 372 651 423 q 720 267 704 321 q 791 78 770 130 q 832 -1 813 26 l 623 1 q 599 53 611 18 q 559 175 587 87 l 549 208 q 493 357 524 301 q 431 415 462 414 l 309 416 l 252 0 l 65 0 l 205 1038 l 308 1038 q 406 1043 347 1038 q 511 1048 468 1048 q 856 791 856 1048 q 798 574 856 666 q 624 448 739 482 m 470 561 q 581 591 537 561 q 646 670 625 621 q 666 777 666 720 q 623 881 666 848 q 492 913 580 913 q 429 911 466 913 q 374 905 392 908 l 328 563 q 470 561 364 561 z "},"S":{"ha":713,"x_min":8,"x_max":696,"o":"m 68 205 q 119 174 85 189 q 195 148 154 158 q 273 138 237 138 q 403 172 355 138 q 450 271 450 206 q 437 334 450 305 q 395 393 425 363 q 313 459 365 422 q 173 592 226 521 q 119 759 119 663 q 162 913 119 847 q 281 1014 205 979 q 458 1048 358 1048 q 603 1031 541 1048 q 696 991 665 1014 l 637 844 q 559 887 611 871 q 459 903 507 903 q 347 874 391 903 q 301 787 303 845 q 315 712 300 745 q 361 652 331 680 q 445 585 391 623 q 545 503 503 541 q 614 411 586 464 q 643 296 643 359 q 595 127 643 197 q 463 24 548 58 q 267 -11 378 -11 q 161 -1 215 -11 q 66 25 107 9 q 8 53 24 40 l 68 205 z "},"Ś":{"ha":713,"x_min":8,"x_max":709,"o":"m 68 205 q 119 174 85 189 q 195 148 154 158 q 273 138 237 138 q 403 172 355 138 q 450 271 450 206 q 437 334 450 305 q 395 393 425 363 q 313 459 365 422 q 173 592 226 521 q 119 759 119 663 q 162 913 119 847 q 281 1014 205 979 q 458 1048 358 1048 q 603 1031 541 1048 q 696 991 665 1014 l 637 844 q 559 887 611 871 q 459 903 507 903 q 347 874 391 903 q 301 787 303 845 q 315 712 300 745 q 361 652 331 680 q 445 585 391 623 q 545 503 503 541 q 614 411 586 464 q 643 296 643 359 q 595 127 643 197 q 463 24 548 58 q 267 -11 378 -11 q 161 -1 215 -11 q 66 25 107 9 q 8 53 24 40 l 68 205 m 595 1361 l 709 1255 q 649 1181 690 1221 q 561 1110 608 1142 q 481 1066 514 1078 l 408 1129 l 595 1361 z "},"Š":{"ha":713,"x_min":8,"x_max":739,"o":"m 68 205 q 119 174 85 189 q 195 148 154 158 q 273 138 237 138 q 403 172 355 138 q 450 271 450 206 q 437 334 450 305 q 395 393 425 363 q 313 459 365 422 q 173 592 226 521 q 119 759 119 663 q 162 913 119 847 q 281 1014 205 979 q 458 1048 358 1048 q 603 1031 541 1048 q 696 991 665 1014 l 637 844 q 559 887 611 871 q 459 903 507 903 q 347 874 391 903 q 301 787 303 845 q 315 712 300 745 q 361 652 331 680 q 445 585 391 623 q 545 503 503 541 q 614 411 586 464 q 643 296 643 359 q 595 127 643 197 q 463 24 548 58 q 267 -11 378 -11 q 161 -1 215 -11 q 66 25 107 9 q 8 53 24 40 l 68 205 m 311 1361 l 458 1221 l 661 1361 l 739 1309 l 507 1090 l 386 1090 l 232 1305 l 311 1361 z "},"Ş":{"ha":713,"x_min":8,"x_max":696,"o":"m 445 585 q 545 503 503 541 q 614 411 586 464 q 643 295 643 359 q 570 95 643 171 q 369 -3 496 20 q 386 -66 379 -28 q 393 -137 393 -103 q 342 -272 393 -227 q 197 -317 292 -317 q 121 -310 168 -317 q 64 -296 75 -303 l 85 -176 q 136 -186 104 -186 q 221 -164 191 -186 q 252 -83 251 -142 l 253 -52 q 252 -11 253 -35 q 152 1 202 -9 q 62 26 101 12 q 8 53 23 41 l 68 205 q 119 174 85 189 q 195 148 154 158 q 273 138 237 138 q 403 172 355 138 q 450 271 450 206 q 437 334 450 305 q 395 393 425 363 q 313 459 365 422 q 173 592 226 521 q 119 759 119 663 q 162 913 119 847 q 281 1014 205 979 q 458 1048 358 1048 q 603 1031 541 1048 q 696 991 665 1014 l 637 844 q 559 887 611 871 q 459 903 507 903 q 347 874 391 903 q 301 787 303 845 q 315 712 300 745 q 361 652 331 680 q 445 585 391 623 z "},"Ŝ":{"ha":713,"x_min":8,"x_max":714,"o":"m 68 205 q 119 174 85 189 q 195 148 154 158 q 273 138 237 138 q 403 172 355 138 q 450 271 450 206 q 437 334 450 305 q 395 393 425 363 q 313 459 365 422 q 173 592 226 521 q 119 759 119 663 q 162 913 119 847 q 281 1014 205 979 q 458 1048 358 1048 q 603 1031 541 1048 q 696 991 665 1014 l 637 844 q 559 887 611 871 q 459 903 507 903 q 347 874 391 903 q 301 787 303 845 q 315 712 300 745 q 361 652 331 680 q 445 585 391 623 q 545 503 503 541 q 614 411 586 464 q 643 296 643 359 q 595 127 643 197 q 463 24 548 58 q 267 -11 378 -11 q 161 -1 215 -11 q 66 25 107 9 q 8 53 24 40 l 68 205 m 456 1361 l 578 1361 l 714 1131 l 633 1081 l 500 1217 l 296 1078 l 220 1126 l 456 1361 z "},"Ș":{"ha":717,"x_min":12,"x_max":701,"o":"m 215 -106 l 310 -30 q 361 -58 338 -36 q 396 -111 384 -79 q 409 -176 409 -142 q 388 -274 409 -230 q 334 -346 366 -318 q 269 -380 302 -374 l 208 -339 l 210 -321 q 256 -227 256 -288 q 242 -180 256 -202 q 209 -156 229 -159 l 215 -106 m 72 205 q 123 174 89 189 q 199 148 158 158 q 277 138 241 138 q 407 172 359 138 q 454 271 454 206 q 441 334 454 305 q 399 393 429 363 q 317 459 369 422 q 177 592 230 521 q 123 759 123 663 q 166 913 123 847 q 286 1014 209 979 q 462 1048 362 1048 q 607 1031 545 1048 q 701 991 669 1014 l 642 844 q 563 887 615 871 q 463 903 511 903 q 351 874 395 903 q 305 787 307 845 q 319 712 304 745 q 365 652 335 680 q 449 585 395 623 q 549 503 507 541 q 618 411 590 464 q 647 296 647 359 q 600 127 647 197 q 467 24 552 58 q 271 -11 382 -11 q 165 -1 219 -11 q 70 25 111 9 q 12 53 28 40 l 72 205 z "},"Ṡ":{"ha":717,"x_min":12,"x_max":701,"o":"m 365 1216 q 381 1275 365 1248 q 425 1318 397 1302 q 485 1334 453 1334 q 560 1308 532 1334 q 588 1243 588 1282 q 572 1183 588 1211 q 528 1138 556 1155 q 463 1122 499 1122 q 413 1135 435 1122 q 378 1169 391 1147 q 365 1216 365 1190 m 72 205 q 123 174 89 189 q 199 148 158 158 q 277 138 241 138 q 407 172 359 138 q 454 271 454 206 q 441 334 454 305 q 399 393 429 363 q 317 459 369 422 q 177 592 230 521 q 123 759 123 663 q 166 913 123 847 q 286 1014 209 979 q 462 1048 362 1048 q 607 1031 545 1048 q 701 991 669 1014 l 642 844 q 563 887 615 871 q 463 903 511 903 q 351 874 395 903 q 305 787 307 845 q 319 712 304 745 q 365 652 335 680 q 449 585 395 623 q 549 503 507 541 q 618 411 590 464 q 647 296 647 359 q 600 127 647 197 q 467 24 552 58 q 271 -11 382 -11 q 165 -1 219 -11 q 70 25 111 9 q 12 53 28 40 l 72 205 z "},"ẞ":{"ha":1022,"x_min":45,"x_max":966,"o":"m 117 511 q 205 796 140 677 q 378 979 271 916 q 629 1043 485 1043 q 755 1033 702 1043 q 870 1005 808 1023 q 923 991 905 996 q 958 987 941 987 l 945 876 l 720 606 q 831 575 774 606 q 927 487 888 545 q 966 353 966 429 q 917 166 966 250 q 783 33 869 81 q 589 -16 697 -16 q 446 1 515 -16 q 339 41 377 18 l 416 176 q 486 138 439 155 q 584 121 534 121 q 670 145 627 121 q 743 217 714 168 q 772 338 772 266 q 708 466 772 424 q 499 508 644 508 l 510 586 l 747 880 q 687 900 724 893 q 614 907 651 907 q 477 871 538 907 q 373 764 415 836 q 317 589 332 692 l 235 0 l 45 0 l 117 511 z "},"T":{"ha":772,"x_min":90,"x_max":828,"o":"m 90 891 l 113 1038 l 828 1038 l 808 891 l 546 899 l 425 0 l 236 0 l 357 899 l 90 891 z "},"Ŧ":{"ha":776,"x_min":94,"x_max":832,"o":"m 550 899 l 509 589 l 684 589 l 668 460 l 491 460 l 429 0 l 240 0 l 302 460 l 133 460 l 149 589 l 319 589 l 361 899 l 94 891 l 117 1038 l 832 1038 l 812 891 l 550 899 z "},"Ť":{"ha":776,"x_min":94,"x_max":832,"o":"m 340 1361 l 487 1221 l 690 1361 l 768 1309 l 536 1090 l 415 1090 l 261 1305 l 340 1361 m 94 891 l 117 1038 l 832 1038 l 812 891 l 550 899 l 429 0 l 240 0 l 361 899 l 94 891 z "},"Ţ":{"ha":772,"x_min":73,"x_max":828,"o":"m 828 1038 l 808 891 l 546 899 l 425 0 l 376 0 q 394 -64 387 -26 q 401 -137 401 -103 q 351 -272 401 -227 q 205 -317 300 -317 q 130 -310 176 -317 q 73 -296 84 -303 l 94 -176 q 145 -186 113 -186 q 230 -164 199 -186 q 261 -83 260 -142 l 262 -51 q 260 0 262 -22 l 236 0 l 357 899 l 90 891 l 113 1038 l 828 1038 z "},"Ț":{"ha":776,"x_min":94,"x_max":832,"o":"m 224 -106 l 319 -30 q 370 -58 347 -36 q 405 -111 393 -79 q 418 -176 418 -142 q 396 -274 418 -230 q 343 -346 375 -318 q 278 -380 311 -374 l 217 -339 l 219 -321 q 265 -227 265 -288 q 251 -180 265 -202 q 218 -156 237 -159 l 224 -106 m 94 891 l 117 1038 l 832 1038 l 812 891 l 550 899 l 429 0 l 240 0 l 361 899 l 94 891 z "},"Ṫ":{"ha":776,"x_min":94,"x_max":832,"o":"m 391 1216 q 407 1275 391 1248 q 451 1318 423 1302 q 511 1334 479 1334 q 586 1308 557 1334 q 614 1243 614 1282 q 598 1183 614 1211 q 553 1138 582 1155 q 488 1122 525 1122 q 439 1135 461 1122 q 404 1169 416 1147 q 391 1216 391 1190 m 94 891 l 117 1038 l 832 1038 l 812 891 l 550 899 l 429 0 l 240 0 l 361 899 l 94 891 z "},"U":{"ha":951,"x_min":89,"x_max":937,"o":"m 182 1038 l 370 1038 l 288 431 q 280 300 280 365 q 321 175 281 214 q 443 136 361 136 q 553 164 508 136 q 627 258 597 193 q 671 433 656 323 l 751 1038 l 937 1038 l 854 415 q 779 168 833 261 q 636 32 726 74 q 415 -11 547 -11 q 170 70 252 -11 q 89 299 89 151 q 98 404 89 334 l 182 1038 z "},"Ú":{"ha":951,"x_min":89,"x_max":937,"o":"m 703 1361 l 816 1255 q 756 1181 798 1221 q 668 1110 715 1142 q 588 1066 621 1078 l 515 1129 l 703 1361 m 182 1038 l 370 1038 l 288 431 q 280 300 280 365 q 321 175 281 214 q 443 136 361 136 q 553 164 508 136 q 627 258 597 193 q 671 433 656 323 l 751 1038 l 937 1038 l 854 415 q 779 168 833 261 q 636 32 726 74 q 415 -11 547 -11 q 170 70 252 -11 q 89 299 89 151 q 98 404 89 334 l 182 1038 z "},"Ŭ":{"ha":951,"x_min":89,"x_max":937,"o":"m 363 1319 q 368 1354 363 1335 l 477 1354 q 477 1343 477 1351 q 477 1329 477 1335 q 504 1256 482 1282 q 583 1230 526 1230 q 649 1249 624 1230 q 686 1294 674 1269 q 706 1354 697 1320 l 813 1354 q 812 1332 813 1339 q 780 1224 808 1276 q 700 1139 752 1172 q 575 1106 648 1106 q 415 1165 466 1106 q 363 1319 363 1225 m 182 1038 l 370 1038 l 288 431 q 280 300 280 365 q 321 175 281 214 q 443 136 361 136 q 553 164 508 136 q 627 258 597 193 q 671 433 656 323 l 751 1038 l 937 1038 l 854 415 q 779 168 833 261 q 636 32 726 74 q 415 -11 547 -11 q 170 70 252 -11 q 89 299 89 151 q 98 404 89 334 l 182 1038 z "},"Ǔ":{"ha":951,"x_min":89,"x_max":937,"o":"m 182 1038 l 370 1038 l 288 431 q 280 300 280 365 q 321 175 281 214 q 443 136 361 136 q 553 164 508 136 q 627 258 597 193 q 671 433 656 323 l 751 1038 l 937 1038 l 854 415 q 779 168 833 261 q 636 32 726 74 q 415 -11 547 -11 q 170 70 252 -11 q 89 299 89 151 q 98 404 89 334 l 182 1038 m 418 1361 l 565 1221 l 768 1361 l 846 1309 l 614 1090 l 493 1090 l 339 1305 l 418 1361 z "},"Û":{"ha":951,"x_min":89,"x_max":937,"o":"m 182 1038 l 370 1038 l 288 431 q 280 300 280 365 q 321 175 281 214 q 443 136 361 136 q 553 164 508 136 q 627 258 597 193 q 671 433 656 323 l 751 1038 l 937 1038 l 854 415 q 779 168 833 261 q 636 32 726 74 q 415 -11 547 -11 q 170 70 252 -11 q 89 299 89 151 q 98 404 89 334 l 182 1038 m 564 1361 l 685 1361 l 821 1131 l 741 1081 l 607 1217 l 404 1078 l 327 1126 l 564 1361 z "},"Ü":{"ha":951,"x_min":89,"x_max":937,"o":"m 325 1223 q 340 1282 325 1255 q 380 1325 355 1309 q 436 1341 406 1341 q 485 1328 464 1341 q 518 1294 506 1315 q 530 1250 530 1274 q 515 1190 530 1217 q 475 1145 501 1162 q 414 1128 449 1128 q 370 1142 391 1128 q 337 1177 349 1156 q 325 1223 325 1199 m 627 1224 q 642 1282 627 1255 q 683 1325 657 1309 q 738 1341 708 1341 q 787 1328 766 1341 q 821 1294 809 1315 q 833 1250 833 1274 q 819 1190 833 1217 q 778 1145 804 1162 q 716 1128 751 1128 q 672 1142 692 1128 q 640 1178 652 1156 q 627 1224 627 1200 m 182 1038 l 370 1038 l 288 431 q 280 300 280 365 q 321 175 281 214 q 443 136 361 136 q 553 164 508 136 q 627 258 597 193 q 671 433 656 323 l 751 1038 l 937 1038 l 854 415 q 779 168 833 261 q 636 32 726 74 q 415 -11 547 -11 q 170 70 252 -11 q 89 299 89 151 q 98 404 89 334 l 182 1038 z "},"Ù":{"ha":951,"x_min":89,"x_max":937,"o":"m 452 1361 l 640 1129 l 566 1066 q 486 1110 533 1078 q 398 1181 439 1142 q 338 1255 357 1221 l 452 1361 m 182 1038 l 370 1038 l 288 431 q 280 300 280 365 q 321 175 281 214 q 443 136 361 136 q 553 164 508 136 q 627 258 597 193 q 671 433 656 323 l 751 1038 l 937 1038 l 854 415 q 779 168 833 261 q 636 32 726 74 q 415 -11 547 -11 q 170 70 252 -11 q 89 299 89 151 q 98 404 89 334 l 182 1038 z "},"Ű":{"ha":951,"x_min":89,"x_max":955,"o":"m 182 1038 l 370 1038 l 288 431 q 280 300 280 365 q 321 175 281 214 q 443 136 361 136 q 553 164 508 136 q 627 258 597 193 q 671 433 656 323 l 751 1038 l 937 1038 l 854 415 q 779 168 833 261 q 636 32 726 74 q 415 -11 547 -11 q 170 70 252 -11 q 89 299 89 151 q 98 404 89 334 l 182 1038 m 540 1361 l 647 1273 q 587 1190 630 1236 q 494 1107 544 1144 q 411 1058 445 1071 l 338 1109 l 540 1361 m 848 1361 l 955 1272 q 890 1188 934 1234 q 798 1107 847 1143 q 711 1058 749 1071 l 646 1109 l 848 1361 z "},"Ū":{"ha":951,"x_min":89,"x_max":937,"o":"m 755 1286 l 747 1165 l 378 1165 l 387 1286 l 755 1286 m 182 1038 l 370 1038 l 288 431 q 280 300 280 365 q 321 175 281 214 q 443 136 361 136 q 553 164 508 136 q 627 258 597 193 q 671 433 656 323 l 751 1038 l 937 1038 l 854 415 q 779 168 833 261 q 636 32 726 74 q 415 -11 547 -11 q 170 70 252 -11 q 89 299 89 151 q 98 404 89 334 l 182 1038 z "},"Ų":{"ha":955,"x_min":93,"x_max":941,"o":"m 941 1038 l 858 415 q 779 159 836 254 q 623 24 722 64 q 525 -74 566 -27 q 484 -144 484 -121 q 496 -181 484 -170 q 528 -191 509 -191 q 574 -183 552 -191 q 624 -154 596 -175 l 655 -247 q 572 -300 621 -280 q 460 -321 523 -321 q 387 -304 418 -321 q 339 -260 355 -287 q 323 -203 323 -233 q 373 -94 323 -146 q 484 -8 423 -42 q 419 -11 456 -11 q 174 70 256 -11 q 93 299 93 151 q 102 404 93 334 l 186 1038 l 374 1038 l 292 431 q 284 300 284 365 q 325 175 286 214 q 447 136 365 136 q 557 164 512 136 q 631 258 602 193 q 675 433 660 323 l 755 1038 l 941 1038 z "},"Ů":{"ha":951,"x_min":89,"x_max":937,"o":"m 182 1038 l 370 1038 l 288 431 q 280 300 280 365 q 321 175 281 214 q 443 136 361 136 q 553 164 508 136 q 627 258 597 193 q 671 433 656 323 l 751 1038 l 937 1038 l 854 415 q 779 168 833 261 q 636 32 726 74 q 415 -11 547 -11 q 170 70 252 -11 q 89 299 89 151 q 98 404 89 334 l 182 1038 m 355 1233 q 393 1344 355 1299 q 488 1409 431 1388 q 605 1429 546 1429 q 748 1385 694 1429 q 802 1260 802 1341 q 769 1152 802 1196 q 680 1086 735 1107 q 562 1064 625 1064 q 410 1108 465 1064 q 355 1233 355 1152 m 688 1257 q 660 1321 688 1295 q 591 1346 632 1346 q 505 1321 541 1346 q 469 1239 469 1296 q 482 1193 469 1214 q 518 1160 496 1172 q 568 1147 541 1147 q 688 1257 688 1147 z "},"Ũ":{"ha":951,"x_min":89,"x_max":937,"o":"m 311 1215 q 359 1274 326 1245 q 433 1321 392 1303 q 509 1339 473 1339 q 576 1325 549 1339 q 633 1283 603 1310 q 672 1253 656 1262 q 707 1243 687 1243 q 750 1254 732 1243 q 779 1276 769 1264 q 814 1318 789 1287 l 883 1238 q 840 1174 871 1205 q 768 1124 808 1143 q 690 1105 728 1105 q 636 1113 659 1105 q 597 1132 612 1121 q 562 1160 582 1143 q 520 1192 538 1181 q 477 1202 503 1202 q 439 1193 456 1202 q 409 1173 422 1185 q 376 1141 396 1162 l 311 1215 m 182 1038 l 370 1038 l 288 431 q 280 300 280 365 q 321 175 281 214 q 443 136 361 136 q 553 164 508 136 q 627 258 597 193 q 671 433 656 323 l 751 1038 l 937 1038 l 854 415 q 779 168 833 261 q 636 32 726 74 q 415 -11 547 -11 q 170 70 252 -11 q 89 299 89 151 q 98 404 89 334 l 182 1038 z "},"V":{"ha":814,"x_min":79,"x_max":911,"o":"m 266 1038 l 361 332 l 375 168 l 431 332 l 713 1038 l 911 1038 l 451 0 l 240 0 l 79 1038 l 266 1038 z "},"W":{"ha":1213,"x_min":76,"x_max":1319,"o":"m 1319 1038 l 904 -3 l 695 -3 l 644 473 l 633 588 l 593 473 l 414 -3 l 217 -3 l 76 1038 l 264 1038 l 332 334 l 349 186 l 393 334 l 597 849 l 576 1038 l 758 1038 l 817 334 l 830 186 l 873 334 l 1128 1038 l 1319 1038 z "},"Ẃ":{"ha":1217,"x_min":80,"x_max":1323,"o":"m 843 1361 l 956 1255 q 897 1181 938 1221 q 808 1110 855 1142 q 728 1066 762 1078 l 655 1129 l 843 1361 m 1323 1038 l 908 -3 l 699 -3 l 648 473 l 637 588 l 597 473 l 418 -3 l 221 -3 l 80 1038 l 268 1038 l 336 334 l 353 186 l 397 334 l 601 849 l 580 1038 l 762 1038 l 821 334 l 834 186 l 877 334 l 1132 1038 l 1323 1038 z "},"Ŵ":{"ha":1213,"x_min":76,"x_max":1319,"o":"m 1319 1038 l 904 -3 l 695 -3 l 644 473 l 633 588 l 593 473 l 414 -3 l 217 -3 l 76 1038 l 264 1038 l 332 334 l 349 186 l 393 334 l 597 849 l 576 1038 l 758 1038 l 817 334 l 830 186 l 873 334 l 1128 1038 l 1319 1038 m 700 1361 l 821 1361 l 958 1131 l 877 1081 l 743 1217 l 540 1078 l 463 1126 l 700 1361 z "},"Ẅ":{"ha":1217,"x_min":80,"x_max":1323,"o":"m 465 1223 q 479 1282 465 1255 q 520 1325 494 1309 q 576 1341 546 1341 q 625 1328 604 1341 q 657 1294 646 1315 q 669 1250 669 1274 q 655 1190 669 1217 q 615 1145 641 1162 q 554 1128 589 1128 q 510 1142 530 1128 q 477 1177 489 1156 q 465 1223 465 1199 m 767 1224 q 782 1282 767 1255 q 822 1325 797 1309 q 878 1341 848 1341 q 927 1328 905 1341 q 961 1294 949 1315 q 972 1250 972 1274 q 958 1190 972 1217 q 917 1145 944 1162 q 856 1128 890 1128 q 812 1142 832 1128 q 779 1178 791 1156 q 767 1224 767 1200 m 1323 1038 l 908 -3 l 699 -3 l 648 473 l 637 588 l 597 473 l 418 -3 l 221 -3 l 80 1038 l 268 1038 l 336 334 l 353 186 l 397 334 l 601 849 l 580 1038 l 762 1038 l 821 334 l 834 186 l 877 334 l 1132 1038 l 1323 1038 z "},"Ẁ":{"ha":1217,"x_min":80,"x_max":1323,"o":"m 592 1361 l 780 1129 l 707 1066 q 627 1110 673 1078 q 538 1181 580 1142 q 479 1255 497 1221 l 592 1361 m 1323 1038 l 908 -3 l 699 -3 l 648 473 l 637 588 l 597 473 l 418 -3 l 221 -3 l 80 1038 l 268 1038 l 336 334 l 353 186 l 397 334 l 601 849 l 580 1038 l 762 1038 l 821 334 l 834 186 l 877 334 l 1132 1038 l 1323 1038 z "},"X":{"ha":814,"x_min":-54,"x_max":897,"o":"m 110 1038 l 313 1038 l 450 668 l 690 1038 l 897 1038 l 530 505 l 766 0 l 557 -1 l 405 390 l 162 0 l -54 0 l 327 543 l 110 1038 z "},"Y":{"ha":762,"x_min":56,"x_max":880,"o":"m 56 1038 l 254 1038 l 387 625 l 406 554 l 438 625 l 674 1038 l 880 1038 l 475 400 l 420 0 l 237 0 l 291 400 l 56 1038 z "},"Ý":{"ha":762,"x_min":56,"x_max":880,"o":"m 56 1038 l 254 1038 l 387 625 l 406 554 l 438 625 l 674 1038 l 880 1038 l 475 400 l 420 0 l 237 0 l 291 400 l 56 1038 m 606 1361 l 719 1255 q 659 1181 701 1221 q 571 1110 618 1142 q 491 1066 524 1078 l 418 1129 l 606 1361 z "},"Ŷ":{"ha":762,"x_min":56,"x_max":880,"o":"m 56 1038 l 254 1038 l 387 625 l 406 554 l 438 625 l 674 1038 l 880 1038 l 475 400 l 420 0 l 237 0 l 291 400 l 56 1038 m 467 1361 l 588 1361 l 724 1131 l 644 1081 l 510 1217 l 307 1078 l 230 1126 l 467 1361 z "},"Ÿ":{"ha":762,"x_min":56,"x_max":880,"o":"m 56 1038 l 254 1038 l 387 625 l 406 554 l 438 625 l 674 1038 l 880 1038 l 475 400 l 420 0 l 237 0 l 291 400 l 56 1038 m 228 1223 q 243 1282 228 1255 q 283 1325 258 1309 q 339 1341 309 1341 q 388 1328 367 1341 q 421 1294 409 1315 q 433 1250 433 1274 q 418 1190 433 1217 q 378 1145 404 1162 q 317 1128 352 1128 q 273 1142 294 1128 q 240 1177 252 1156 q 228 1223 228 1199 m 530 1224 q 545 1282 530 1255 q 586 1325 560 1309 q 641 1341 611 1341 q 690 1328 669 1341 q 724 1294 712 1315 q 736 1250 736 1274 q 722 1190 736 1217 q 681 1145 707 1162 q 619 1128 654 1128 q 575 1142 595 1128 q 543 1178 555 1156 q 530 1224 530 1200 z "},"Ẏ":{"ha":762,"x_min":56,"x_max":880,"o":"m 56 1038 l 254 1038 l 387 625 l 406 554 l 438 625 l 674 1038 l 880 1038 l 475 400 l 420 0 l 237 0 l 291 400 l 56 1038 m 372 1216 q 388 1275 372 1248 q 432 1318 404 1302 q 492 1334 460 1334 q 567 1308 538 1334 q 595 1243 595 1282 q 579 1183 595 1211 q 534 1138 563 1155 q 469 1122 506 1122 q 420 1135 442 1122 q 385 1169 397 1147 q 372 1216 372 1190 z "},"Ỳ":{"ha":762,"x_min":56,"x_max":880,"o":"m 56 1038 l 254 1038 l 387 625 l 406 554 l 438 625 l 674 1038 l 880 1038 l 475 400 l 420 0 l 237 0 l 291 400 l 56 1038 m 355 1361 l 543 1129 l 469 1066 q 389 1110 436 1078 q 301 1181 342 1142 q 241 1255 260 1221 l 355 1361 z "},"Z":{"ha":785,"x_min":-18,"x_max":827,"o":"m 509 816 l 586 892 l 153 884 l 176 1038 l 811 1038 l 827 979 l 311 224 l 241 149 l 705 157 l 680 0 l 1 0 l -18 60 l 509 816 z "},"Ź":{"ha":785,"x_min":-18,"x_max":827,"o":"m 509 816 l 586 892 l 153 884 l 176 1038 l 811 1038 l 827 979 l 311 224 l 241 149 l 705 157 l 680 0 l 1 0 l -18 60 l 509 816 m 648 1361 l 762 1255 q 702 1181 743 1221 q 614 1110 661 1142 q 534 1066 567 1078 l 460 1129 l 648 1361 z "},"Ž":{"ha":785,"x_min":-18,"x_max":827,"o":"m 363 1361 l 511 1221 l 714 1361 l 792 1309 l 559 1090 l 439 1090 l 285 1305 l 363 1361 m 509 816 l 586 892 l 153 884 l 176 1038 l 811 1038 l 827 979 l 311 224 l 241 149 l 705 157 l 680 0 l 1 0 l -18 60 l 509 816 z "},"Ż":{"ha":785,"x_min":-18,"x_max":827,"o":"m 414 1216 q 431 1275 414 1248 q 475 1318 447 1302 q 534 1334 503 1334 q 609 1308 581 1334 q 637 1243 637 1282 q 622 1183 637 1211 q 577 1138 606 1155 q 512 1122 549 1122 q 463 1135 485 1122 q 427 1169 440 1147 q 414 1216 414 1190 m 509 816 l 586 892 l 153 884 l 176 1038 l 811 1038 l 827 979 l 311 224 l 241 149 l 705 157 l 680 0 l 1 0 l -18 60 l 509 816 z "},"a":{"ha":819,"x_min":52,"x_max":768,"o":"m 768 784 l 660 0 l 493 0 l 503 148 q 405 35 464 81 q 271 -11 345 -11 q 105 68 158 -11 q 52 281 52 148 q 102 519 52 404 q 256 709 153 635 q 506 784 359 784 q 587 776 543 784 q 667 758 631 768 l 768 784 m 325 122 q 432 186 380 122 q 519 330 484 250 l 566 655 q 487 665 532 665 q 354 609 408 665 q 273 468 300 553 q 246 296 246 383 q 266 165 246 208 q 325 122 286 122 z "},"á":{"ha":819,"x_min":52,"x_max":768,"o":"m 768 784 l 660 0 l 493 0 l 503 148 q 405 35 464 81 q 271 -11 345 -11 q 105 68 158 -11 q 52 281 52 148 q 102 519 52 404 q 256 709 153 635 q 506 784 359 784 q 587 776 543 784 q 667 758 631 768 l 768 784 m 325 122 q 432 186 380 122 q 519 330 484 250 l 566 655 q 487 665 532 665 q 354 609 408 665 q 273 468 300 553 q 246 296 246 383 q 266 165 246 208 q 325 122 286 122 m 646 1184 l 768 1069 q 705 995 755 1046 q 595 899 654 945 q 498 838 536 853 l 428 896 l 646 1184 z "},"ă":{"ha":819,"x_min":52,"x_max":768,"o":"m 768 784 l 660 0 l 493 0 l 503 148 q 405 35 464 81 q 271 -11 345 -11 q 105 68 158 -11 q 52 281 52 148 q 102 519 52 404 q 256 709 153 635 q 506 784 359 784 q 587 776 543 784 q 667 758 631 768 l 768 784 m 325 122 q 432 186 380 122 q 519 330 484 250 l 566 655 q 487 665 532 665 q 354 609 408 665 q 273 468 300 553 q 246 296 246 383 q 266 165 246 208 q 325 122 286 122 m 307 1096 q 312 1131 307 1112 l 421 1131 q 421 1120 421 1128 q 421 1105 420 1112 q 448 1033 426 1059 q 526 1006 470 1006 q 593 1026 568 1006 q 629 1071 618 1046 q 650 1131 641 1097 l 757 1131 q 756 1109 757 1116 q 724 1001 752 1053 q 644 916 696 949 q 519 883 591 883 q 358 942 410 883 q 307 1096 307 1002 z "},"ǎ":{"ha":819,"x_min":52,"x_max":786,"o":"m 768 784 l 660 0 l 493 0 l 503 148 q 405 35 464 81 q 271 -11 345 -11 q 105 68 158 -11 q 52 281 52 148 q 102 519 52 404 q 256 709 153 635 q 506 784 359 784 q 587 776 543 784 q 667 758 631 768 l 768 784 m 325 122 q 432 186 380 122 q 519 330 484 250 l 566 655 q 487 665 532 665 q 354 609 408 665 q 273 468 300 553 q 246 296 246 383 q 266 165 246 208 q 325 122 286 122 m 351 1127 l 509 980 l 708 1127 l 786 1075 l 553 844 l 433 844 l 279 1074 l 351 1127 z "},"â":{"ha":819,"x_min":52,"x_max":768,"o":"m 768 784 l 660 0 l 493 0 l 503 148 q 405 35 464 81 q 271 -11 345 -11 q 105 68 158 -11 q 52 281 52 148 q 102 519 52 404 q 256 709 153 635 q 506 784 359 784 q 587 776 543 784 q 667 758 631 768 l 768 784 m 325 122 q 432 186 380 122 q 519 330 484 250 l 566 655 q 487 665 532 665 q 354 609 408 665 q 273 468 300 553 q 246 296 246 383 q 266 165 246 208 q 325 122 286 122 m 496 1127 l 618 1127 l 754 873 l 670 827 l 537 976 l 333 825 l 260 873 l 496 1127 z "},"ä":{"ha":819,"x_min":52,"x_max":781,"o":"m 768 784 l 660 0 l 493 0 l 503 148 q 405 35 464 81 q 271 -11 345 -11 q 105 68 158 -11 q 52 281 52 148 q 102 519 52 404 q 256 709 153 635 q 506 784 359 784 q 587 776 543 784 q 667 758 631 768 l 768 784 m 325 122 q 432 186 380 122 q 519 330 484 250 l 566 655 q 487 665 532 665 q 354 609 408 665 q 273 468 300 553 q 246 296 246 383 q 266 165 246 208 q 325 122 286 122 m 273 1020 q 287 1079 273 1052 q 327 1122 302 1106 q 384 1138 353 1138 q 433 1125 412 1138 q 466 1092 454 1112 q 478 1047 478 1071 q 464 987 478 1015 q 423 942 450 959 q 362 926 397 926 q 318 939 339 926 q 285 974 298 952 q 273 1020 273 996 m 576 1020 q 590 1079 576 1052 q 630 1122 604 1106 q 686 1138 655 1138 q 736 1125 714 1138 q 769 1092 758 1112 q 781 1047 781 1071 q 767 987 781 1015 q 726 942 753 959 q 665 926 699 926 q 621 939 641 926 q 588 974 600 952 q 576 1020 576 996 z "},"à":{"ha":819,"x_min":52,"x_max":768,"o":"m 768 784 l 660 0 l 493 0 l 503 148 q 405 35 464 81 q 271 -11 345 -11 q 105 68 158 -11 q 52 281 52 148 q 102 519 52 404 q 256 709 153 635 q 506 784 359 784 q 587 776 543 784 q 667 758 631 768 l 768 784 m 325 122 q 432 186 380 122 q 519 330 484 250 l 566 655 q 487 665 532 665 q 354 609 408 665 q 273 468 300 553 q 246 296 246 383 q 266 165 246 208 q 325 122 286 122 m 351 1184 l 562 895 l 492 838 q 402 895 458 851 q 295 989 346 939 q 229 1069 245 1040 l 351 1184 z "},"ā":{"ha":819,"x_min":52,"x_max":768,"o":"m 768 784 l 660 0 l 493 0 l 503 148 q 405 35 464 81 q 271 -11 345 -11 q 105 68 158 -11 q 52 281 52 148 q 102 519 52 404 q 256 709 153 635 q 506 784 359 784 q 587 776 543 784 q 667 758 631 768 l 768 784 m 325 122 q 432 186 380 122 q 519 330 484 250 l 566 655 q 487 665 532 665 q 354 609 408 665 q 273 468 300 553 q 246 296 246 383 q 266 165 246 208 q 325 122 286 122 m 697 1082 l 690 961 l 321 961 l 329 1082 l 697 1082 z "},"ą":{"ha":828,"x_min":57,"x_max":773,"o":"m 551 -191 q 596 -183 574 -191 q 646 -154 618 -174 l 677 -247 q 594 -300 644 -280 q 483 -321 545 -321 q 409 -304 440 -321 q 361 -260 378 -287 q 345 -203 345 -233 q 375 -118 345 -159 q 445 -48 405 -78 q 523 0 486 -18 l 498 0 l 508 148 q 410 35 469 81 q 276 -11 351 -11 q 110 68 163 -11 q 57 281 57 148 q 108 519 57 404 q 261 709 159 635 q 511 784 364 784 q 592 776 548 784 q 672 758 636 768 l 773 784 l 665 0 l 660 0 q 552 -72 598 -32 q 507 -144 507 -112 q 519 -181 507 -170 q 551 -191 532 -191 m 330 122 q 438 186 386 122 q 525 330 490 250 l 571 655 q 492 665 538 665 q 359 609 414 665 q 278 468 305 553 q 252 296 252 383 q 272 165 252 208 q 330 122 292 122 z "},"å":{"ha":819,"x_min":52,"x_max":768,"o":"m 768 784 l 660 0 l 493 0 l 503 148 q 405 35 464 81 q 271 -11 345 -11 q 105 68 158 -11 q 52 281 52 148 q 102 519 52 404 q 256 709 153 635 q 506 784 359 784 q 587 776 543 784 q 667 758 631 768 l 768 784 m 325 122 q 432 186 380 122 q 519 330 484 250 l 566 655 q 487 665 532 665 q 354 609 408 665 q 273 468 300 553 q 246 296 246 383 q 266 165 246 208 q 325 122 286 122 m 319 1021 q 357 1133 319 1088 q 453 1198 395 1177 q 569 1219 511 1219 q 713 1175 659 1219 q 766 1048 766 1131 q 732 940 766 985 q 642 873 698 895 q 523 851 587 851 q 373 896 427 851 q 319 1021 319 940 m 652 1045 q 625 1109 652 1084 q 555 1135 597 1135 q 469 1109 505 1135 q 433 1027 433 1084 q 446 981 433 1002 q 483 948 460 960 q 532 936 505 936 q 652 1045 652 936 z "},"ã":{"ha":819,"x_min":52,"x_max":806,"o":"m 768 784 l 660 0 l 493 0 l 503 148 q 405 35 464 81 q 271 -11 345 -11 q 105 68 158 -11 q 52 281 52 148 q 102 519 52 404 q 256 709 153 635 q 506 784 359 784 q 587 776 543 784 q 667 758 631 768 l 768 784 m 325 122 q 432 186 380 122 q 519 330 484 250 l 566 655 q 487 665 532 665 q 354 609 408 665 q 273 468 300 553 q 246 296 246 383 q 266 165 246 208 q 325 122 286 122 m 233 1013 q 282 1071 248 1042 q 356 1118 315 1100 q 431 1137 396 1137 q 482 1128 460 1137 q 520 1108 505 1120 q 556 1078 536 1097 q 595 1047 579 1057 q 630 1037 610 1037 q 683 1053 662 1037 q 718 1088 703 1069 q 736 1112 732 1106 l 806 1032 q 763 968 793 999 q 691 918 732 937 q 613 899 651 899 q 559 907 582 899 q 520 927 536 916 q 485 956 505 938 q 444 988 461 978 q 400 999 426 999 q 362 990 379 999 q 332 970 345 982 q 299 938 319 959 l 233 1013 z "},"æ":{"ha":1154,"x_min":51,"x_max":1112,"o":"m 798 123 q 915 155 853 123 q 1020 233 976 186 l 1069 137 q 1002 71 1047 105 q 895 13 958 37 q 760 -11 831 -11 q 584 44 651 -11 q 493 188 517 98 q 395 46 453 104 q 260 -11 336 -11 q 100 67 149 -11 q 51 281 51 145 q 103 519 51 404 q 262 709 156 635 q 522 784 369 784 q 620 773 574 784 q 709 735 666 762 q 901 784 795 784 q 1059 737 1006 784 q 1112 610 1112 690 q 984 386 1112 466 q 677 274 857 306 q 798 123 673 123 m 859 667 q 767 621 807 667 q 705 508 728 574 q 677 382 682 441 q 787 413 728 385 q 887 488 846 441 q 928 593 928 536 q 911 650 928 633 q 859 667 893 667 m 481 318 q 515 500 485 416 q 599 645 546 583 q 503 665 553 665 q 361 609 419 665 q 274 468 302 553 q 245 296 245 383 q 262 169 245 208 q 317 130 279 130 q 403 185 360 130 q 481 318 446 240 z "},"ǽ":{"ha":1154,"x_min":51,"x_max":1112,"o":"m 787 1183 l 909 1068 q 846 994 897 1044 q 737 898 795 943 q 640 837 678 852 l 570 895 l 787 1183 m 798 123 q 915 155 853 123 q 1020 233 976 186 l 1069 137 q 1002 71 1047 105 q 895 13 958 37 q 760 -11 831 -11 q 584 44 651 -11 q 493 188 517 98 q 395 46 453 104 q 260 -11 336 -11 q 100 67 149 -11 q 51 281 51 145 q 103 519 51 404 q 262 709 156 635 q 522 784 369 784 q 620 773 574 784 q 709 735 666 762 q 901 784 795 784 q 1059 737 1006 784 q 1112 610 1112 690 q 984 386 1112 466 q 677 274 857 306 q 798 123 673 123 m 859 667 q 767 621 807 667 q 705 508 728 574 q 677 382 682 441 q 787 413 728 385 q 887 488 846 441 q 928 593 928 536 q 911 650 928 633 q 859 667 893 667 m 481 318 q 515 500 485 416 q 599 645 546 583 q 503 665 553 665 q 361 609 419 665 q 274 468 302 553 q 245 296 245 383 q 262 169 245 208 q 317 130 279 130 q 403 185 360 130 q 481 318 446 240 z "},"b":{"ha":832,"x_min":54,"x_max":777,"o":"m 557 784 q 723 704 669 784 q 777 491 777 624 q 725 253 777 369 q 570 63 673 138 q 319 -11 466 -11 q 235 -3 281 -11 q 154 17 190 5 l 54 -5 l 205 1109 l 384 1109 l 336 720 l 318 621 q 418 736 357 688 q 557 784 480 784 m 337 109 q 471 165 416 109 q 554 305 526 220 q 581 476 581 390 q 503 650 581 650 q 422 615 463 650 q 351 531 382 581 q 299 433 319 481 l 258 119 q 337 109 292 109 z "},"ḃ":{"ha":832,"x_min":54,"x_max":777,"o":"m 557 784 q 723 704 669 784 q 777 491 777 624 q 725 253 777 369 q 570 63 673 138 q 319 -11 466 -11 q 235 -3 281 -11 q 154 17 190 5 l 54 -5 l 205 1109 l 384 1109 l 336 720 l 318 621 q 418 736 357 688 q 557 784 480 784 m 337 109 q 471 165 416 109 q 554 305 526 220 q 581 476 581 390 q 503 650 581 650 q 422 615 463 650 q 351 531 382 581 q 299 433 319 481 l 258 119 q 337 109 292 109 m 496 1011 q 512 1070 496 1043 q 555 1115 528 1098 q 616 1131 583 1131 q 669 1119 646 1131 q 705 1085 692 1106 q 718 1039 718 1064 q 702 978 718 1006 q 657 934 686 950 q 592 918 629 918 q 544 930 566 918 q 509 964 522 943 q 496 1011 496 985 z "},"c":{"ha":631,"x_min":54,"x_max":623,"o":"m 461 784 q 549 777 502 784 q 623 757 595 770 l 577 584 q 517 622 553 604 q 446 640 480 640 q 350 601 396 640 q 274 490 303 562 q 245 323 245 418 q 273 173 245 218 q 365 127 302 127 q 451 151 407 127 q 534 213 496 174 l 586 119 q 529 59 565 89 q 439 9 492 30 q 322 -11 386 -11 q 172 30 232 -11 q 83 140 111 71 q 54 297 54 209 q 104 535 54 423 q 247 715 155 647 q 461 784 340 784 z "},"ć":{"ha":631,"x_min":54,"x_max":727,"o":"m 605 1183 l 727 1068 q 664 994 715 1044 q 554 898 613 943 q 458 837 496 852 l 387 895 l 605 1183 m 461 784 q 549 777 502 784 q 623 757 595 770 l 577 584 q 517 622 553 604 q 446 640 480 640 q 350 601 396 640 q 274 490 303 562 q 245 323 245 418 q 273 173 245 218 q 365 127 302 127 q 451 151 407 127 q 534 213 496 174 l 586 119 q 529 59 565 89 q 439 9 492 30 q 322 -11 386 -11 q 172 30 232 -11 q 83 140 111 71 q 54 297 54 209 q 104 535 54 423 q 247 715 155 647 q 461 784 340 784 z "},"č":{"ha":631,"x_min":54,"x_max":745,"o":"m 310 1126 l 468 979 l 667 1126 l 745 1074 l 513 842 l 392 842 l 238 1073 l 310 1126 m 461 784 q 549 777 502 784 q 623 757 595 770 l 577 584 q 517 622 553 604 q 446 640 480 640 q 350 601 396 640 q 274 490 303 562 q 245 323 245 418 q 273 173 245 218 q 365 127 302 127 q 451 151 407 127 q 534 213 496 174 l 586 119 q 529 59 565 89 q 439 9 492 30 q 322 -11 386 -11 q 172 30 232 -11 q 83 140 111 71 q 54 297 54 209 q 104 535 54 423 q 247 715 155 647 q 461 784 340 784 z "},"ç":{"ha":631,"x_min":54,"x_max":623,"o":"m 365 127 q 451 151 407 127 q 534 213 496 174 l 586 119 q 510 46 559 81 q 395 -3 461 11 q 412 -66 406 -29 q 418 -136 418 -103 q 368 -271 418 -225 q 222 -316 317 -316 q 147 -309 193 -316 q 90 -294 101 -302 l 111 -174 q 162 -184 130 -184 q 247 -162 216 -184 q 278 -81 277 -140 l 279 -50 q 277 -8 279 -34 q 152 44 202 1 q 78 152 102 86 q 54 297 54 217 q 104 535 54 423 q 247 715 155 647 q 461 784 340 784 q 549 777 502 784 q 623 757 595 770 l 577 584 q 517 622 553 604 q 446 640 480 640 q 350 601 396 640 q 274 490 303 562 q 245 323 245 418 q 273 173 245 218 q 365 127 302 127 z "},"ĉ":{"ha":631,"x_min":54,"x_max":713,"o":"m 455 1126 l 576 1126 l 713 872 l 629 826 l 496 975 l 292 823 l 218 872 l 455 1126 m 461 784 q 549 777 502 784 q 623 757 595 770 l 577 584 q 517 622 553 604 q 446 640 480 640 q 350 601 396 640 q 274 490 303 562 q 245 323 245 418 q 273 173 245 218 q 365 127 302 127 q 451 151 407 127 q 534 213 496 174 l 586 119 q 529 59 565 89 q 439 9 492 30 q 322 -11 386 -11 q 172 30 232 -11 q 83 140 111 71 q 54 297 54 209 q 104 535 54 423 q 247 715 155 647 q 461 784 340 784 z "},"ċ":{"ha":631,"x_min":54,"x_max":623,"o":"m 461 784 q 549 777 502 784 q 623 757 595 770 l 577 584 q 517 622 553 604 q 446 640 480 640 q 350 601 396 640 q 274 490 303 562 q 245 323 245 418 q 273 173 245 218 q 365 127 302 127 q 451 151 407 127 q 534 213 496 174 l 586 119 q 529 59 565 89 q 439 9 492 30 q 322 -11 386 -11 q 172 30 232 -11 q 83 140 111 71 q 54 297 54 209 q 104 535 54 423 q 247 715 155 647 q 461 784 340 784 m 381 1011 q 397 1070 381 1043 q 440 1115 413 1098 q 501 1131 468 1131 q 554 1119 531 1131 q 590 1085 578 1106 q 603 1039 603 1064 q 587 978 603 1006 q 543 934 572 950 q 477 918 514 918 q 430 930 452 918 q 394 964 408 943 q 381 1011 381 985 z "},"d":{"ha":826,"x_min":51,"x_max":813,"o":"m 813 1109 l 667 0 l 499 0 l 509 156 q 409 38 471 87 q 270 -11 347 -11 q 104 68 157 -11 q 51 281 51 148 q 102 519 51 403 q 258 709 154 635 q 509 784 361 784 q 585 777 542 784 l 630 1109 l 813 1109 m 324 123 q 401 156 363 123 q 471 237 440 189 q 524 334 503 286 l 568 652 q 490 665 532 665 q 356 609 411 665 q 273 468 300 553 q 245 296 245 382 q 324 123 245 123 z "},"ð":{"ha":812,"x_min":53,"x_max":758,"o":"m 560 1060 q 710 837 662 963 q 758 567 758 710 q 710 273 758 404 q 569 65 662 142 q 343 -11 475 -11 q 183 34 249 -11 q 85 148 118 78 q 53 295 53 218 q 103 556 53 445 q 239 726 153 667 q 431 785 325 785 q 519 771 479 785 q 578 730 559 758 q 545 859 571 805 q 474 963 519 913 l 387 866 l 309 935 l 403 1031 q 243 1118 320 1097 l 279 1219 q 380 1181 326 1207 q 483 1122 434 1155 q 544 1191 517 1160 q 580 1234 571 1223 l 653 1164 l 560 1060 m 568 560 q 552 608 568 581 q 506 655 536 635 q 435 675 475 675 q 333 617 374 675 q 271 470 292 559 q 251 287 251 380 q 264 195 251 237 q 302 128 277 153 q 363 103 328 103 q 446 141 407 103 q 511 245 484 180 q 550 390 538 311 q 561 481 555 422 q 568 560 568 540 z "},"ď":{"ha":1027,"x_min":51,"x_max":1063,"o":"m 813 1109 l 667 0 l 499 0 l 509 156 q 409 38 471 87 q 270 -11 347 -11 q 104 68 157 -11 q 51 281 51 148 q 102 519 51 403 q 258 709 154 635 q 509 784 361 784 q 585 777 542 784 l 630 1109 l 813 1109 m 324 123 q 401 156 363 123 q 471 237 440 189 q 524 334 503 286 l 568 652 q 490 665 532 665 q 356 609 411 665 q 273 468 300 553 q 245 296 245 382 q 324 123 245 123 m 884 732 q 904 831 897 775 q 912 940 912 886 q 907 1021 912 983 q 893 1073 903 1059 l 903 1098 l 1040 1130 q 1063 988 1063 1091 q 1039 828 1063 911 q 973 692 1015 744 l 888 715 l 884 732 z "},"đ":{"ha":826,"x_min":51,"x_max":890,"o":"m 880 856 l 780 856 l 667 0 l 499 0 l 509 156 q 409 38 471 87 q 270 -11 347 -11 q 104 68 157 -11 q 51 281 51 148 q 102 519 51 403 q 258 709 154 635 q 509 784 361 784 q 585 777 542 784 l 595 856 l 431 856 l 441 944 l 608 944 l 630 1109 l 813 1109 l 791 944 l 890 944 l 880 856 m 324 123 q 401 156 363 123 q 471 237 440 189 q 524 334 503 286 l 568 652 q 490 665 532 665 q 356 609 411 665 q 273 468 300 553 q 245 296 245 382 q 324 123 245 123 z "},"ḋ":{"ha":826,"x_min":51,"x_max":813,"o":"m 813 1109 l 667 0 l 499 0 l 509 156 q 409 38 471 87 q 270 -11 347 -11 q 104 68 157 -11 q 51 281 51 148 q 102 519 51 403 q 258 709 154 635 q 509 784 361 784 q 585 777 542 784 l 630 1109 l 813 1109 m 324 123 q 401 156 363 123 q 471 237 440 189 q 524 334 503 286 l 568 652 q 490 665 532 665 q 356 609 411 665 q 273 468 300 553 q 245 296 245 382 q 324 123 245 123 m 235 1011 q 251 1070 235 1043 q 294 1115 267 1098 q 355 1131 321 1131 q 408 1119 385 1131 q 444 1085 431 1106 q 456 1039 456 1064 q 441 978 456 1006 q 396 934 425 950 q 331 918 368 918 q 283 930 305 918 q 248 964 261 943 q 235 1011 235 985 z "},"ǳ":{"ha":1487,"x_min":51,"x_max":1501,"o":"m 813 1109 l 667 0 l 499 0 l 509 156 q 409 38 471 87 q 270 -11 347 -11 q 104 68 157 -11 q 51 281 51 148 q 102 519 51 403 q 258 709 154 635 q 509 784 361 784 q 585 777 542 784 l 630 1109 l 813 1109 m 324 123 q 401 156 363 123 q 471 237 440 189 q 524 334 503 286 l 568 652 q 490 665 532 665 q 356 609 411 665 q 273 468 300 553 q 245 296 245 382 q 324 123 245 123 m 1047 145 l 1409 145 l 1394 0 l 833 0 l 801 35 l 1185 559 l 1261 630 l 930 630 l 949 773 l 1474 773 l 1501 741 l 1114 207 l 1047 145 z "},"ǆ":{"ha":1487,"x_min":51,"x_max":1522,"o":"m 813 1109 l 667 0 l 499 0 l 509 156 q 409 38 471 87 q 270 -11 347 -11 q 104 68 157 -11 q 51 281 51 148 q 102 519 51 403 q 258 709 154 635 q 509 784 361 784 q 585 777 542 784 l 630 1109 l 813 1109 m 324 123 q 401 156 363 123 q 471 237 440 189 q 524 334 503 286 l 568 652 q 490 665 532 665 q 356 609 411 665 q 273 468 300 553 q 245 296 245 382 q 324 123 245 123 m 1047 145 l 1409 145 l 1394 0 l 833 0 l 801 35 l 1185 559 l 1261 630 l 930 630 l 949 773 l 1474 773 l 1501 741 l 1114 207 l 1047 145 m 1087 1127 l 1245 980 l 1444 1127 l 1522 1075 l 1290 844 l 1169 844 l 1015 1074 l 1087 1127 z "},"e":{"ha":728,"x_min":54,"x_max":686,"o":"m 475 784 q 633 737 580 784 q 686 610 686 690 q 558 386 686 466 q 252 274 431 306 q 372 123 248 123 q 489 155 427 123 q 594 233 550 186 l 644 137 q 576 71 621 105 q 469 13 532 37 q 334 -11 406 -11 q 177 31 240 -11 q 84 141 114 73 q 54 292 54 210 q 109 542 54 429 q 259 719 163 654 q 475 784 355 784 m 503 593 q 485 650 503 633 q 433 667 467 667 q 341 621 381 667 q 279 508 302 574 q 252 382 256 441 q 361 413 302 385 q 461 488 420 441 q 503 593 503 536 z "},"é":{"ha":728,"x_min":54,"x_max":720,"o":"m 597 1183 l 720 1068 q 656 994 707 1044 q 547 898 606 943 q 450 837 488 852 l 380 895 l 597 1183 m 475 784 q 633 737 580 784 q 686 610 686 690 q 558 386 686 466 q 252 274 431 306 q 372 123 248 123 q 489 155 427 123 q 594 233 550 186 l 644 137 q 576 71 621 105 q 469 13 532 37 q 334 -11 406 -11 q 177 31 240 -11 q 84 141 114 73 q 54 292 54 210 q 109 542 54 429 q 259 719 163 654 q 475 784 355 784 m 503 593 q 485 650 503 633 q 433 667 467 667 q 341 621 381 667 q 279 508 302 574 q 252 382 256 441 q 361 413 302 385 q 461 488 420 441 q 503 593 503 536 z "},"ĕ":{"ha":728,"x_min":54,"x_max":709,"o":"m 475 784 q 633 737 580 784 q 686 610 686 690 q 558 386 686 466 q 252 274 431 306 q 372 123 248 123 q 489 155 427 123 q 594 233 550 186 l 644 137 q 576 71 621 105 q 469 13 532 37 q 334 -11 406 -11 q 177 31 240 -11 q 84 141 114 73 q 54 292 54 210 q 109 542 54 429 q 259 719 163 654 q 475 784 355 784 m 503 593 q 485 650 503 633 q 433 667 467 667 q 341 621 381 667 q 279 508 302 574 q 252 382 256 441 q 361 413 302 385 q 461 488 420 441 q 503 593 503 536 m 259 1096 q 264 1131 259 1112 l 373 1131 q 373 1120 373 1128 q 373 1105 372 1112 q 400 1033 378 1059 q 478 1006 422 1006 q 545 1026 519 1006 q 581 1071 570 1046 q 602 1131 593 1097 l 709 1131 q 708 1109 709 1116 q 676 1001 704 1053 q 595 916 648 949 q 471 883 543 883 q 310 942 361 883 q 259 1096 259 1002 z "},"ě":{"ha":728,"x_min":54,"x_max":738,"o":"m 302 1126 l 460 979 l 660 1126 l 738 1074 l 505 842 l 385 842 l 231 1073 l 302 1126 m 475 784 q 633 737 580 784 q 686 610 686 690 q 558 386 686 466 q 252 274 431 306 q 372 123 248 123 q 489 155 427 123 q 594 233 550 186 l 644 137 q 576 71 621 105 q 469 13 532 37 q 334 -11 406 -11 q 177 31 240 -11 q 84 141 114 73 q 54 292 54 210 q 109 542 54 429 q 259 719 163 654 q 475 784 355 784 m 503 593 q 485 650 503 633 q 433 667 467 667 q 341 621 381 667 q 279 508 302 574 q 252 382 256 441 q 361 413 302 385 q 461 488 420 441 q 503 593 503 536 z "},"ê":{"ha":728,"x_min":54,"x_max":706,"o":"m 448 1126 l 570 1126 l 706 872 l 622 826 l 489 975 l 285 823 l 212 872 l 448 1126 m 475 784 q 633 737 580 784 q 686 610 686 690 q 558 386 686 466 q 252 274 431 306 q 372 123 248 123 q 489 155 427 123 q 594 233 550 186 l 644 137 q 576 71 621 105 q 469 13 532 37 q 334 -11 406 -11 q 177 31 240 -11 q 84 141 114 73 q 54 292 54 210 q 109 542 54 429 q 259 719 163 654 q 475 784 355 784 m 503 593 q 485 650 503 633 q 433 667 467 667 q 341 621 381 667 q 279 508 302 574 q 252 382 256 441 q 361 413 302 385 q 461 488 420 441 q 503 593 503 536 z "},"ë":{"ha":728,"x_min":54,"x_max":733,"o":"m 224 1019 q 239 1078 224 1050 q 279 1121 254 1105 q 336 1137 304 1137 q 385 1124 363 1137 q 418 1090 406 1111 q 430 1046 430 1069 q 416 985 430 1013 q 375 941 401 958 q 314 924 349 924 q 270 938 291 924 q 237 973 250 951 q 224 1019 224 995 m 528 1019 q 542 1078 528 1050 q 582 1121 556 1105 q 638 1137 607 1137 q 688 1124 666 1137 q 721 1090 709 1111 q 733 1046 733 1069 q 719 985 733 1013 q 678 941 705 958 q 616 924 651 924 q 572 938 593 924 q 540 972 552 951 q 528 1019 528 994 m 475 784 q 633 737 580 784 q 686 610 686 690 q 558 386 686 466 q 252 274 431 306 q 372 123 248 123 q 489 155 427 123 q 594 233 550 186 l 644 137 q 576 71 621 105 q 469 13 532 37 q 334 -11 406 -11 q 177 31 240 -11 q 84 141 114 73 q 54 292 54 210 q 109 542 54 429 q 259 719 163 654 q 475 784 355 784 m 503 593 q 485 650 503 633 q 433 667 467 667 q 341 621 381 667 q 279 508 302 574 q 252 382 256 441 q 361 413 302 385 q 461 488 420 441 q 503 593 503 536 z "},"ė":{"ha":728,"x_min":54,"x_max":686,"o":"m 475 784 q 633 737 580 784 q 686 610 686 690 q 558 386 686 466 q 252 274 431 306 q 372 123 248 123 q 489 155 427 123 q 594 233 550 186 l 644 137 q 576 71 621 105 q 469 13 532 37 q 334 -11 406 -11 q 177 31 240 -11 q 84 141 114 73 q 54 292 54 210 q 109 542 54 429 q 259 719 163 654 q 475 784 355 784 m 503 593 q 485 650 503 633 q 433 667 467 667 q 341 621 381 667 q 279 508 302 574 q 252 382 256 441 q 361 413 302 385 q 461 488 420 441 q 503 593 503 536 m 374 1011 q 390 1070 374 1043 q 433 1115 406 1098 q 494 1131 460 1131 q 547 1119 524 1131 q 583 1085 570 1106 q 595 1039 595 1064 q 580 978 595 1006 q 535 934 564 950 q 470 918 507 918 q 422 930 444 918 q 387 964 400 943 q 374 1011 374 985 z "},"è":{"ha":728,"x_min":54,"x_max":686,"o":"m 475 784 q 633 737 580 784 q 686 610 686 690 q 558 386 686 466 q 252 274 431 306 q 372 123 248 123 q 489 155 427 123 q 594 233 550 186 l 644 137 q 576 71 621 105 q 469 13 532 37 q 334 -11 406 -11 q 177 31 240 -11 q 84 141 114 73 q 54 292 54 210 q 109 542 54 429 q 259 719 163 654 q 475 784 355 784 m 503 593 q 485 650 503 633 q 433 667 467 667 q 341 621 381 667 q 279 508 302 574 q 252 382 256 441 q 361 413 302 385 q 461 488 420 441 q 503 593 503 536 m 303 1184 l 514 895 l 444 838 q 354 895 410 851 q 247 989 298 939 q 180 1069 197 1040 l 303 1184 z "},"ē":{"ha":728,"x_min":54,"x_max":686,"o":"m 475 784 q 633 737 580 784 q 686 610 686 690 q 558 386 686 466 q 252 274 431 306 q 372 123 248 123 q 489 155 427 123 q 594 233 550 186 l 644 137 q 576 71 621 105 q 469 13 532 37 q 334 -11 406 -11 q 177 31 240 -11 q 84 141 114 73 q 54 292 54 210 q 109 542 54 429 q 259 719 163 654 q 475 784 355 784 m 503 593 q 485 650 503 633 q 433 667 467 667 q 341 621 381 667 q 279 508 302 574 q 252 382 256 441 q 361 413 302 385 q 461 488 420 441 q 503 593 503 536 m 649 1082 l 642 961 l 273 961 l 281 1082 l 649 1082 z "},"ę":{"ha":734,"x_min":54,"x_max":686,"o":"m 372 123 q 489 155 427 123 q 594 233 550 186 l 644 137 q 603 93 629 116 q 544 50 577 70 q 428 -60 481 -3 q 374 -144 374 -117 q 387 -181 374 -170 q 418 -191 399 -191 q 465 -183 443 -191 q 515 -154 487 -175 l 546 -247 q 463 -300 511 -280 q 351 -321 414 -321 q 277 -304 309 -321 q 230 -260 246 -287 q 214 -203 214 -233 q 263 -94 214 -146 q 374 -9 313 -43 q 334 -11 355 -11 q 177 31 240 -11 q 84 141 114 73 q 54 292 54 210 q 109 542 54 429 q 259 719 163 654 q 475 784 355 784 q 633 737 580 784 q 686 610 686 690 q 558 386 686 466 q 252 274 431 306 q 372 123 248 123 m 433 667 q 341 621 381 667 q 279 508 302 574 q 252 382 256 441 q 361 413 302 385 q 461 488 420 441 q 503 593 503 536 q 485 650 503 633 q 433 667 467 667 z "},"f":{"ha":495,"x_min":87,"x_max":625,"o":"m 87 647 l 111 773 l 193 773 l 204 841 q 257 996 216 929 q 362 1100 297 1063 q 513 1137 428 1137 q 625 1119 584 1137 l 587 984 q 553 1003 574 994 q 505 1011 532 1011 q 431 978 460 1011 q 392 878 402 944 l 376 773 l 511 773 l 498 647 l 360 647 l 272 0 l 87 0 l 176 647 l 87 647 z "},"ḟ":{"ha":495,"x_min":87,"x_max":625,"o":"m 227 1217 q 242 1276 227 1249 q 286 1320 258 1303 q 347 1337 313 1337 q 400 1324 376 1337 q 436 1291 423 1312 q 448 1244 448 1270 q 433 1183 448 1211 q 388 1139 417 1156 q 323 1123 359 1123 q 275 1136 297 1123 q 240 1170 253 1148 q 227 1217 227 1191 m 87 647 l 111 773 l 193 773 l 204 841 q 257 996 216 929 q 362 1100 297 1063 q 513 1137 428 1137 q 625 1119 584 1137 l 587 984 q 553 1003 574 994 q 505 1011 532 1011 q 431 978 460 1011 q 392 878 402 944 l 376 773 l 511 773 l 498 647 l 360 647 l 272 0 l 87 0 l 176 647 l 87 647 z "},"g":{"ha":823,"x_min":51,"x_max":772,"o":"m 772 784 l 659 -41 q 583 -222 643 -154 q 439 -318 522 -290 q 266 -347 357 -347 q 162 -338 220 -347 q 83 -319 104 -329 l 117 -177 q 198 -209 144 -193 q 302 -225 252 -225 q 415 -185 377 -225 q 468 -66 452 -144 l 505 149 q 405 35 465 81 q 270 -11 345 -11 q 104 68 157 -11 q 51 281 51 148 q 102 519 51 403 q 258 709 154 635 q 509 784 361 784 q 589 776 545 784 q 669 758 633 768 l 772 784 m 567 656 q 490 665 534 665 q 356 609 411 665 q 273 468 300 553 q 245 296 245 382 q 324 123 245 123 q 433 187 380 123 q 522 330 486 250 l 567 656 z "},"ğ":{"ha":823,"x_min":51,"x_max":772,"o":"m 772 784 l 659 -41 q 583 -222 643 -154 q 439 -318 522 -290 q 266 -347 357 -347 q 162 -338 220 -347 q 83 -319 104 -329 l 117 -177 q 198 -209 144 -193 q 302 -225 252 -225 q 415 -185 377 -225 q 468 -66 452 -144 l 505 149 q 405 35 465 81 q 270 -11 345 -11 q 104 68 157 -11 q 51 281 51 148 q 102 519 51 403 q 258 709 154 635 q 509 784 361 784 q 589 776 545 784 q 669 758 633 768 l 772 784 m 567 656 q 490 665 534 665 q 356 609 411 665 q 273 468 300 553 q 245 296 245 382 q 324 123 245 123 q 433 187 380 123 q 522 330 486 250 l 567 656 m 311 1096 q 315 1131 311 1112 l 425 1131 q 424 1120 425 1128 q 425 1105 424 1112 q 451 1033 429 1059 q 530 1006 473 1006 q 596 1026 571 1006 q 633 1071 621 1046 q 653 1131 644 1097 l 760 1131 q 760 1109 760 1116 q 727 1001 755 1053 q 647 916 699 949 q 522 883 595 883 q 362 942 413 883 q 311 1096 311 1002 z "},"ǧ":{"ha":823,"x_min":51,"x_max":789,"o":"m 772 784 l 659 -41 q 583 -222 643 -154 q 439 -318 522 -290 q 266 -347 357 -347 q 162 -338 220 -347 q 83 -319 104 -329 l 117 -177 q 198 -209 144 -193 q 302 -225 252 -225 q 415 -185 377 -225 q 468 -66 452 -144 l 505 149 q 405 35 465 81 q 270 -11 345 -11 q 104 68 157 -11 q 51 281 51 148 q 102 519 51 403 q 258 709 154 635 q 509 784 361 784 q 589 776 545 784 q 669 758 633 768 l 772 784 m 567 656 q 490 665 534 665 q 356 609 411 665 q 273 468 300 553 q 245 296 245 382 q 324 123 245 123 q 433 187 380 123 q 522 330 486 250 l 567 656 m 354 1127 l 512 980 l 711 1127 l 789 1075 l 557 844 l 436 844 l 282 1074 l 354 1127 z "},"ĝ":{"ha":823,"x_min":51,"x_max":772,"o":"m 499 1126 l 621 1126 l 757 872 l 673 826 l 540 975 l 336 823 l 262 872 l 499 1126 m 772 784 l 659 -41 q 583 -222 643 -154 q 439 -318 522 -290 q 266 -347 357 -347 q 162 -338 220 -347 q 83 -319 104 -329 l 117 -177 q 198 -209 144 -193 q 302 -225 252 -225 q 415 -185 377 -225 q 468 -66 452 -144 l 505 149 q 405 35 465 81 q 270 -11 345 -11 q 104 68 157 -11 q 51 281 51 148 q 102 519 51 403 q 258 709 154 635 q 509 784 361 784 q 589 776 545 784 q 669 758 633 768 l 772 784 m 567 656 q 490 665 534 665 q 356 609 411 665 q 273 468 300 553 q 245 296 245 382 q 324 123 245 123 q 433 187 380 123 q 522 330 486 250 l 567 656 z "},"ģ":{"ha":823,"x_min":51,"x_max":772,"o":"m 496 843 q 445 871 467 849 q 409 924 422 892 q 397 989 397 956 q 418 1087 397 1043 q 471 1159 439 1131 q 536 1193 503 1187 l 597 1152 l 595 1135 q 549 1040 549 1102 q 563 994 549 1015 q 596 969 576 972 l 591 919 l 496 843 m 772 784 l 659 -41 q 583 -222 643 -154 q 439 -318 522 -290 q 266 -347 357 -347 q 162 -338 220 -347 q 83 -319 104 -329 l 117 -177 q 198 -209 144 -193 q 302 -225 252 -225 q 415 -185 377 -225 q 468 -66 452 -144 l 505 149 q 405 35 465 81 q 270 -11 345 -11 q 104 68 157 -11 q 51 281 51 148 q 102 519 51 403 q 258 709 154 635 q 509 784 361 784 q 589 776 545 784 q 669 758 633 768 l 772 784 m 567 656 q 490 665 534 665 q 356 609 411 665 q 273 468 300 553 q 245 296 245 382 q 324 123 245 123 q 433 187 380 123 q 522 330 486 250 l 567 656 z "},"ġ":{"ha":823,"x_min":51,"x_max":772,"o":"m 772 784 l 659 -41 q 583 -222 643 -154 q 439 -318 522 -290 q 266 -347 357 -347 q 162 -338 220 -347 q 83 -319 104 -329 l 117 -177 q 198 -209 144 -193 q 302 -225 252 -225 q 415 -185 377 -225 q 468 -66 452 -144 l 505 149 q 405 35 465 81 q 270 -11 345 -11 q 104 68 157 -11 q 51 281 51 148 q 102 519 51 403 q 258 709 154 635 q 509 784 361 784 q 589 776 545 784 q 669 758 633 768 l 772 784 m 567 656 q 490 665 534 665 q 356 609 411 665 q 273 468 300 553 q 245 296 245 382 q 324 123 245 123 q 433 187 380 123 q 522 330 486 250 l 567 656 m 425 1011 q 441 1070 425 1043 q 485 1115 457 1098 q 545 1131 512 1131 q 598 1119 575 1131 q 634 1085 622 1106 q 647 1039 647 1064 q 631 978 647 1006 q 587 934 616 950 q 522 918 558 918 q 474 930 496 918 q 438 964 452 943 q 425 1011 425 985 z "},"ḡ":{"ha":823,"x_min":51,"x_max":772,"o":"m 772 784 l 659 -41 q 583 -222 643 -154 q 439 -318 522 -290 q 266 -347 357 -347 q 162 -338 220 -347 q 83 -319 104 -329 l 117 -177 q 198 -209 144 -193 q 302 -225 252 -225 q 415 -185 377 -225 q 468 -66 452 -144 l 505 149 q 405 35 465 81 q 270 -11 345 -11 q 104 68 157 -11 q 51 281 51 148 q 102 519 51 403 q 258 709 154 635 q 509 784 361 784 q 589 776 545 784 q 669 758 633 768 l 772 784 m 567 656 q 490 665 534 665 q 356 609 411 665 q 273 468 300 553 q 245 296 245 382 q 324 123 245 123 q 433 187 380 123 q 522 330 486 250 l 567 656 m 701 1082 l 693 961 l 325 961 l 332 1082 l 701 1082 z "},"h":{"ha":852,"x_min":56,"x_max":768,"o":"m 599 784 q 726 737 683 784 q 768 583 768 690 q 762 504 768 558 q 741 348 755 449 l 709 126 l 690 0 l 503 0 q 525 152 511 64 q 552 347 541 262 q 569 482 564 433 q 575 562 575 532 q 559 616 575 602 q 512 631 544 631 q 444 612 481 631 q 370 558 406 592 q 307 484 334 525 l 240 0 l 56 0 l 201 1109 l 386 1109 l 342 757 l 319 623 q 447 740 373 695 q 599 784 520 784 z "},"ħ":{"ha":852,"x_min":56,"x_max":768,"o":"m 599 784 q 726 737 683 784 q 768 583 768 690 q 762 504 768 558 q 741 348 755 449 l 709 126 l 690 0 l 503 0 q 525 152 511 64 q 552 347 541 262 q 569 482 564 433 q 575 562 575 532 q 559 616 575 602 q 512 631 544 631 q 444 612 481 631 q 370 558 406 592 q 307 484 334 525 l 240 0 l 56 0 l 168 856 l 87 856 l 98 944 l 180 944 l 201 1109 l 386 1109 l 366 944 l 527 944 l 516 856 l 355 856 l 342 757 l 319 623 q 447 740 373 695 q 599 784 520 784 z "},"ĥ":{"ha":852,"x_min":56,"x_max":812,"o":"m 599 784 q 726 737 683 784 q 768 583 768 690 q 762 504 768 558 q 741 348 755 449 l 709 126 l 690 0 l 503 0 q 525 152 511 64 q 552 347 541 262 q 569 482 564 433 q 575 562 575 532 q 559 616 575 602 q 512 631 544 631 q 444 612 481 631 q 370 558 406 592 q 307 484 334 525 l 240 0 l 56 0 l 201 1109 l 386 1109 l 378 1049 l 555 1224 l 676 1224 l 812 994 l 732 944 l 598 1080 l 395 941 l 368 958 l 342 757 l 319 623 q 447 740 373 695 q 599 784 520 784 z "},"i":{"ha":423,"x_min":69,"x_max":425,"o":"m 363 773 l 256 0 l 69 0 l 175 773 l 363 773 m 203 1011 q 219 1070 203 1043 q 262 1115 235 1098 q 323 1131 290 1131 q 376 1119 353 1131 q 412 1085 399 1106 q 425 1039 425 1064 q 409 978 425 1006 q 365 934 393 950 q 299 918 336 918 q 251 930 273 918 q 216 964 229 943 q 203 1011 203 985 z "},"ı":{"ha":423,"x_min":69,"x_max":363,"o":"m 363 773 l 256 0 l 69 0 l 175 773 l 363 773 z "},"í":{"ha":423,"x_min":69,"x_max":549,"o":"m 427 1183 l 549 1068 q 486 994 536 1044 q 376 898 435 943 q 279 837 317 852 l 209 895 l 427 1183 m 363 773 l 256 0 l 69 0 l 175 773 l 363 773 z "},"ĭ":{"ha":423,"x_min":69,"x_max":538,"o":"m 363 773 l 256 0 l 69 0 l 175 773 l 363 773 m 88 1096 q 93 1131 88 1112 l 202 1131 q 202 1120 202 1128 q 202 1105 201 1112 q 229 1033 207 1059 q 307 1006 251 1006 q 374 1026 349 1006 q 410 1071 399 1046 q 431 1131 422 1097 l 538 1131 q 537 1109 538 1116 q 505 1001 533 1053 q 425 916 477 949 q 300 883 372 883 q 139 942 191 883 q 88 1096 88 1002 z "},"ǐ":{"ha":423,"x_min":60,"x_max":567,"o":"m 363 773 l 256 0 l 69 0 l 175 773 l 363 773 m 132 1127 l 290 980 l 489 1127 l 567 1075 l 334 844 l 214 844 l 60 1074 l 132 1127 z "},"î":{"ha":423,"x_min":41,"x_max":535,"o":"m 277 1126 l 399 1126 l 535 872 l 451 826 l 318 975 l 114 823 l 41 872 l 277 1126 m 363 773 l 256 0 l 69 0 l 175 773 l 363 773 z "},"ï":{"ha":423,"x_min":54,"x_max":562,"o":"m 54 1019 q 68 1078 54 1050 q 108 1121 83 1105 q 165 1137 134 1137 q 214 1124 193 1137 q 247 1090 235 1111 q 259 1046 259 1069 q 245 985 259 1013 q 204 941 231 958 q 143 924 178 924 q 99 938 120 924 q 66 973 79 951 q 54 1019 54 995 m 357 1019 q 371 1078 357 1050 q 411 1121 385 1105 q 467 1137 436 1137 q 517 1124 495 1137 q 550 1090 538 1111 q 562 1046 562 1069 q 548 985 562 1013 q 507 941 534 958 q 446 924 480 924 q 401 938 422 924 q 369 972 381 951 q 357 1019 357 994 m 363 773 l 256 0 l 69 0 l 175 773 l 363 773 z "},"ì":{"ha":423,"x_min":9,"x_max":363,"o":"m 363 773 l 256 0 l 69 0 l 175 773 l 363 773 m 132 1184 l 343 895 l 273 838 q 183 895 239 851 q 76 989 127 939 q 9 1069 26 1040 l 132 1184 z "},"ĳ":{"ha":845,"x_min":69,"x_max":838,"o":"m 363 773 l 256 0 l 69 0 l 175 773 l 363 773 m 203 1011 q 219 1070 203 1043 q 262 1115 235 1098 q 323 1131 290 1131 q 376 1119 353 1131 q 412 1085 399 1106 q 425 1039 425 1064 q 409 978 425 1006 q 365 934 393 950 q 299 918 336 918 q 251 930 273 918 q 216 964 229 943 q 203 1011 203 985 m 785 773 l 680 1 q 619 -189 665 -109 q 506 -311 573 -269 q 359 -353 438 -353 q 296 -347 324 -353 q 252 -329 267 -340 l 300 -230 q 315 -236 305 -234 q 331 -237 324 -237 q 421 -200 388 -237 q 469 -105 454 -163 q 498 45 485 -47 l 597 773 l 785 773 m 616 1011 q 632 1070 616 1043 q 676 1115 648 1098 q 736 1131 703 1131 q 790 1119 766 1131 q 826 1085 813 1106 q 838 1039 838 1064 q 823 978 838 1006 q 778 934 807 950 q 713 918 749 918 q 665 930 687 918 q 630 964 643 943 q 616 1011 616 985 z "},"ī":{"ha":423,"x_min":69,"x_max":478,"o":"m 363 773 l 256 0 l 69 0 l 175 773 l 363 773 m 478 1082 l 471 961 l 102 961 l 110 1082 l 478 1082 z "},"į":{"ha":443,"x_min":-64,"x_max":443,"o":"m 341 1130 q 394 1117 371 1130 q 430 1084 418 1105 q 443 1038 443 1063 q 427 977 443 1004 q 383 932 412 949 q 317 916 354 916 q 270 929 292 916 q 234 963 248 941 q 221 1010 221 984 q 237 1069 221 1042 q 280 1113 253 1097 q 341 1130 308 1130 m 251 0 q 143 -72 189 -32 q 98 -144 98 -112 q 110 -181 98 -170 q 142 -191 123 -191 q 188 -183 165 -191 q 237 -154 210 -174 l 269 -247 q 185 -300 235 -280 q 74 -321 136 -321 q 0 -304 31 -321 q -47 -260 -31 -287 q -64 -203 -64 -233 q -34 -118 -64 -159 q 36 -48 -4 -78 q 114 0 77 -18 l 77 0 l 182 773 l 370 773 l 264 0 l 251 0 z "},"ĩ":{"ha":423,"x_min":14,"x_max":587,"o":"m 363 773 l 256 0 l 69 0 l 175 773 l 363 773 m 14 1013 q 63 1071 29 1042 q 137 1118 96 1100 q 212 1137 177 1137 q 263 1128 241 1137 q 301 1108 286 1120 q 337 1078 317 1097 q 376 1047 360 1057 q 411 1037 391 1037 q 464 1053 443 1037 q 499 1088 484 1069 q 517 1112 513 1106 l 587 1032 q 544 968 574 999 q 472 918 513 937 q 394 899 432 899 q 340 907 363 899 q 301 927 317 916 q 266 956 286 938 q 224 988 242 978 q 181 999 207 999 q 143 990 160 999 q 113 970 125 982 q 80 938 100 959 l 14 1013 z "},"j":{"ha":422,"x_min":-171,"x_max":415,"o":"m 362 773 l 256 1 q 196 -189 241 -109 q 82 -311 150 -269 q -64 -353 15 -353 q -127 -347 -99 -353 q -171 -329 -156 -340 l -123 -230 q -109 -236 -118 -234 q -92 -237 -99 -237 q -2 -200 -35 -237 q 46 -105 31 -163 q 75 45 62 -47 l 174 773 l 362 773 m 193 1011 q 209 1070 193 1043 q 253 1115 225 1098 q 313 1131 280 1131 q 367 1119 343 1131 q 402 1085 390 1106 q 415 1039 415 1064 q 399 978 415 1006 q 355 934 384 950 q 290 918 326 918 q 242 930 264 918 q 207 964 220 943 q 193 1011 193 985 z "},"ȷ":{"ha":422,"x_min":-171,"x_max":362,"o":"m 362 773 l 256 1 q 196 -189 241 -109 q 82 -311 150 -269 q -64 -353 15 -353 q -127 -347 -99 -353 q -171 -329 -156 -340 l -123 -230 q -109 -236 -118 -234 q -92 -237 -99 -237 q -2 -200 -35 -237 q 46 -105 31 -163 q 75 45 62 -47 l 174 773 l 362 773 z "},"ĵ":{"ha":422,"x_min":-171,"x_max":526,"o":"m 362 773 l 256 1 q 196 -189 241 -109 q 82 -311 150 -269 q -64 -353 15 -353 q -127 -347 -99 -353 q -171 -329 -156 -340 l -123 -230 q -109 -236 -118 -234 q -92 -237 -99 -237 q -2 -200 -35 -237 q 46 -105 31 -163 q 75 45 62 -47 l 174 773 l 362 773 m 268 1127 l 389 1127 l 526 873 l 441 827 l 309 976 l 104 825 l 31 873 l 268 1127 z "},"k":{"ha":769,"x_min":56,"x_max":770,"o":"m 386 1109 l 241 0 l 56 0 l 201 1109 l 386 1109 m 713 618 q 617 496 674 550 q 507 415 559 442 l 741 1 l 525 1 l 321 429 l 322 429 l 321 429 q 420 506 376 460 q 505 618 464 552 q 553 693 533 656 q 587 773 572 730 l 770 773 q 752 695 766 732 q 713 618 738 658 z "},"ķ":{"ha":769,"x_min":56,"x_max":770,"o":"m 288 -106 l 383 -30 q 434 -58 412 -36 q 470 -111 457 -79 q 482 -176 482 -142 q 461 -274 482 -230 q 407 -346 439 -318 q 342 -380 375 -374 l 281 -339 l 283 -321 q 330 -227 330 -288 q 316 -180 330 -202 q 282 -156 302 -159 l 288 -106 m 386 1109 l 241 0 l 56 0 l 201 1109 l 386 1109 m 713 618 q 617 496 674 550 q 507 415 559 442 l 741 1 l 525 1 l 321 429 l 322 429 l 321 429 q 420 506 376 460 q 505 618 464 552 q 553 693 533 656 q 587 773 572 730 l 770 773 q 752 695 766 732 q 713 618 738 658 z "},"ĸ":{"ha":768,"x_min":54,"x_max":771,"o":"m 347 779 l 241 0 l 54 0 l 160 779 l 347 779 m 746 675 q 682 564 722 616 q 595 473 641 512 q 507 413 549 435 l 739 0 l 532 0 l 321 427 l 322 428 l 321 428 q 448 528 392 467 q 547 675 503 589 q 588 779 572 726 l 771 779 q 746 675 767 726 z "},"l":{"ha":424,"x_min":71,"x_max":409,"o":"m 409 1109 l 258 1 l 71 1 l 221 1109 l 409 1109 z "},"ĺ":{"ha":424,"x_min":71,"x_max":545,"o":"m 431 1361 l 545 1255 q 485 1181 526 1221 q 397 1110 444 1142 q 317 1066 350 1078 l 243 1129 l 431 1361 m 399 1035 l 258 0 l 71 0 l 212 1035 l 399 1035 z "},"ľ":{"ha":552,"x_min":71,"x_max":667,"o":"m 409 1109 l 258 1 l 71 1 l 221 1109 l 409 1109 m 488 722 q 508 821 500 765 q 515 930 515 876 q 511 1010 515 972 q 496 1063 506 1048 l 506 1088 l 644 1120 q 667 978 667 1081 q 642 818 667 901 q 576 682 618 734 l 492 705 l 488 722 z "},"ļ":{"ha":424,"x_min":47,"x_max":409,"o":"m 54 -106 l 149 -30 q 200 -58 178 -36 q 236 -111 223 -79 q 248 -176 248 -142 q 227 -274 248 -230 q 173 -346 205 -318 q 109 -380 141 -374 l 47 -339 l 50 -321 q 96 -227 96 -288 q 82 -180 96 -202 q 48 -156 68 -159 l 54 -106 m 409 1109 l 258 1 l 71 1 l 221 1109 l 409 1109 z "},"ŀ":{"ha":588,"x_min":71,"x_max":639,"o":"m 409 1109 l 258 1 l 71 1 l 221 1109 l 409 1109 m 544 640 q 616 615 593 640 q 639 551 639 590 q 605 457 639 492 q 513 422 570 422 q 446 448 472 422 q 420 513 420 473 q 436 575 420 546 q 479 622 451 604 q 544 640 507 640 z "},"ǉ":{"ha":846,"x_min":71,"x_max":839,"o":"m 409 1109 l 258 1 l 71 1 l 221 1109 l 409 1109 m 786 773 l 680 1 q 620 -189 665 -109 q 506 -311 574 -269 q 359 -353 439 -353 q 296 -347 325 -353 q 253 -329 268 -340 l 300 -230 q 315 -236 306 -234 q 332 -237 325 -237 q 421 -200 389 -237 q 470 -105 454 -163 q 498 45 486 -47 l 598 773 l 786 773 m 617 1011 q 633 1070 617 1043 q 676 1115 649 1098 q 737 1131 704 1131 q 790 1119 767 1131 q 826 1085 814 1106 q 839 1039 839 1064 q 823 978 839 1006 q 779 934 808 950 q 713 918 750 918 q 666 930 688 918 q 630 964 644 943 q 617 1011 617 985 z "},"ł":{"ha":424,"x_min":28,"x_max":463,"o":"m 463 659 l 341 611 l 258 1 l 71 1 l 142 533 l 28 488 l 28 601 l 159 654 l 221 1109 l 409 1109 l 358 736 l 463 779 l 463 659 z "},"m":{"ha":1266,"x_min":54,"x_max":1185,"o":"m 1019 784 q 1143 737 1101 784 q 1185 583 1185 690 q 1158 348 1185 536 q 1122 103 1148 277 l 1107 1 l 920 1 q 948 197 935 109 q 969 347 949 209 q 986 482 981 433 q 992 562 992 532 q 977 616 992 602 q 929 631 961 631 q 841 597 890 631 q 753 511 793 564 q 745 443 751 486 q 736 376 739 401 l 732 348 q 696 103 722 277 l 682 1 l 494 1 q 506 82 500 44 q 516 154 511 121 q 543 347 533 271 q 566 562 566 510 q 550 616 566 602 q 503 631 534 631 q 404 590 459 631 q 308 486 348 548 l 241 1 l 54 1 l 159 773 l 339 773 l 328 633 q 449 743 380 701 q 592 784 518 784 q 705 749 664 784 q 755 637 745 714 q 877 744 808 704 q 1019 784 945 784 z "},"ṁ":{"ha":1266,"x_min":54,"x_max":1185,"o":"m 1019 784 q 1143 737 1101 784 q 1185 583 1185 690 q 1158 348 1185 536 q 1122 103 1148 277 l 1107 1 l 920 1 q 948 197 935 109 q 969 347 949 209 q 986 482 981 433 q 992 562 992 532 q 977 616 992 602 q 929 631 961 631 q 841 597 890 631 q 753 511 793 564 q 745 443 751 486 q 736 376 739 401 l 732 348 q 696 103 722 277 l 682 1 l 494 1 q 506 82 500 44 q 516 154 511 121 q 543 347 533 271 q 566 562 566 510 q 550 616 566 602 q 503 631 534 631 q 404 590 459 631 q 308 486 348 548 l 241 1 l 54 1 l 159 773 l 339 773 l 328 633 q 449 743 380 701 q 592 784 518 784 q 705 749 664 784 q 755 637 745 714 q 877 744 808 704 q 1019 784 945 784 m 639 1011 q 655 1070 639 1043 q 698 1115 671 1098 q 759 1131 726 1131 q 812 1119 789 1131 q 848 1085 836 1106 q 861 1039 861 1064 q 845 978 861 1006 q 801 934 829 950 q 735 918 772 918 q 687 930 709 918 q 652 964 665 943 q 639 1011 639 985 z "},"n":{"ha":852,"x_min":54,"x_max":770,"o":"m 602 784 q 728 737 686 784 q 770 583 770 690 q 743 348 770 536 q 708 103 734 277 l 693 1 l 506 1 q 517 82 511 44 q 528 154 523 121 q 555 347 545 271 q 577 562 577 510 q 562 616 577 602 q 514 631 546 631 q 446 611 484 631 q 372 557 408 591 q 307 482 335 524 l 241 1 l 54 1 l 159 773 l 338 773 l 327 629 q 452 742 380 699 q 602 784 524 784 z "},"ń":{"ha":852,"x_min":54,"x_max":770,"o":"m 648 1183 l 770 1068 q 707 994 758 1044 q 597 898 656 943 q 500 837 538 852 l 430 895 l 648 1183 m 602 784 q 728 737 686 784 q 770 583 770 690 q 743 348 770 536 q 708 103 734 277 l 693 1 l 506 1 q 517 82 511 44 q 528 154 523 121 q 555 347 545 271 q 577 562 577 510 q 562 616 577 602 q 514 631 546 631 q 446 611 484 631 q 372 557 408 591 q 307 482 335 524 l 241 1 l 54 1 l 159 773 l 338 773 l 327 629 q 452 742 380 699 q 602 784 524 784 z "},"ň":{"ha":852,"x_min":54,"x_max":788,"o":"m 353 1126 l 511 979 l 710 1126 l 788 1074 l 555 842 l 435 842 l 281 1073 l 353 1126 m 602 784 q 728 737 686 784 q 770 583 770 690 q 743 348 770 536 q 708 103 734 277 l 693 1 l 506 1 q 517 82 511 44 q 528 154 523 121 q 555 347 545 271 q 577 562 577 510 q 562 616 577 602 q 514 631 546 631 q 446 611 484 631 q 372 557 408 591 q 307 482 335 524 l 241 1 l 54 1 l 159 773 l 338 773 l 327 629 q 452 742 380 699 q 602 784 524 784 z "},"ņ":{"ha":852,"x_min":54,"x_max":770,"o":"m 265 -106 l 360 -30 q 411 -58 389 -36 q 447 -111 434 -79 q 459 -176 459 -142 q 438 -274 459 -230 q 384 -346 416 -318 q 319 -380 352 -374 l 258 -339 l 260 -321 q 307 -227 307 -288 q 293 -180 307 -202 q 259 -156 279 -159 l 265 -106 m 602 784 q 728 737 686 784 q 770 583 770 690 q 743 348 770 536 q 708 103 734 277 l 693 1 l 506 1 q 517 82 511 44 q 528 154 523 121 q 555 347 545 271 q 577 562 577 510 q 562 616 577 602 q 514 631 546 631 q 446 611 484 631 q 372 557 408 591 q 307 482 335 524 l 241 1 l 54 1 l 159 773 l 338 773 l 327 629 q 452 742 380 699 q 602 784 524 784 z "},"ṅ":{"ha":852,"x_min":54,"x_max":770,"o":"m 602 784 q 728 737 686 784 q 770 583 770 690 q 743 348 770 536 q 708 103 734 277 l 693 1 l 506 1 q 517 82 511 44 q 528 154 523 121 q 555 347 545 271 q 577 562 577 510 q 562 616 577 602 q 514 631 546 631 q 446 611 484 631 q 372 557 408 591 q 307 482 335 524 l 241 1 l 54 1 l 159 773 l 338 773 l 327 629 q 452 742 380 699 q 602 784 524 784 m 424 1011 q 440 1070 424 1043 q 483 1115 456 1098 q 544 1131 511 1131 q 597 1119 574 1131 q 633 1085 621 1106 q 646 1039 646 1064 q 630 978 646 1006 q 586 934 614 950 q 520 918 557 918 q 472 930 494 918 q 437 964 450 943 q 424 1011 424 985 z "},"ŋ":{"ha":853,"x_min":54,"x_max":770,"o":"m 602 784 q 728 737 686 784 q 770 583 770 690 q 746 357 770 532 q 693 0 722 182 q 629 -209 672 -131 q 521 -321 586 -287 q 363 -355 456 -355 q 293 -348 326 -355 q 250 -330 260 -341 l 275 -261 q 299 -267 283 -264 q 323 -269 315 -269 q 416 -233 380 -269 q 474 -133 453 -197 q 509 22 495 -70 q 557 352 538 214 q 577 557 575 489 q 563 616 578 600 q 514 631 547 631 q 446 611 484 631 q 372 556 408 591 q 307 481 335 522 l 241 0 l 54 0 l 159 773 l 338 773 l 327 628 q 453 741 380 699 q 602 784 525 784 z "},"ǌ":{"ha":1274,"x_min":54,"x_max":1267,"o":"m 602 784 q 728 737 686 784 q 770 583 770 690 q 743 348 770 536 q 708 103 734 277 l 693 1 l 506 1 q 517 82 511 44 q 528 154 523 121 q 555 347 545 271 q 577 562 577 510 q 562 616 577 602 q 514 631 546 631 q 446 611 484 631 q 372 557 408 591 q 307 482 335 524 l 241 1 l 54 1 l 159 773 l 338 773 l 327 629 q 452 742 380 699 q 602 784 524 784 m 1215 773 l 1109 1 q 1048 -189 1094 -109 q 935 -311 1002 -269 q 788 -353 867 -353 q 725 -347 753 -353 q 682 -329 696 -340 l 729 -230 q 744 -236 734 -234 q 760 -237 753 -237 q 850 -200 817 -237 q 899 -105 883 -163 q 927 45 914 -47 l 1027 773 l 1215 773 m 1046 1011 q 1062 1070 1046 1043 q 1105 1115 1078 1098 q 1166 1131 1133 1131 q 1219 1119 1196 1131 q 1255 1085 1242 1106 q 1267 1039 1267 1064 q 1252 978 1267 1006 q 1207 934 1236 950 q 1142 918 1179 918 q 1094 930 1116 918 q 1059 964 1072 943 q 1046 1011 1046 985 z "},"ñ":{"ha":852,"x_min":54,"x_max":808,"o":"m 602 784 q 728 737 686 784 q 770 583 770 690 q 743 348 770 536 q 708 103 734 277 l 693 1 l 506 1 q 517 82 511 44 q 528 154 523 121 q 555 347 545 271 q 577 562 577 510 q 562 616 577 602 q 514 631 546 631 q 446 611 484 631 q 372 557 408 591 q 307 482 335 524 l 241 1 l 54 1 l 159 773 l 338 773 l 327 629 q 452 742 380 699 q 602 784 524 784 m 235 1013 q 284 1071 250 1042 q 358 1118 317 1100 q 433 1137 398 1137 q 484 1128 462 1137 q 522 1108 507 1120 q 558 1078 538 1097 q 597 1047 581 1057 q 632 1037 612 1037 q 685 1053 664 1037 q 720 1088 705 1069 q 739 1112 734 1106 l 808 1032 q 765 968 795 999 q 693 918 734 937 q 615 899 653 899 q 561 907 584 899 q 522 927 538 916 q 487 956 507 938 q 446 988 463 978 q 402 999 428 999 q 364 990 381 999 q 334 970 347 982 q 301 938 321 959 l 235 1013 z "},"o":{"ha":785,"x_min":52,"x_max":732,"o":"m 462 784 q 665 696 597 784 q 732 459 732 608 q 683 227 732 335 q 541 54 633 119 q 326 -11 448 -11 q 173 30 234 -11 q 82 144 112 71 q 52 315 52 218 q 102 546 52 439 q 245 719 152 654 q 462 784 338 784 m 352 112 q 457 164 414 112 q 520 298 499 217 q 541 466 541 380 q 515 614 541 566 q 433 662 489 662 q 328 608 372 662 q 263 472 285 554 q 241 304 241 389 q 352 112 241 112 z "},"ó":{"ha":785,"x_min":52,"x_max":732,"o":"m 602 1183 l 724 1068 q 661 994 711 1044 q 551 898 610 943 q 454 837 492 852 l 384 895 l 602 1183 m 462 784 q 665 696 597 784 q 732 459 732 608 q 683 227 732 335 q 541 54 633 119 q 326 -11 448 -11 q 173 30 234 -11 q 82 144 112 71 q 52 315 52 218 q 102 546 52 439 q 245 719 152 654 q 462 784 338 784 m 352 112 q 457 164 414 112 q 520 298 499 217 q 541 466 541 380 q 515 614 541 566 q 433 662 489 662 q 328 608 372 662 q 263 472 285 554 q 241 304 241 389 q 352 112 241 112 z "},"ŏ":{"ha":785,"x_min":52,"x_max":732,"o":"m 462 784 q 665 696 597 784 q 732 459 732 608 q 683 227 732 335 q 541 54 633 119 q 326 -11 448 -11 q 173 30 234 -11 q 82 144 112 71 q 52 315 52 218 q 102 546 52 439 q 245 719 152 654 q 462 784 338 784 m 352 112 q 457 164 414 112 q 520 298 499 217 q 541 466 541 380 q 515 614 541 566 q 433 662 489 662 q 328 608 372 662 q 263 472 285 554 q 241 304 241 389 q 352 112 241 112 m 263 1096 q 268 1131 263 1112 l 377 1131 q 377 1120 377 1128 q 377 1105 376 1112 q 404 1033 382 1059 q 482 1006 426 1006 q 549 1026 524 1006 q 585 1071 574 1046 q 606 1131 597 1097 l 713 1131 q 712 1109 713 1116 q 680 1001 708 1053 q 600 916 652 949 q 475 883 547 883 q 314 942 366 883 q 263 1096 263 1002 z "},"ǒ":{"ha":785,"x_min":52,"x_max":742,"o":"m 462 784 q 665 696 597 784 q 732 459 732 608 q 683 227 732 335 q 541 54 633 119 q 326 -11 448 -11 q 173 30 234 -11 q 82 144 112 71 q 52 315 52 218 q 102 546 52 439 q 245 719 152 654 q 462 784 338 784 m 352 112 q 457 164 414 112 q 520 298 499 217 q 541 466 541 380 q 515 614 541 566 q 433 662 489 662 q 328 608 372 662 q 263 472 285 554 q 241 304 241 389 q 352 112 241 112 m 307 1127 l 465 980 l 664 1127 l 742 1075 l 509 844 l 389 844 l 235 1074 l 307 1127 z "},"ô":{"ha":785,"x_min":52,"x_max":732,"o":"m 452 1126 l 574 1126 l 710 872 l 626 826 l 493 975 l 289 823 l 216 872 l 452 1126 m 462 784 q 665 696 597 784 q 732 459 732 608 q 683 227 732 335 q 541 54 633 119 q 326 -11 448 -11 q 173 30 234 -11 q 82 144 112 71 q 52 315 52 218 q 102 546 52 439 q 245 719 152 654 q 462 784 338 784 m 352 112 q 457 164 414 112 q 520 298 499 217 q 541 466 541 380 q 515 614 541 566 q 433 662 489 662 q 328 608 372 662 q 263 472 285 554 q 241 304 241 389 q 352 112 241 112 z "},"ö":{"ha":785,"x_min":52,"x_max":737,"o":"m 229 1019 q 243 1078 229 1050 q 283 1121 258 1105 q 340 1137 309 1137 q 389 1124 368 1137 q 422 1090 410 1111 q 434 1046 434 1069 q 420 985 434 1013 q 379 941 406 958 q 318 924 353 924 q 274 938 295 924 q 241 973 254 951 q 229 1019 229 995 m 532 1019 q 546 1078 532 1050 q 586 1121 560 1105 q 642 1137 611 1137 q 692 1124 670 1137 q 725 1090 713 1111 q 737 1046 737 1069 q 723 985 737 1013 q 682 941 709 958 q 621 924 655 924 q 576 938 597 924 q 544 972 556 951 q 532 1019 532 994 m 462 784 q 665 696 597 784 q 732 459 732 608 q 683 227 732 335 q 541 54 633 119 q 326 -11 448 -11 q 173 30 234 -11 q 82 144 112 71 q 52 315 52 218 q 102 546 52 439 q 245 719 152 654 q 462 784 338 784 m 352 112 q 457 164 414 112 q 520 298 499 217 q 541 466 541 380 q 515 614 541 566 q 433 662 489 662 q 328 608 372 662 q 263 472 285 554 q 241 304 241 389 q 352 112 241 112 z "},"ò":{"ha":785,"x_min":52,"x_max":732,"o":"m 462 784 q 665 696 597 784 q 732 459 732 608 q 683 227 732 335 q 541 54 633 119 q 326 -11 448 -11 q 173 30 234 -11 q 82 144 112 71 q 52 315 52 218 q 102 546 52 439 q 245 719 152 654 q 462 784 338 784 m 352 112 q 457 164 414 112 q 520 298 499 217 q 541 466 541 380 q 515 614 541 566 q 433 662 489 662 q 328 608 372 662 q 263 472 285 554 q 241 304 241 389 q 352 112 241 112 m 307 1184 l 518 895 l 448 838 q 358 895 414 851 q 251 989 302 939 q 184 1069 201 1040 l 307 1184 z "},"ő":{"ha":785,"x_min":52,"x_max":842,"o":"m 406 1175 l 526 1089 q 474 999 512 1052 q 392 899 436 945 q 315 836 347 853 l 235 882 l 406 1175 m 720 1175 l 842 1086 q 789 998 830 1052 q 700 897 747 943 q 621 836 652 850 l 545 882 l 720 1175 m 462 784 q 665 696 597 784 q 732 459 732 608 q 683 227 732 335 q 541 54 633 119 q 326 -11 448 -11 q 173 30 234 -11 q 82 144 112 71 q 52 315 52 218 q 102 546 52 439 q 245 719 152 654 q 462 784 338 784 m 352 112 q 457 164 414 112 q 520 298 499 217 q 541 466 541 380 q 515 614 541 566 q 433 662 489 662 q 328 608 372 662 q 263 472 285 554 q 241 304 241 389 q 352 112 241 112 z "},"ō":{"ha":785,"x_min":52,"x_max":732,"o":"m 653 1081 l 646 960 l 277 960 l 285 1081 l 653 1081 m 462 784 q 665 696 597 784 q 732 459 732 608 q 683 227 732 335 q 541 54 633 119 q 326 -11 448 -11 q 173 30 234 -11 q 82 144 112 71 q 52 315 52 218 q 102 546 52 439 q 245 719 152 654 q 462 784 338 784 m 352 112 q 457 164 414 112 q 520 298 499 217 q 541 466 541 380 q 515 614 541 566 q 433 662 489 662 q 328 608 372 662 q 263 472 285 554 q 241 304 241 389 q 352 112 241 112 z "},"ø":{"ha":785,"x_min":52,"x_max":732,"o":"m 732 460 q 683 229 732 336 q 541 56 633 121 q 326 -9 448 -9 q 191 21 248 -9 l 119 -90 l 58 -56 l 136 62 q 73 170 94 104 q 52 316 52 235 q 102 548 52 440 q 245 720 152 655 q 462 785 338 785 q 580 763 528 785 l 656 884 l 717 850 l 637 726 q 708 616 685 684 q 732 460 732 548 m 433 663 q 327 608 371 663 q 262 468 283 553 q 241 298 240 384 q 248 222 241 254 l 492 644 q 433 663 470 663 m 352 113 q 457 166 414 113 q 520 300 499 218 q 541 467 541 381 q 530 574 541 536 l 281 144 q 352 113 307 113 z "},"ǿ":{"ha":785,"x_min":52,"x_max":732,"o":"m 732 460 q 683 229 732 336 q 541 56 633 121 q 326 -9 448 -9 q 191 21 248 -9 l 119 -90 l 58 -56 l 136 62 q 73 170 94 104 q 52 316 52 235 q 102 548 52 440 q 245 720 152 655 q 462 785 338 785 q 580 763 528 785 l 656 884 l 717 850 l 637 726 q 708 616 685 684 q 732 460 732 548 m 433 663 q 327 608 371 663 q 262 468 283 553 q 241 298 240 384 q 248 222 241 254 l 492 644 q 433 663 470 663 m 352 113 q 457 166 414 113 q 520 300 499 218 q 541 467 541 381 q 530 574 541 536 l 281 144 q 352 113 307 113 m 440 1183 l 562 1068 q 499 994 550 1044 q 390 898 448 943 q 293 837 331 852 l 222 895 l 440 1183 z "},"õ":{"ha":785,"x_min":52,"x_max":762,"o":"m 462 784 q 665 696 597 784 q 732 459 732 608 q 683 227 732 335 q 541 54 633 119 q 326 -11 448 -11 q 173 30 234 -11 q 82 144 112 71 q 52 315 52 218 q 102 546 52 439 q 245 719 152 654 q 462 784 338 784 m 352 112 q 457 164 414 112 q 520 298 499 217 q 541 466 541 380 q 515 614 541 566 q 433 662 489 662 q 328 608 372 662 q 263 472 285 554 q 241 304 241 389 q 352 112 241 112 m 189 1013 q 238 1071 204 1042 q 312 1118 271 1100 q 387 1137 352 1137 q 438 1128 416 1137 q 476 1108 460 1120 q 512 1078 492 1097 q 551 1047 535 1057 q 586 1037 566 1037 q 638 1053 618 1037 q 674 1088 659 1069 q 692 1112 688 1106 l 762 1032 q 719 968 749 999 q 647 918 688 937 q 569 899 607 899 q 515 907 538 899 q 476 927 492 916 q 441 956 460 938 q 399 988 417 978 q 356 999 382 999 q 318 990 335 999 q 288 970 300 982 q 255 938 275 959 l 189 1013 z "},"œ":{"ha":1200,"x_min":52,"x_max":1158,"o":"m 844 123 q 961 155 899 123 q 1066 233 1022 186 l 1116 137 q 1048 71 1093 105 q 941 13 1004 37 q 806 -11 878 -11 q 673 17 729 -11 q 581 96 616 45 q 466 17 530 45 q 326 -11 402 -11 q 121 76 189 -11 q 52 311 52 163 q 102 543 52 435 q 243 718 151 652 q 458 784 336 784 q 675 673 608 784 q 800 755 730 726 q 947 784 869 784 q 1105 737 1052 784 q 1158 610 1158 690 q 1030 386 1158 466 q 724 274 903 306 q 844 123 720 123 m 905 667 q 813 621 853 667 q 751 508 774 574 q 724 382 728 441 q 833 413 774 385 q 933 488 892 441 q 975 593 975 536 q 957 650 975 633 q 905 667 939 667 m 352 112 q 465 176 420 112 q 528 342 510 241 q 538 409 532 382 q 541 470 541 450 q 514 616 541 570 q 430 662 487 662 q 326 607 369 662 q 262 470 283 553 q 241 302 241 387 q 269 159 241 206 q 352 112 296 112 z "},"p":{"ha":832,"x_min":8,"x_max":774,"o":"m 555 784 q 721 705 668 784 q 774 494 774 627 q 723 255 774 372 q 568 64 671 139 q 316 -11 464 -11 q 239 -4 283 -11 l 193 -341 l 8 -341 l 158 773 l 328 773 l 322 631 q 421 740 361 695 q 555 784 481 784 m 335 109 q 469 165 414 109 q 552 307 524 221 q 579 478 579 392 q 501 650 579 650 q 423 617 462 650 q 353 538 385 585 q 301 444 322 491 l 256 118 q 335 109 291 109 z "},"ṗ":{"ha":832,"x_min":8,"x_max":774,"o":"m 555 784 q 721 705 668 784 q 774 494 774 627 q 723 255 774 372 q 568 64 671 139 q 316 -11 464 -11 q 239 -4 283 -11 l 193 -341 l 8 -341 l 158 773 l 328 773 l 322 631 q 421 740 361 695 q 555 784 481 784 m 335 109 q 469 165 414 109 q 552 307 524 221 q 579 478 579 392 q 501 650 579 650 q 423 617 462 650 q 353 538 385 585 q 301 444 322 491 l 256 118 q 335 109 291 109 m 448 1011 q 464 1070 448 1043 q 508 1115 480 1098 q 568 1131 535 1131 q 622 1119 598 1131 q 657 1085 645 1106 q 670 1039 670 1064 q 654 978 670 1006 q 610 934 639 950 q 545 918 581 918 q 497 930 519 918 q 461 964 475 943 q 448 1011 448 985 z "},"þ":{"ha":832,"x_min":7,"x_max":777,"o":"m 557 784 q 723 704 669 784 q 777 491 777 624 q 725 253 777 369 q 570 63 673 138 q 319 -11 466 -11 q 234 -3 283 -11 l 224 -94 l 191 -342 l 7 -342 l 54 -5 l 205 1109 l 384 1109 l 336 720 l 318 621 q 418 736 357 688 q 557 784 480 784 m 337 109 q 471 165 416 109 q 554 305 526 220 q 581 476 581 390 q 503 650 581 650 q 422 615 463 650 q 351 531 382 581 q 299 433 319 481 l 258 119 q 337 109 292 109 z "},"q":{"ha":827,"x_min":51,"x_max":770,"o":"m 770 786 l 621 -338 l 436 -338 l 481 1 l 508 153 q 408 37 469 85 q 270 -11 347 -11 q 104 68 157 -11 q 51 281 51 148 q 102 519 51 403 q 258 709 154 635 q 509 784 361 784 q 589 777 545 784 q 668 759 633 769 l 770 786 m 324 123 q 431 185 378 123 q 520 326 484 246 l 565 656 q 490 665 532 665 q 356 609 411 665 q 273 468 300 553 q 245 296 245 382 q 324 123 245 123 z "},"r":{"ha":574,"x_min":54,"x_max":590,"o":"m 545 784 q 590 775 579 784 l 553 582 q 527 592 545 589 q 486 595 509 595 q 391 562 440 595 q 306 467 342 528 l 241 0 l 54 0 l 160 773 l 340 773 l 328 627 q 377 701 345 665 q 452 760 408 736 q 545 784 495 784 z "},"ŕ":{"ha":574,"x_min":54,"x_max":591,"o":"m 469 1183 l 591 1068 q 528 994 579 1044 q 419 898 477 943 q 322 837 360 852 l 252 895 l 469 1183 m 545 784 q 590 775 579 784 l 553 582 q 527 592 545 589 q 486 595 509 595 q 391 562 440 595 q 306 467 342 528 l 241 0 l 54 0 l 160 773 l 340 773 l 328 627 q 377 701 345 665 q 452 760 408 736 q 545 784 495 784 z "},"ř":{"ha":574,"x_min":54,"x_max":610,"o":"m 174 1126 l 332 979 l 532 1126 l 610 1074 l 377 842 l 256 842 l 102 1073 l 174 1126 m 545 784 q 590 775 579 784 l 553 582 q 527 592 545 589 q 486 595 509 595 q 391 562 440 595 q 306 467 342 528 l 241 0 l 54 0 l 160 773 l 340 773 l 328 627 q 377 701 345 665 q 452 760 408 736 q 545 784 495 784 z "},"ŗ":{"ha":574,"x_min":39,"x_max":590,"o":"m 45 -106 l 140 -30 q 192 -58 169 -36 q 227 -111 214 -79 q 239 -176 239 -142 q 218 -274 239 -230 q 164 -346 197 -318 q 100 -380 132 -374 l 39 -339 l 41 -321 q 87 -227 87 -288 q 73 -180 87 -202 q 39 -156 59 -159 l 45 -106 m 545 784 q 590 775 579 784 l 553 582 q 527 592 545 589 q 486 595 509 595 q 391 562 440 595 q 306 467 342 528 l 241 0 l 54 0 l 160 773 l 340 773 l 328 627 q 377 701 345 665 q 452 760 408 736 q 545 784 495 784 z "},"s":{"ha":627,"x_min":34,"x_max":576,"o":"m 66 186 q 111 159 81 174 q 177 134 140 144 q 247 123 213 123 q 360 200 360 123 q 349 241 360 222 q 319 277 337 260 q 269 319 302 293 l 235 348 q 170 410 195 381 q 129 478 145 439 q 113 566 113 516 q 150 683 113 633 q 252 758 187 732 q 399 784 317 784 q 505 775 453 784 q 576 758 557 766 l 551 595 q 519 618 541 606 q 465 641 496 631 q 397 650 433 650 q 318 631 347 650 q 289 576 289 611 q 298 533 289 551 q 323 499 308 515 q 371 458 339 484 l 397 436 q 475 368 446 398 q 523 299 505 337 q 541 212 541 260 q 501 86 541 136 q 395 13 462 36 q 246 -11 329 -11 q 117 3 181 -11 q 34 33 54 16 l 66 186 z "},"ś":{"ha":627,"x_min":34,"x_max":656,"o":"m 534 1183 l 656 1068 q 593 994 644 1044 q 484 898 543 943 q 387 837 425 852 l 317 895 l 534 1183 m 66 186 q 111 159 81 174 q 177 134 140 144 q 247 123 213 123 q 360 200 360 123 q 349 241 360 222 q 319 277 337 260 q 269 319 302 293 l 235 348 q 170 410 195 381 q 129 478 145 439 q 113 566 113 516 q 150 683 113 633 q 252 758 187 732 q 399 784 317 784 q 505 775 453 784 q 576 758 557 766 l 551 595 q 519 618 541 606 q 465 641 496 631 q 397 650 433 650 q 318 631 347 650 q 289 576 289 611 q 298 533 289 551 q 323 499 308 515 q 371 458 339 484 l 397 436 q 475 368 446 398 q 523 299 505 337 q 541 212 541 260 q 501 86 541 136 q 395 13 462 36 q 246 -11 329 -11 q 117 3 181 -11 q 34 33 54 16 l 66 186 z "},"š":{"ha":627,"x_min":34,"x_max":675,"o":"m 239 1126 l 397 979 l 597 1126 l 675 1074 l 442 842 l 321 842 l 168 1073 l 239 1126 m 66 186 q 111 159 81 174 q 177 134 140 144 q 247 123 213 123 q 360 200 360 123 q 349 241 360 222 q 319 277 337 260 q 269 319 302 293 l 235 348 q 170 410 195 381 q 129 478 145 439 q 113 566 113 516 q 150 683 113 633 q 252 758 187 732 q 399 784 317 784 q 505 775 453 784 q 576 758 557 766 l 551 595 q 519 618 541 606 q 465 641 496 631 q 397 650 433 650 q 318 631 347 650 q 289 576 289 611 q 298 533 289 551 q 323 499 308 515 q 371 458 339 484 l 397 436 q 475 368 446 398 q 523 299 505 337 q 541 212 541 260 q 501 86 541 136 q 395 13 462 36 q 246 -11 329 -11 q 117 3 181 -11 q 34 33 54 16 l 66 186 z "},"ş":{"ha":627,"x_min":20,"x_max":576,"o":"m 399 784 q 505 775 453 784 q 576 758 557 766 l 551 595 q 519 618 541 606 q 465 641 496 631 q 397 650 433 650 q 318 631 347 650 q 289 576 289 611 q 298 533 289 551 q 323 499 308 515 q 371 458 339 484 l 397 436 q 475 368 446 398 q 523 299 505 337 q 541 212 541 260 q 482 64 541 118 q 326 -5 423 11 q 341 -67 335 -31 q 348 -136 348 -104 q 297 -271 348 -225 q 152 -316 247 -316 q 77 -309 123 -316 q 20 -294 31 -302 l 41 -174 q 92 -184 60 -184 q 176 -162 146 -184 q 208 -81 206 -140 q 208 -44 208 -69 q 208 -9 208 -20 q 100 7 150 -5 q 34 33 50 19 l 66 186 q 111 159 81 174 q 177 134 140 144 q 247 123 213 123 q 360 200 360 123 q 349 241 360 222 q 319 277 337 260 q 269 319 302 293 l 235 348 q 170 410 195 381 q 129 478 145 439 q 113 566 113 516 q 150 683 113 633 q 252 758 187 732 q 399 784 317 784 z "},"ŝ":{"ha":627,"x_min":34,"x_max":643,"o":"m 385 1126 l 507 1126 l 643 872 l 559 826 l 426 975 l 222 823 l 149 872 l 385 1126 m 66 186 q 111 159 81 174 q 177 134 140 144 q 247 123 213 123 q 360 200 360 123 q 349 241 360 222 q 319 277 337 260 q 269 319 302 293 l 235 348 q 170 410 195 381 q 129 478 145 439 q 113 566 113 516 q 150 683 113 633 q 252 758 187 732 q 399 784 317 784 q 505 775 453 784 q 576 758 557 766 l 551 595 q 519 618 541 606 q 465 641 496 631 q 397 650 433 650 q 318 631 347 650 q 289 576 289 611 q 298 533 289 551 q 323 499 308 515 q 371 458 339 484 l 397 436 q 475 368 446 398 q 523 299 505 337 q 541 212 541 260 q 501 86 541 136 q 395 13 462 36 q 246 -11 329 -11 q 117 3 181 -11 q 34 33 54 16 l 66 186 z "},"ș":{"ha":627,"x_min":34,"x_max":576,"o":"m 166 -106 l 261 -30 q 312 -58 290 -36 q 348 -111 335 -79 q 360 -176 360 -142 q 339 -274 360 -230 q 285 -346 317 -318 q 220 -380 253 -374 l 159 -339 l 161 -321 q 208 -227 208 -288 q 194 -180 208 -202 q 160 -156 180 -159 l 166 -106 m 66 186 q 111 159 81 174 q 177 134 140 144 q 247 123 213 123 q 360 200 360 123 q 349 241 360 222 q 319 277 337 260 q 269 319 302 293 l 235 348 q 170 410 195 381 q 129 478 145 439 q 113 566 113 516 q 150 683 113 633 q 252 758 187 732 q 399 784 317 784 q 505 775 453 784 q 576 758 557 766 l 551 595 q 519 618 541 606 q 465 641 496 631 q 397 650 433 650 q 318 631 347 650 q 289 576 289 611 q 298 533 289 551 q 323 499 308 515 q 371 458 339 484 l 397 436 q 475 368 446 398 q 523 299 505 337 q 541 212 541 260 q 501 86 541 136 q 395 13 462 36 q 246 -11 329 -11 q 117 3 181 -11 q 34 33 54 16 l 66 186 z "},"ṡ":{"ha":627,"x_min":34,"x_max":576,"o":"m 66 186 q 111 159 81 174 q 177 134 140 144 q 247 123 213 123 q 360 200 360 123 q 349 241 360 222 q 319 277 337 260 q 269 319 302 293 l 235 348 q 170 410 195 381 q 129 478 145 439 q 113 566 113 516 q 150 683 113 633 q 252 758 187 732 q 399 784 317 784 q 505 775 453 784 q 576 758 557 766 l 551 595 q 519 618 541 606 q 465 641 496 631 q 397 650 433 650 q 318 631 347 650 q 289 576 289 611 q 298 533 289 551 q 323 499 308 515 q 371 458 339 484 l 397 436 q 475 368 446 398 q 523 299 505 337 q 541 212 541 260 q 501 86 541 136 q 395 13 462 36 q 246 -11 329 -11 q 117 3 181 -11 q 34 33 54 16 l 66 186 m 311 1011 q 327 1070 311 1043 q 370 1115 342 1098 q 431 1131 397 1131 q 484 1119 460 1131 q 520 1085 507 1106 q 532 1039 532 1064 q 517 978 532 1006 q 472 934 501 950 q 407 918 444 918 q 359 930 381 918 q 324 964 337 943 q 311 1011 311 985 z "},"ß":{"ha":851,"x_min":48,"x_max":807,"o":"m 130 630 q 224 918 156 819 q 375 1046 292 1016 q 560 1076 458 1076 q 689 1053 633 1076 q 776 985 745 1030 q 807 875 807 939 q 792 782 807 822 q 756 717 777 743 q 703 659 736 692 q 656 607 671 629 q 642 559 642 586 q 657 510 642 537 q 710 433 673 483 q 772 330 749 380 q 795 218 795 279 q 761 96 795 148 q 662 17 726 45 q 507 -11 597 -11 q 403 -1 451 -11 q 330 21 355 8 l 347 174 q 404 139 365 155 q 478 123 442 123 q 575 144 545 123 q 606 220 606 166 q 589 284 606 253 q 541 357 572 315 q 457 535 457 467 q 477 611 457 578 q 536 686 497 644 q 604 770 581 729 q 627 861 627 810 q 600 927 627 901 q 524 954 572 954 q 389 871 444 954 q 309 589 334 789 l 232 1 l 48 1 l 130 630 z "},"t":{"ha":536,"x_min":91,"x_max":528,"o":"m 159 647 l 91 647 l 117 773 l 189 773 l 243 962 l 389 962 l 364 773 l 528 773 l 513 647 l 347 647 l 298 275 q 294 249 295 256 q 288 182 288 200 q 296 139 288 155 q 330 123 305 123 q 396 144 353 123 q 462 184 439 164 l 488 90 q 425 43 465 67 q 335 4 385 20 q 236 -12 285 -12 q 133 21 171 -12 q 94 121 94 54 q 97 163 94 132 q 106 235 100 195 l 159 647 z "},"ŧ":{"ha":536,"x_min":67,"x_max":528,"o":"m 347 647 l 329 509 l 473 509 l 462 421 l 317 421 l 298 275 q 294 249 295 256 q 288 182 288 200 q 296 139 288 155 q 330 123 305 123 q 396 144 353 123 q 462 184 439 164 l 488 90 q 425 43 465 67 q 335 4 385 20 q 236 -12 285 -12 q 133 21 171 -12 q 94 121 94 54 q 97 163 94 132 q 106 235 100 195 l 130 421 l 67 421 l 78 509 l 141 509 l 159 647 l 91 647 l 117 773 l 189 773 l 243 962 l 389 962 l 364 773 l 528 773 l 513 647 l 347 647 z "},"ť":{"ha":536,"x_min":91,"x_max":663,"o":"m 159 647 l 91 647 l 117 773 l 189 773 l 243 962 l 389 962 l 364 773 l 528 773 l 513 647 l 347 647 l 298 275 q 294 249 295 256 q 288 182 288 200 q 296 139 288 155 q 330 123 305 123 q 396 144 353 123 q 462 184 439 164 l 488 90 q 425 43 465 67 q 335 4 385 20 q 236 -12 285 -12 q 133 21 171 -12 q 94 121 94 54 q 97 163 94 132 q 106 235 100 195 l 159 647 m 484 885 q 504 983 496 928 q 511 1093 511 1039 q 507 1173 511 1135 q 492 1225 502 1211 l 502 1251 l 640 1282 q 663 1141 663 1244 q 638 980 663 1064 q 572 845 614 897 l 488 868 l 484 885 z "},"ţ":{"ha":536,"x_min":-24,"x_max":528,"o":"m 298 275 q 294 249 295 256 q 288 182 288 200 q 296 139 288 155 q 330 123 305 123 q 396 144 353 123 q 462 184 439 164 l 488 90 q 400 31 457 60 q 283 -8 343 1 q 298 -70 292 -35 q 304 -136 304 -104 q 253 -271 304 -225 q 108 -316 203 -316 q 33 -309 79 -316 q -24 -294 -14 -302 l -3 -174 q 47 -184 16 -184 q 132 -162 102 -184 q 163 -81 162 -140 l 164 -50 q 162 2 164 -20 q 112 47 130 17 q 94 121 94 77 q 97 163 94 132 q 106 235 100 195 l 159 647 l 91 647 l 117 773 l 189 773 l 243 962 l 389 962 l 364 773 l 528 773 l 513 647 l 347 647 l 298 275 z "},"ț":{"ha":536,"x_min":91,"x_max":528,"o":"m 122 -106 l 217 -30 q 268 -58 245 -36 q 303 -111 291 -79 q 316 -176 316 -142 q 295 -274 316 -230 q 241 -346 273 -318 q 176 -380 209 -374 l 115 -339 l 117 -321 q 163 -227 163 -288 q 150 -180 163 -202 q 116 -156 136 -159 l 122 -106 m 159 647 l 91 647 l 117 773 l 189 773 l 243 962 l 389 962 l 364 773 l 528 773 l 513 647 l 347 647 l 298 275 q 294 249 295 256 q 288 182 288 200 q 296 139 288 155 q 330 123 305 123 q 396 144 353 123 q 462 184 439 164 l 488 90 q 425 43 465 67 q 335 4 385 20 q 236 -12 285 -12 q 133 21 171 -12 q 94 121 94 54 q 97 163 94 132 q 106 235 100 195 l 159 647 z "},"ṫ":{"ha":536,"x_min":91,"x_max":528,"o":"m 159 647 l 91 647 l 117 773 l 189 773 l 243 962 l 389 962 l 364 773 l 528 773 l 513 647 l 347 647 l 298 275 q 294 249 295 256 q 288 182 288 200 q 296 139 288 155 q 330 123 305 123 q 396 144 353 123 q 462 184 439 164 l 488 90 q 425 43 465 67 q 335 4 385 20 q 236 -12 285 -12 q 133 21 171 -12 q 94 121 94 54 q 97 163 94 132 q 106 235 100 195 l 159 647 m 239 1094 q 255 1153 239 1126 q 299 1197 271 1181 q 359 1214 326 1214 q 413 1201 389 1214 q 449 1168 436 1189 q 461 1122 461 1147 q 446 1061 461 1088 q 401 1017 430 1033 q 336 1000 372 1000 q 288 1013 310 1000 q 253 1047 266 1025 q 239 1094 239 1068 z "},"u":{"ha":836,"x_min":76,"x_max":782,"o":"m 782 773 l 678 0 l 509 0 l 518 139 q 403 29 470 72 q 260 -14 336 -14 q 124 31 172 -14 q 76 176 76 76 q 81 252 76 208 q 95 370 85 295 q 125 586 106 448 q 151 773 144 724 l 337 773 q 334 755 336 760 q 307 549 326 692 q 283 368 288 405 q 268 208 268 256 q 286 149 268 166 q 337 131 303 131 q 435 175 382 131 q 528 283 488 220 l 595 773 l 782 773 z "},"ú":{"ha":836,"x_min":76,"x_max":782,"o":"m 625 1183 l 747 1068 q 684 994 735 1044 q 575 898 633 943 q 478 837 516 852 l 408 895 l 625 1183 m 782 773 l 678 0 l 509 0 l 518 139 q 403 29 470 72 q 260 -14 336 -14 q 124 31 172 -14 q 76 176 76 76 q 81 252 76 208 q 95 370 85 295 q 125 586 106 448 q 151 773 144 724 l 337 773 q 334 755 336 760 q 307 549 326 692 q 283 368 288 405 q 268 208 268 256 q 286 149 268 166 q 337 131 303 131 q 435 175 382 131 q 528 283 488 220 l 595 773 l 782 773 z "},"ŭ":{"ha":836,"x_min":76,"x_max":782,"o":"m 782 773 l 678 0 l 509 0 l 518 139 q 403 29 470 72 q 260 -14 336 -14 q 124 31 172 -14 q 76 176 76 76 q 81 252 76 208 q 95 370 85 295 q 125 586 106 448 q 151 773 144 724 l 337 773 q 334 755 336 760 q 307 549 326 692 q 283 368 288 405 q 268 208 268 256 q 286 149 268 166 q 337 131 303 131 q 435 175 382 131 q 528 283 488 220 l 595 773 l 782 773 m 287 1096 q 292 1131 287 1112 l 401 1131 q 400 1120 401 1128 q 401 1105 400 1112 q 428 1033 406 1059 q 506 1006 450 1006 q 572 1026 547 1006 q 609 1071 597 1046 q 629 1131 621 1097 l 736 1131 q 736 1109 736 1116 q 704 1001 732 1053 q 623 916 675 949 q 498 883 571 883 q 338 942 389 883 q 287 1096 287 1002 z "},"ǔ":{"ha":836,"x_min":76,"x_max":782,"o":"m 782 773 l 678 0 l 509 0 l 518 139 q 403 29 470 72 q 260 -14 336 -14 q 124 31 172 -14 q 76 176 76 76 q 81 252 76 208 q 95 370 85 295 q 125 586 106 448 q 151 773 144 724 l 337 773 q 334 755 336 760 q 307 549 326 692 q 283 368 288 405 q 268 208 268 256 q 286 149 268 166 q 337 131 303 131 q 435 175 382 131 q 528 283 488 220 l 595 773 l 782 773 m 330 1127 l 488 980 l 688 1127 l 766 1075 l 533 844 l 412 844 l 258 1074 l 330 1127 z "},"û":{"ha":836,"x_min":76,"x_max":782,"o":"m 476 1126 l 597 1126 l 734 872 l 650 826 l 517 975 l 313 823 l 239 872 l 476 1126 m 782 773 l 678 0 l 509 0 l 518 139 q 403 29 470 72 q 260 -14 336 -14 q 124 31 172 -14 q 76 176 76 76 q 81 252 76 208 q 95 370 85 295 q 125 586 106 448 q 151 773 144 724 l 337 773 q 334 755 336 760 q 307 549 326 692 q 283 368 288 405 q 268 208 268 256 q 286 149 268 166 q 337 131 303 131 q 435 175 382 131 q 528 283 488 220 l 595 773 l 782 773 z "},"ü":{"ha":836,"x_min":76,"x_max":782,"o":"m 252 1019 q 267 1078 252 1050 q 307 1121 281 1105 q 363 1137 332 1137 q 413 1124 391 1137 q 446 1090 434 1111 q 458 1046 458 1069 q 444 985 458 1013 q 403 941 429 958 q 342 924 376 924 q 298 938 319 924 q 265 973 277 951 q 252 1019 252 995 m 555 1019 q 570 1078 555 1050 q 609 1121 584 1105 q 666 1137 635 1137 q 715 1124 694 1137 q 749 1090 737 1111 q 761 1046 761 1069 q 747 985 761 1013 q 706 941 732 958 q 644 924 679 924 q 600 938 621 924 q 568 972 580 951 q 555 1019 555 994 m 782 773 l 678 0 l 509 0 l 518 139 q 403 29 470 72 q 260 -14 336 -14 q 124 31 172 -14 q 76 176 76 76 q 81 252 76 208 q 95 370 85 295 q 125 586 106 448 q 151 773 144 724 l 337 773 q 334 755 336 760 q 307 549 326 692 q 283 368 288 405 q 268 208 268 256 q 286 149 268 166 q 337 131 303 131 q 435 175 382 131 q 528 283 488 220 l 595 773 l 782 773 z "},"ù":{"ha":836,"x_min":76,"x_max":782,"o":"m 782 773 l 678 0 l 509 0 l 518 139 q 403 29 470 72 q 260 -14 336 -14 q 124 31 172 -14 q 76 176 76 76 q 81 252 76 208 q 95 370 85 295 q 125 586 106 448 q 151 773 144 724 l 337 773 q 334 755 336 760 q 307 549 326 692 q 283 368 288 405 q 268 208 268 256 q 286 149 268 166 q 337 131 303 131 q 435 175 382 131 q 528 283 488 220 l 595 773 l 782 773 m 331 1184 l 542 895 l 471 838 q 382 895 438 851 q 275 989 326 939 q 208 1069 224 1040 l 331 1184 z "},"ű":{"ha":836,"x_min":76,"x_max":866,"o":"m 782 773 l 678 0 l 509 0 l 518 139 q 403 29 470 72 q 260 -14 336 -14 q 124 31 172 -14 q 76 176 76 76 q 81 252 76 208 q 95 370 85 295 q 125 586 106 448 q 151 773 144 724 l 337 773 q 334 755 336 760 q 307 549 326 692 q 283 368 288 405 q 268 208 268 256 q 286 149 268 166 q 337 131 303 131 q 435 175 382 131 q 528 283 488 220 l 595 773 l 782 773 m 429 1177 l 549 1090 q 498 1000 536 1053 q 415 901 460 947 q 338 838 371 854 l 259 884 l 429 1177 m 744 1177 l 866 1088 q 812 999 854 1053 q 723 898 771 945 q 645 838 675 851 l 569 884 l 744 1177 z "},"ū":{"ha":836,"x_min":76,"x_max":782,"o":"m 782 773 l 678 0 l 509 0 l 518 139 q 403 29 470 72 q 260 -14 336 -14 q 124 31 172 -14 q 76 176 76 76 q 81 252 76 208 q 95 370 85 295 q 125 586 106 448 q 151 773 144 724 l 337 773 q 334 755 336 760 q 307 549 326 692 q 283 368 288 405 q 268 208 268 256 q 286 149 268 166 q 337 131 303 131 q 435 175 382 131 q 528 283 488 220 l 595 773 l 782 773 m 677 1082 l 669 961 l 301 961 l 309 1082 l 677 1082 z "},"ų":{"ha":839,"x_min":76,"x_max":782,"o":"m 559 -191 q 605 -183 583 -191 q 654 -154 627 -174 l 686 -247 q 603 -300 652 -280 q 491 -321 553 -321 q 417 -304 448 -321 q 370 -260 386 -287 q 353 -203 353 -233 q 383 -118 353 -159 q 453 -48 413 -78 q 531 0 494 -18 l 509 0 l 518 139 q 403 29 470 72 q 260 -14 336 -14 q 124 31 172 -14 q 76 176 76 76 q 81 252 76 208 q 95 370 85 295 q 125 586 106 448 q 151 773 144 724 l 337 773 q 334 755 336 760 q 307 549 326 692 q 283 368 288 405 q 268 208 268 256 q 286 149 268 166 q 337 131 303 131 q 435 175 382 131 q 528 283 488 220 l 595 773 l 782 773 l 678 0 l 668 0 q 561 -72 606 -32 q 515 -144 515 -112 q 527 -181 515 -170 q 559 -191 540 -191 z "},"ů":{"ha":836,"x_min":76,"x_max":782,"o":"m 299 1020 q 337 1131 299 1086 q 433 1197 375 1176 q 549 1217 490 1217 q 692 1173 639 1217 q 746 1047 746 1129 q 712 939 746 983 q 622 872 677 894 q 503 850 566 850 q 353 894 407 850 q 299 1020 299 939 m 632 1044 q 604 1108 632 1082 q 535 1133 576 1133 q 449 1108 485 1133 q 412 1026 412 1083 q 426 980 412 1001 q 462 947 439 959 q 511 935 485 935 q 632 1044 632 935 m 782 773 l 678 0 l 509 0 l 518 139 q 403 29 470 72 q 260 -14 336 -14 q 124 31 172 -14 q 76 176 76 76 q 81 252 76 208 q 95 370 85 295 q 125 586 106 448 q 151 773 144 724 l 337 773 q 334 755 336 760 q 307 549 326 692 q 283 368 288 405 q 268 208 268 256 q 286 149 268 166 q 337 131 303 131 q 435 175 382 131 q 528 283 488 220 l 595 773 l 782 773 z "},"ũ":{"ha":836,"x_min":76,"x_max":785,"o":"m 782 773 l 678 0 l 509 0 l 518 139 q 403 29 470 72 q 260 -14 336 -14 q 124 31 172 -14 q 76 176 76 76 q 81 252 76 208 q 95 370 85 295 q 125 586 106 448 q 151 773 144 724 l 337 773 q 334 755 336 760 q 307 549 326 692 q 283 368 288 405 q 268 208 268 256 q 286 149 268 166 q 337 131 303 131 q 435 175 382 131 q 528 283 488 220 l 595 773 l 782 773 m 213 1013 q 261 1071 228 1042 q 335 1118 295 1100 q 411 1137 376 1137 q 462 1128 439 1137 q 500 1108 484 1120 q 536 1078 515 1097 q 574 1047 559 1057 q 610 1037 590 1037 q 662 1053 642 1037 q 697 1088 683 1069 q 716 1112 712 1106 l 785 1032 q 742 968 773 999 q 671 918 711 937 q 593 899 631 899 q 538 907 562 899 q 500 927 515 916 q 465 956 484 938 q 423 988 441 978 q 380 999 406 999 q 341 990 359 999 q 311 970 324 982 q 279 938 298 959 l 213 1013 z "},"v":{"ha":728,"x_min":66,"x_max":713,"o":"m 66 773 l 259 773 l 303 283 l 311 146 l 376 232 q 460 391 428 314 q 513 567 493 467 q 528 672 520 606 q 534 773 535 739 l 709 773 q 711 748 709 768 q 713 701 713 728 l 712 674 q 663 456 708 566 q 548 247 618 346 q 391 65 477 148 l 330 -5 l 176 -13 l 138 242 l 66 773 z "},"w":{"ha":1162,"x_min":68,"x_max":1138,"o":"m 1135 773 q 1138 711 1138 734 l 1137 680 q 1044 357 1131 517 q 817 63 957 197 l 758 -5 l 611 -13 l 572 242 l 564 315 q 391 65 488 164 l 332 -5 l 180 -13 l 142 242 l 68 773 l 264 773 l 309 283 l 316 142 l 382 232 q 530 587 496 414 l 507 773 l 696 773 l 737 283 l 745 142 l 810 230 q 893 390 861 312 q 941 567 924 467 q 957 677 949 614 q 962 773 964 740 l 1135 773 z "},"ẃ":{"ha":1162,"x_min":68,"x_max":1138,"o":"m 777 1183 l 899 1068 q 836 994 887 1044 q 727 898 785 943 q 630 837 668 852 l 559 895 l 777 1183 m 1135 773 q 1138 711 1138 734 l 1137 680 q 1044 357 1131 517 q 817 63 957 197 l 758 -5 l 611 -13 l 572 242 l 564 315 q 391 65 488 164 l 332 -5 l 180 -13 l 142 242 l 68 773 l 264 773 l 309 283 l 316 142 l 382 232 q 530 587 496 414 l 507 773 l 696 773 l 737 283 l 745 142 l 810 230 q 893 390 861 312 q 941 567 924 467 q 957 677 949 614 q 962 773 964 740 l 1135 773 z "},"ŵ":{"ha":1162,"x_min":68,"x_max":1138,"o":"m 627 1126 l 749 1126 l 885 872 l 801 826 l 668 975 l 464 823 l 391 872 l 627 1126 m 1135 773 q 1138 711 1138 734 l 1137 680 q 1044 357 1131 517 q 817 63 957 197 l 758 -5 l 611 -13 l 572 242 l 564 315 q 391 65 488 164 l 332 -5 l 180 -13 l 142 242 l 68 773 l 264 773 l 309 283 l 316 142 l 382 232 q 530 587 496 414 l 507 773 l 696 773 l 737 283 l 745 142 l 810 230 q 893 390 861 312 q 941 567 924 467 q 957 677 949 614 q 962 773 964 740 l 1135 773 z "},"ẅ":{"ha":1162,"x_min":68,"x_max":1138,"o":"m 404 1019 q 418 1078 404 1050 q 458 1121 433 1105 q 515 1137 484 1137 q 564 1124 543 1137 q 597 1090 585 1111 q 609 1046 609 1069 q 595 985 609 1013 q 554 941 581 958 q 493 924 528 924 q 449 938 470 924 q 416 973 429 951 q 404 1019 404 995 m 707 1019 q 721 1078 707 1050 q 761 1121 735 1105 q 817 1137 786 1137 q 867 1124 845 1137 q 900 1090 888 1111 q 912 1046 912 1069 q 898 985 912 1013 q 857 941 884 958 q 795 924 830 924 q 751 938 772 924 q 719 972 731 951 q 707 1019 707 994 m 1135 773 q 1138 711 1138 734 l 1137 680 q 1044 357 1131 517 q 817 63 957 197 l 758 -5 l 611 -13 l 572 242 l 564 315 q 391 65 488 164 l 332 -5 l 180 -13 l 142 242 l 68 773 l 264 773 l 309 283 l 316 142 l 382 232 q 530 587 496 414 l 507 773 l 696 773 l 737 283 l 745 142 l 810 230 q 893 390 861 312 q 941 567 924 467 q 957 677 949 614 q 962 773 964 740 l 1135 773 z "},"ẁ":{"ha":1162,"x_min":68,"x_max":1138,"o":"m 1135 773 q 1138 711 1138 734 l 1137 680 q 1044 357 1131 517 q 817 63 957 197 l 758 -5 l 611 -13 l 572 242 l 564 315 q 391 65 488 164 l 332 -5 l 180 -13 l 142 242 l 68 773 l 264 773 l 309 283 l 316 142 l 382 232 q 530 587 496 414 l 507 773 l 696 773 l 737 283 l 745 142 l 810 230 q 893 390 861 312 q 941 567 924 467 q 957 677 949 614 q 962 773 964 740 l 1135 773 m 483 1184 l 694 895 l 623 838 q 534 895 590 851 q 427 989 477 939 q 360 1069 376 1040 l 483 1184 z "},"x":{"ha":680,"x_min":-54,"x_max":717,"o":"m 430 381 l 633 1 l 417 1 l 310 260 l 142 1 l -54 1 l 244 405 l 56 773 l 273 773 l 366 527 l 524 773 l 717 773 l 430 381 z "},"y":{"ha":743,"x_min":-98,"x_max":713,"o":"m 711 773 q 713 718 713 754 q 712 676 713 691 q 577 191 704 452 q 401 -102 501 28 l 383 -126 q 287 -242 329 -199 q 184 -315 245 -286 q 39 -345 123 -345 q -33 -335 5 -345 q -98 -311 -70 -325 l -48 -173 q -3 -195 -28 -185 q 52 -204 23 -204 q 131 -187 94 -204 q 209 -128 168 -170 q 299 -12 249 -87 l 188 -12 l 147 242 l 71 773 l 264 773 l 317 276 l 342 65 q 417 230 400 176 q 496 435 471 334 q 534 673 522 535 q 536 753 536 710 q 537 773 537 760 l 711 773 z "},"ý":{"ha":743,"x_min":-98,"x_max":713,"o":"m 711 773 q 713 718 713 754 q 712 676 713 691 q 577 191 704 452 q 401 -102 501 28 l 383 -126 q 287 -242 329 -199 q 184 -315 245 -286 q 39 -345 123 -345 q -33 -335 5 -345 q -98 -311 -70 -325 l -48 -173 q -3 -195 -28 -185 q 52 -204 23 -204 q 131 -187 94 -204 q 209 -128 168 -170 q 299 -12 249 -87 l 188 -12 l 147 242 l 71 773 l 264 773 l 317 276 l 342 65 q 417 230 400 176 q 496 435 471 334 q 534 673 522 535 q 536 753 536 710 q 537 773 537 760 l 711 773 m 533 1184 l 655 1069 q 592 995 643 1046 q 483 899 541 945 q 386 838 424 853 l 315 896 l 533 1184 z "},"ŷ":{"ha":743,"x_min":-98,"x_max":713,"o":"m 711 773 q 713 718 713 754 q 712 676 713 691 q 577 191 704 452 q 401 -102 501 28 l 383 -126 q 287 -242 329 -199 q 184 -315 245 -286 q 39 -345 123 -345 q -33 -335 5 -345 q -98 -311 -70 -325 l -48 -173 q -3 -195 -28 -185 q 52 -204 23 -204 q 131 -187 94 -204 q 209 -128 168 -170 q 299 -12 249 -87 l 188 -12 l 147 242 l 71 773 l 264 773 l 317 276 l 342 65 q 417 230 400 176 q 496 435 471 334 q 534 673 522 535 q 536 753 536 710 q 537 773 537 760 l 711 773 m 384 1127 l 505 1127 l 642 873 l 557 827 l 425 976 l 220 825 l 147 873 l 384 1127 z "},"ÿ":{"ha":743,"x_min":-98,"x_max":713,"o":"m 711 773 q 713 718 713 754 q 712 676 713 691 q 577 191 704 452 q 401 -102 501 28 l 383 -126 q 287 -242 329 -199 q 184 -315 245 -286 q 39 -345 123 -345 q -33 -335 5 -345 q -98 -311 -70 -325 l -48 -173 q -3 -195 -28 -185 q 52 -204 23 -204 q 131 -187 94 -204 q 209 -128 168 -170 q 299 -12 249 -87 l 188 -12 l 147 242 l 71 773 l 264 773 l 317 276 l 342 65 q 417 230 400 176 q 496 435 471 334 q 534 673 522 535 q 536 753 536 710 q 537 773 537 760 l 711 773 m 160 1020 q 175 1079 160 1052 q 215 1122 189 1106 q 271 1138 240 1138 q 320 1125 299 1138 q 354 1092 342 1112 q 366 1047 366 1071 q 351 987 366 1015 q 311 942 337 959 q 250 926 284 926 q 206 939 227 926 q 173 974 185 952 q 160 1020 160 996 m 463 1020 q 477 1079 463 1052 q 517 1122 492 1106 q 574 1138 543 1138 q 623 1125 602 1138 q 657 1092 645 1112 q 669 1047 669 1071 q 654 987 669 1015 q 613 942 640 959 q 552 926 587 926 q 508 939 528 926 q 475 974 488 952 q 463 1020 463 996 z "},"ẏ":{"ha":743,"x_min":-98,"x_max":713,"o":"m 711 773 q 713 718 713 754 q 712 676 713 691 q 577 191 704 452 q 401 -102 501 28 l 383 -126 q 287 -242 329 -199 q 184 -315 245 -286 q 39 -345 123 -345 q -33 -335 5 -345 q -98 -311 -70 -325 l -48 -173 q -3 -195 -28 -185 q 52 -204 23 -204 q 131 -187 94 -204 q 209 -128 168 -170 q 299 -12 249 -87 l 188 -12 l 147 242 l 71 773 l 264 773 l 317 276 l 342 65 q 417 230 400 176 q 496 435 471 334 q 534 673 522 535 q 536 753 536 710 q 537 773 537 760 l 711 773 m 309 1011 q 325 1070 309 1043 q 369 1115 341 1098 q 429 1131 396 1131 q 483 1119 459 1131 q 518 1085 506 1106 q 531 1039 531 1064 q 515 978 531 1006 q 471 934 500 950 q 406 918 442 918 q 358 930 380 918 q 322 964 336 943 q 309 1011 309 985 z "},"ỳ":{"ha":743,"x_min":-98,"x_max":713,"o":"m 711 773 q 713 718 713 754 q 712 676 713 691 q 577 191 704 452 q 401 -102 501 28 l 383 -126 q 287 -242 329 -199 q 184 -315 245 -286 q 39 -345 123 -345 q -33 -335 5 -345 q -98 -311 -70 -325 l -48 -173 q -3 -195 -28 -185 q 52 -204 23 -204 q 131 -187 94 -204 q 209 -128 168 -170 q 299 -12 249 -87 l 188 -12 l 147 242 l 71 773 l 264 773 l 317 276 l 342 65 q 417 230 400 176 q 496 435 471 334 q 534 673 522 535 q 536 753 536 710 q 537 773 537 760 l 711 773 m 239 1184 l 450 895 l 379 838 q 290 895 346 851 q 183 989 233 939 q 116 1069 132 1040 l 239 1184 z "},"z":{"ha":661,"x_min":-25,"x_max":675,"o":"m 221 145 l 583 145 l 568 0 l 7 0 l -25 35 l 359 559 l 435 630 l 104 630 l 123 773 l 648 773 l 675 741 l 288 207 l 221 145 z "},"ź":{"ha":661,"x_min":-25,"x_max":678,"o":"m 556 1183 l 678 1068 q 615 994 666 1044 q 506 898 564 943 q 409 837 447 852 l 338 895 l 556 1183 m 221 145 l 583 145 l 568 0 l 7 0 l -25 35 l 359 559 l 435 630 l 104 630 l 123 773 l 648 773 l 675 741 l 288 207 l 221 145 z "},"ž":{"ha":661,"x_min":-25,"x_max":696,"o":"m 261 1126 l 419 979 l 618 1126 l 696 1074 l 464 842 l 343 842 l 189 1073 l 261 1126 m 221 145 l 583 145 l 568 0 l 7 0 l -25 35 l 359 559 l 435 630 l 104 630 l 123 773 l 648 773 l 675 741 l 288 207 l 221 145 z "},"ż":{"ha":661,"x_min":-25,"x_max":675,"o":"m 221 145 l 583 145 l 568 0 l 7 0 l -25 35 l 359 559 l 435 630 l 104 630 l 123 773 l 648 773 l 675 741 l 288 207 l 221 145 m 332 1011 q 348 1070 332 1043 q 392 1115 364 1098 q 452 1131 419 1131 q 506 1119 482 1131 q 542 1085 529 1106 q 554 1039 554 1064 q 538 978 554 1006 q 494 934 523 950 q 429 918 465 918 q 381 930 403 918 q 346 964 359 943 q 332 1011 332 985 z "},"ﬁ":{"ha":918,"x_min":87,"x_max":920,"o":"m 87 647 l 111 773 l 193 773 l 204 841 q 257 996 216 929 q 362 1100 297 1063 q 513 1137 428 1137 q 625 1119 584 1137 l 587 984 q 553 1003 574 994 q 505 1011 532 1011 q 431 978 460 1011 q 392 878 402 944 l 376 773 l 511 773 l 498 647 l 360 647 l 272 0 l 87 0 l 176 647 l 87 647 m 858 773 l 751 0 l 564 0 l 670 773 l 858 773 m 698 1011 q 714 1070 698 1043 q 757 1115 730 1098 q 818 1131 785 1131 q 871 1119 848 1131 q 907 1085 895 1106 q 920 1039 920 1064 q 904 978 920 1006 q 860 934 888 950 q 794 918 831 918 q 746 930 768 918 q 711 964 724 943 q 698 1011 698 985 z "},"ﬂ":{"ha":919,"x_min":87,"x_max":904,"o":"m 87 647 l 111 773 l 193 773 l 204 841 q 257 996 216 929 q 362 1100 297 1063 q 513 1137 428 1137 q 625 1119 584 1137 l 587 984 q 553 1003 574 994 q 505 1011 532 1011 q 431 978 460 1011 q 392 878 402 944 l 376 773 l 511 773 l 498 647 l 360 647 l 272 0 l 87 0 l 176 647 l 87 647 m 904 1109 l 753 1 l 566 1 l 716 1109 l 904 1109 z "},"ª":{"ha":616,"x_min":63,"x_max":652,"o":"m 652 1067 l 549 498 l 418 498 l 421 591 q 335 524 382 549 q 233 498 288 498 q 107 550 151 498 q 63 691 63 602 q 112 874 63 787 q 247 1016 161 962 q 437 1069 333 1069 q 504 1064 469 1069 q 565 1049 540 1058 l 652 1067 m 298 603 q 359 627 326 603 q 422 688 392 650 l 477 974 q 427 986 454 986 q 317 941 363 986 q 247 831 271 897 q 224 707 224 766 q 240 629 224 654 q 298 603 256 603 z "},"º":{"ha":610,"x_min":67,"x_max":633,"o":"m 67 738 q 114 919 67 842 q 235 1037 160 996 q 392 1078 310 1078 q 518 1047 463 1078 q 603 961 572 1017 q 633 830 633 905 q 587 648 633 724 q 467 531 542 571 q 304 492 392 492 q 186 522 240 492 q 99 607 132 551 q 67 738 67 663 m 471 828 q 449 943 471 903 q 381 983 428 983 q 292 944 326 983 q 243 851 258 905 q 228 746 228 796 q 251 632 228 674 q 315 591 274 591 q 436 663 402 591 q 471 828 471 735 z "},"Δ":{"ha":954,"x_min":-30,"x_max":897,"o":"m 511 1023 l 897 18 l 885 0 l -22 0 l -30 15 l 489 1023 l 511 1023 m 479 668 l 229 155 l 665 155 l 479 668 z "},"Ω":{"ha":1125,"x_min":43,"x_max":1044,"o":"m 1044 635 q 1016 465 1044 555 q 934 288 987 374 q 808 140 880 203 l 1036 140 l 1023 0 l 632 0 l 602 111 q 733 226 673 149 q 828 402 793 303 q 863 602 863 501 q 824 772 863 705 q 724 871 785 840 q 597 902 663 902 q 438 863 508 902 q 329 740 369 824 q 288 525 288 655 q 314 354 288 439 q 380 203 339 269 q 463 111 420 138 l 419 0 l 43 0 l 60 137 l 286 137 q 197 252 237 186 q 135 393 158 317 q 113 542 113 468 q 174 825 113 711 q 348 993 235 938 q 616 1048 461 1048 q 835 1000 738 1048 q 988 857 932 951 q 1044 635 1044 764 z "},"μ":{"ha":925,"x_min":58,"x_max":886,"o":"m 58 -252 l 176 560 q 178 591 178 576 q 173 624 178 612 q 159 637 168 637 q 127 628 142 637 q 97 603 113 618 l 59 698 q 98 730 69 709 q 168 767 126 750 q 257 783 210 783 q 341 755 308 783 q 374 671 374 727 q 372 646 374 655 q 347 446 363 572 q 323 265 330 319 q 321 236 321 249 q 346 158 321 181 q 410 135 370 135 q 467 152 435 135 q 524 196 498 168 q 561 252 549 223 l 629 773 l 814 773 l 739 175 q 738 161 738 170 q 745 130 738 142 q 761 119 751 119 q 799 132 779 119 q 838 168 819 145 l 886 86 q 841 42 863 62 q 780 5 818 22 q 693 -12 741 -12 q 574 83 588 -12 q 496 12 536 35 q 391 -12 455 -12 q 327 1 363 -12 q 278 39 291 14 l 235 -252 l 58 -252 z "},"π":{"ha":1072,"x_min":41,"x_max":1029,"o":"m 818 134 q 877 160 847 134 q 930 220 906 186 l 1004 159 q 954 78 990 117 q 863 14 917 39 q 745 -11 808 -11 q 634 30 672 -11 q 595 147 595 71 q 597 186 595 165 l 649 612 l 457 612 l 426 283 q 409 166 422 211 q 377 95 397 122 q 321 35 357 67 q 269 4 299 17 q 202 -14 239 -9 l 87 79 q 118 91 98 81 q 158 115 138 101 q 211 175 193 142 q 238 244 230 208 q 252 333 246 280 l 294 612 l 254 612 q 182 597 210 612 q 128 555 155 583 l 41 595 q 115 728 54 683 q 278 773 177 773 l 819 773 q 883 785 861 773 q 914 824 905 797 l 1029 824 q 973 662 1024 711 q 817 612 922 612 l 806 612 l 775 210 q 818 134 772 134 z "},"⁄":{"ha":696,"x_min":75,"x_max":678,"o":"m 678 1038 l 216 0 l 75 0 l 536 1038 l 678 1038 z "},"½":{"ha":1736,"x_min":210,"x_max":1546,"o":"m 946 8 q 1115 116 1015 44 q 1289 267 1214 187 q 1364 408 1364 347 q 1337 478 1364 456 q 1261 500 1309 500 q 1149 479 1200 500 q 1061 420 1098 457 l 999 501 q 1065 561 1020 530 q 1170 612 1109 591 q 1295 632 1231 632 q 1430 607 1373 632 q 1517 539 1487 582 q 1546 446 1546 497 q 1455 231 1546 335 q 1204 34 1363 126 l 1546 54 l 1537 -83 l 986 -83 l 946 8 m 217 899 l 210 994 q 315 1029 255 1006 q 425 1077 374 1053 q 492 1116 475 1101 l 573 1101 l 477 401 l 311 401 l 384 935 l 217 899 m 1089 1038 l 627 0 l 486 0 l 947 1038 l 1089 1038 z "},"¼":{"ha":1736,"x_min":210,"x_max":1587,"o":"m 1572 75 l 1417 75 l 1389 -140 l 1226 -140 l 1256 75 l 909 75 l 876 151 l 1267 753 l 1307 754 l 1424 684 l 1107 250 l 1057 190 l 1273 198 l 1297 368 l 1456 384 l 1433 204 l 1587 210 l 1572 75 m 217 899 l 210 994 q 315 1029 255 1006 q 425 1077 374 1053 q 492 1116 475 1101 l 573 1101 l 477 401 l 311 401 l 384 935 l 217 899 m 1090 1038 l 628 0 l 486 0 l 948 1038 l 1090 1038 z "},"¾":{"ha":1736,"x_min":61,"x_max":1587,"o":"m 1572 75 l 1417 75 l 1389 -140 l 1226 -140 l 1256 75 l 909 75 l 876 151 l 1267 753 l 1307 754 l 1424 684 l 1107 250 l 1057 190 l 1273 198 l 1297 368 l 1456 384 l 1433 204 l 1587 210 l 1572 75 m 81 517 q 157 490 111 500 q 245 480 202 480 q 343 494 296 480 q 421 537 390 507 q 452 615 452 568 q 427 680 454 656 q 356 705 401 704 l 221 673 l 240 793 q 389 849 338 816 q 440 937 440 882 q 417 987 440 967 q 347 1008 395 1008 q 177 953 256 1008 l 136 1052 q 263 1113 193 1092 q 407 1134 333 1134 q 530 1112 481 1134 q 602 1056 579 1090 q 624 983 624 1021 q 583 859 624 911 q 471 779 543 806 q 592 726 556 773 q 629 618 629 678 q 580 481 629 538 q 452 394 532 423 q 282 364 373 364 q 162 378 227 364 q 61 416 98 393 l 81 517 m 1089 1038 l 627 0 l 486 0 l 947 1038 l 1089 1038 z "},"¹":{"ha":692,"x_min":190,"x_max":553,"o":"m 197 899 l 190 994 q 294 1029 235 1006 q 404 1077 354 1053 q 472 1116 454 1101 l 553 1101 l 457 401 l 291 401 l 363 935 l 197 899 z "},"²":{"ha":789,"x_min":109,"x_max":709,"o":"m 109 493 q 278 601 178 529 q 452 752 377 672 q 528 893 528 832 q 500 963 528 941 q 424 985 472 985 q 312 964 363 985 q 224 905 261 942 l 162 986 q 228 1046 183 1015 q 333 1097 273 1076 q 458 1117 394 1117 q 593 1092 536 1117 q 680 1024 650 1067 q 709 931 709 982 q 618 715 709 820 q 367 519 526 611 l 709 538 l 701 401 l 149 401 l 109 493 z "},"³":{"ha":726,"x_min":80,"x_max":648,"o":"m 100 498 q 176 471 130 481 q 264 461 221 461 q 362 475 315 461 q 440 518 409 488 q 471 596 471 549 q 446 661 473 637 q 375 686 420 685 l 240 654 l 259 774 q 408 830 357 797 q 459 918 459 863 q 436 968 459 948 q 366 989 414 989 q 196 934 275 989 l 155 1033 q 282 1094 212 1073 q 426 1115 352 1115 q 549 1093 500 1115 q 621 1037 598 1071 q 643 964 643 1002 q 602 840 643 892 q 490 760 562 787 q 611 707 575 754 q 648 599 648 659 q 599 462 648 519 q 471 375 551 404 q 301 345 392 345 q 181 359 245 345 q 80 397 117 374 l 100 498 z "},"⁴":{"ha":833,"x_min":62,"x_max":774,"o":"m 759 515 l 604 515 l 576 299 l 413 299 l 443 515 l 96 515 l 62 591 l 454 1193 l 494 1194 l 611 1123 l 294 690 l 244 629 l 460 637 l 484 808 l 643 823 l 620 644 l 774 650 l 759 515 z "},"*":{"ha":926,"x_min":130,"x_max":861,"o":"m 336 745 l 428 780 l 343 814 l 155 899 l 238 1025 l 399 899 l 467 839 l 463 933 l 460 1144 l 606 1144 l 560 933 l 534 839 l 616 899 l 802 1026 l 861 899 l 656 814 l 564 779 l 649 745 l 837 662 l 747 535 l 591 661 l 522 723 l 530 627 l 534 416 l 385 416 l 431 627 l 454 723 l 376 661 l 193 534 l 130 662 l 336 745 z "},"\\":{"ha":579,"x_min":11,"x_max":552,"o":"m 161 1083 l 11 1083 l 401 -245 l 552 -245 l 161 1083 z "},"·":{"ha":465,"x_min":121,"x_max":340,"o":"m 245 637 q 317 613 294 637 q 340 549 340 588 q 306 455 340 490 q 214 420 271 420 q 147 446 173 420 q 121 511 121 471 q 137 573 121 544 q 180 620 152 602 q 245 637 208 637 z "},"•":{"ha":582,"x_min":158,"x_max":448,"o":"m 158 463 q 181 545 158 504 q 243 611 203 585 q 328 637 282 637 q 389 622 362 637 q 432 580 416 606 q 448 520 448 553 q 426 438 448 479 q 366 370 405 397 q 277 344 327 344 q 217 360 244 344 q 174 403 189 376 q 158 463 158 431 z "},":":{"ha":357,"x_min":26,"x_max":308,"o":"m 150 199 q 222 175 199 199 q 245 111 245 150 q 211 17 245 52 q 119 -18 176 -18 q 52 7 78 -18 q 26 73 26 33 q 42 135 26 106 q 85 182 57 164 q 150 199 113 199 m 213 748 q 285 723 262 748 q 308 660 308 699 q 274 566 308 601 q 182 531 239 531 q 115 556 141 531 q 90 621 90 581 q 105 684 90 654 q 148 730 120 713 q 213 748 176 748 z "},",":{"ha":357,"x_min":-15,"x_max":263,"o":"m 41 83 l 130 190 q 208 135 178 172 q 251 57 238 99 q 263 -24 263 15 q 236 -164 263 -99 q 158 -276 208 -229 q 41 -346 108 -323 l -15 -273 l -13 -258 q 67 -183 37 -233 q 98 -77 98 -132 q 81 2 98 -33 q 37 46 63 37 l 41 83 z "},"…":{"ha":1071,"x_min":40,"x_max":973,"o":"m 164 199 q 236 176 213 199 q 260 113 260 152 q 243 45 260 75 q 196 -1 226 16 q 130 -18 166 -18 q 65 6 90 -18 q 40 69 40 30 q 56 134 40 104 q 101 181 73 163 q 164 199 129 199 m 521 199 q 593 176 570 199 q 616 113 616 152 q 600 45 616 75 q 553 -1 583 16 q 487 -18 523 -18 q 421 6 446 -18 q 397 69 397 30 q 413 134 397 104 q 457 181 429 163 q 521 199 486 199 m 878 199 q 950 176 926 199 q 973 113 973 152 q 956 45 973 75 q 909 -1 939 16 q 844 -18 880 -18 q 778 6 803 -18 q 753 69 753 30 q 770 134 753 104 q 814 181 786 163 q 878 199 842 199 z "},"!":{"ha":465,"x_min":77,"x_max":451,"o":"m 451 1206 l 293 331 l 152 331 l 251 1206 l 451 1206 m 208 199 q 279 176 256 199 q 302 113 302 152 q 285 45 302 75 q 238 -1 268 16 q 170 -18 208 -18 q 103 6 129 -18 q 77 70 77 31 q 94 134 77 104 q 141 182 111 164 q 208 199 171 199 z "},"‼":{"ha":884,"x_min":77,"x_max":870,"o":"m 870 1206 l 712 331 l 571 331 l 670 1206 l 870 1206 m 627 199 q 699 176 675 199 q 722 113 722 152 q 704 45 722 75 q 657 -1 687 16 q 589 -18 627 -18 q 522 6 548 -18 q 496 70 496 31 q 513 134 496 104 q 560 182 530 164 q 627 199 590 199 m 451 1206 l 293 331 l 152 331 l 251 1206 l 451 1206 m 208 199 q 279 176 256 199 q 302 113 302 152 q 285 45 302 75 q 238 -1 268 16 q 170 -18 208 -18 q 103 6 129 -18 q 77 70 77 31 q 94 134 77 104 q 141 182 111 164 q 208 199 171 199 z "},"¡":{"ha":465,"x_min":37,"x_max":412,"o":"m 281 712 q 209 736 232 712 q 186 798 186 760 q 203 866 186 837 q 250 912 220 896 q 318 929 280 929 q 386 905 359 929 q 412 842 412 881 q 394 777 412 807 q 347 730 377 747 q 281 712 317 712 m 37 -294 l 195 581 l 336 581 l 237 -294 l 37 -294 z "},"#":{"ha":953,"x_min":75,"x_max":888,"o":"m 75 233 l 84 353 l 224 353 l 262 593 l 127 593 l 136 711 l 279 711 l 313 920 l 452 920 l 420 711 l 604 711 l 640 920 l 779 920 l 744 711 l 888 711 l 879 593 l 727 593 l 688 353 l 828 353 l 819 233 l 670 233 l 632 0 l 496 0 l 530 233 l 346 233 l 304 0 l 168 0 l 206 233 l 75 233 m 587 593 l 403 593 l 363 353 l 548 353 l 587 593 z "},".":{"ha":357,"x_min":41,"x_max":259,"o":"m 164 199 q 236 175 213 199 q 259 111 259 150 q 225 17 259 52 q 134 -18 191 -18 q 66 7 92 -18 q 41 73 41 33 q 56 135 41 106 q 99 182 71 164 q 164 199 127 199 z "},"?":{"ha":705,"x_min":168,"x_max":707,"o":"m 168 475 q 185 549 168 515 q 243 613 203 582 q 351 680 283 645 q 526 815 504 753 q 533 851 530 830 q 536 891 536 873 q 508 982 536 943 q 429 1043 479 1021 q 320 1064 380 1064 q 246 1060 279 1064 q 176 1045 214 1056 l 205 1171 q 263 1196 221 1185 q 347 1206 305 1206 q 550 1167 469 1206 q 669 1062 631 1128 q 707 914 707 996 q 672 767 707 827 q 590 672 637 707 q 467 596 543 637 q 388 550 416 568 q 341 507 359 532 q 322 449 322 481 q 328 416 322 433 q 342 377 333 399 q 351 353 350 360 l 252 314 l 240 315 q 190 383 212 336 q 168 475 168 429 m 348 199 q 420 175 397 199 q 443 111 443 150 q 409 17 443 52 q 317 -18 374 -18 q 250 7 276 -18 q 224 73 224 33 q 240 135 224 106 q 283 182 255 164 q 348 199 311 199 z "},"¿":{"ha":711,"x_min":45,"x_max":585,"o":"m 309 855 q 343 948 309 913 q 435 983 378 983 q 502 958 476 983 q 528 894 528 933 q 512 831 528 860 q 469 784 497 802 q 404 766 441 766 q 332 791 355 766 q 309 855 309 816 m 432 -98 q 506 -94 473 -98 q 576 -79 538 -90 l 547 -205 q 489 -230 531 -220 q 406 -241 447 -241 q 201 -201 282 -241 q 83 -96 121 -162 q 45 52 45 -30 q 80 199 45 140 q 162 294 114 259 q 285 370 210 330 q 364 416 336 397 q 411 459 393 434 q 430 517 430 485 q 425 550 430 534 q 410 589 419 566 q 401 612 402 606 l 500 652 l 512 651 q 563 583 541 629 q 585 492 585 537 q 567 418 585 451 q 509 353 549 385 q 401 286 469 321 q 227 151 248 214 q 219 115 222 136 q 216 75 216 94 q 244 -16 216 24 q 323 -77 273 -56 q 432 -98 372 -98 z "},"\"":{"ha":724,"x_min":149,"x_max":747,"o":"m 392 1144 l 274 655 l 149 655 l 204 1144 l 392 1144 m 747 1144 l 629 655 l 505 655 l 559 1144 l 747 1144 z "},"'":{"ha":369,"x_min":149,"x_max":392,"o":"m 392 1144 l 274 655 l 149 655 l 204 1144 l 392 1144 z "},";":{"ha":357,"x_min":-15,"x_max":310,"o":"m 41 83 l 130 190 q 208 135 178 172 q 251 57 238 99 q 263 -24 263 15 q 236 -164 263 -99 q 158 -276 208 -229 q 41 -346 108 -323 l -15 -273 l -13 -258 q 67 -183 37 -233 q 98 -77 98 -132 q 81 2 98 -33 q 37 46 63 37 l 41 83 m 215 748 q 287 723 264 748 q 310 660 310 699 q 276 566 310 601 q 184 531 241 531 q 117 556 143 531 q 92 621 92 581 q 107 684 92 654 q 150 730 122 713 q 215 748 178 748 z "},"/":{"ha":579,"x_min":-80,"x_max":656,"o":"m 505 1083 l 656 1083 l 71 -245 l -80 -245 l 505 1083 z "},"_":{"ha":905,"x_min":-75,"x_max":873,"o":"m 859 -246 l -75 -246 l -62 -127 l 873 -127 l 859 -246 z "},"{":{"ha":694,"x_min":72,"x_max":695,"o":"m 219 382 q 210 407 219 393 q 184 431 200 420 q 72 473 146 456 l 89 584 q 168 605 140 597 q 219 625 196 612 q 249 647 237 634 q 263 671 261 659 l 319 1029 q 349 1135 330 1097 q 403 1187 369 1172 q 495 1203 437 1203 q 570 1195 525 1203 q 650 1179 614 1187 q 695 1168 685 1171 q 688 1125 693 1155 q 680 1078 683 1095 l 493 1078 l 429 654 q 410 610 425 629 q 366 574 395 592 q 308 549 353 566 q 247 525 262 531 l 275 511 q 328 482 307 494 q 359 460 349 470 q 381 432 374 445 q 389 401 389 418 q 387 386 389 397 l 324 -29 l 511 -29 q 504 -75 508 -47 q 499 -115 500 -102 q 390 -145 441 -134 q 282 -157 339 -157 q 186 -131 214 -157 q 159 -47 158 -104 q 184 141 159 -35 q 219 382 210 317 z "},"}":{"ha":694,"x_min":33,"x_max":656,"o":"m 509 667 q 518 642 509 655 q 544 618 528 629 q 656 575 581 593 l 639 465 q 559 444 587 452 q 509 424 532 436 q 478 402 490 414 q 465 378 467 389 l 409 20 q 378 -86 398 -49 q 325 -139 359 -123 q 233 -155 290 -155 q 158 -147 203 -155 q 78 -131 113 -139 q 33 -119 43 -122 q 40 -77 35 -106 q 47 -30 45 -47 l 235 -30 l 299 394 q 318 438 303 420 q 362 475 333 456 q 420 500 374 482 q 481 524 465 517 l 453 538 q 400 566 421 554 q 368 589 378 578 q 346 617 353 604 q 339 648 339 630 q 340 663 339 652 l 404 1078 l 217 1078 q 223 1123 220 1095 q 229 1163 227 1151 q 338 1194 287 1183 q 446 1205 389 1205 q 542 1179 513 1205 q 569 1096 570 1153 q 543 907 568 1084 q 509 667 518 731 z "},"[":{"ha":579,"x_min":105,"x_max":612,"o":"m 247 1016 q 274 1123 256 1083 q 325 1181 292 1162 q 412 1200 358 1200 q 490 1193 446 1200 q 568 1178 534 1185 q 612 1168 602 1171 l 598 1079 l 418 1079 l 271 -29 l 450 -30 q 445 -74 448 -46 q 439 -117 441 -101 q 333 -144 374 -136 q 231 -153 291 -153 q 136 -125 167 -153 q 105 -42 105 -98 q 109 33 105 -8 q 137 264 113 88 q 205 733 162 439 q 247 1016 235 927 z "},"]":{"ha":579,"x_min":9,"x_max":516,"o":"m 374 39 q 347 -67 366 -28 q 296 -126 329 -107 q 210 -144 263 -144 q 131 -137 176 -144 q 53 -123 87 -130 q 9 -113 19 -115 l 23 -24 l 203 -24 l 351 1084 l 171 1085 q 177 1129 173 1101 q 182 1173 180 1156 q 289 1199 247 1191 q 391 1208 330 1208 q 485 1181 454 1208 q 516 1097 516 1154 q 512 1023 516 1063 q 484 791 509 967 q 416 322 459 616 q 374 39 387 128 z "},"(":{"ha":579,"x_min":113,"x_max":623,"o":"m 127 534 q 230 850 153 709 q 391 1079 306 991 q 533 1198 475 1166 l 623 1137 q 434 900 524 1047 q 308 551 344 752 q 292 349 292 451 q 319 115 292 220 q 384 -58 347 11 q 457 -170 420 -127 l 361 -227 l 349 -227 q 251 -120 305 -193 q 155 74 197 -47 q 113 355 113 196 q 127 534 113 444 z "},")":{"ha":579,"x_min":-20,"x_max":490,"o":"m 477 435 q 374 118 450 259 q 213 -110 298 -22 q 71 -229 128 -198 l -20 -169 q 170 69 79 -79 q 296 418 260 216 q 312 619 312 517 q 284 853 312 749 q 220 1026 257 958 q 146 1138 183 1095 l 243 1196 l 254 1196 q 352 1089 298 1162 q 448 894 406 1016 q 490 614 490 772 q 477 435 490 524 z "},"—":{"ha":1398,"x_min":150,"x_max":1272,"o":"m 1272 593 l 1249 455 l 150 455 l 172 593 l 1272 593 z "},"–":{"ha":1043,"x_min":150,"x_max":917,"o":"m 917 593 l 895 455 l 150 455 l 172 593 l 917 593 z "},"-":{"ha":816,"x_min":150,"x_max":690,"o":"m 690 593 l 671 455 l 150 455 l 168 593 l 690 593 z "},"«":{"ha":1314,"x_min":142,"x_max":1181,"o":"m 646 747 l 679 638 l 360 414 l 624 193 l 563 96 l 142 359 l 160 478 l 646 747 m 1149 747 l 1181 638 l 863 414 l 1126 193 l 1065 96 l 644 359 l 663 478 l 1149 747 z "},"»":{"ha":1314,"x_min":146,"x_max":1185,"o":"m 178 93 l 146 201 l 465 426 l 201 647 l 262 743 l 683 480 l 665 361 l 178 93 m 681 93 l 648 201 l 967 426 l 703 647 l 764 743 l 1185 480 l 1167 361 l 681 93 z "},"‹":{"ha":807,"x_min":138,"x_max":675,"o":"m 643 747 l 675 638 l 357 414 l 621 193 l 559 96 l 138 359 l 157 478 l 643 747 z "},"›":{"ha":807,"x_min":132,"x_max":669,"o":"m 164 93 l 132 201 l 450 426 l 186 647 l 248 743 l 669 480 l 650 361 l 164 93 z "},"„":{"ha":817,"x_min":38,"x_max":674,"o":"m 329 -18 q 293 -178 329 -108 q 206 -295 258 -249 q 102 -365 155 -341 l 38 -279 l 39 -264 q 90 -221 64 -252 q 131 -148 115 -191 q 148 -53 148 -104 q 134 29 148 -12 q 96 91 119 70 l 99 119 l 205 211 q 263 164 235 196 q 310 85 292 132 q 329 -18 329 38 m 674 -18 q 638 -178 674 -108 q 551 -295 603 -249 q 448 -365 500 -341 l 383 -279 l 385 -264 q 435 -221 410 -252 q 476 -148 460 -191 q 493 -53 493 -104 q 479 29 493 -12 q 441 91 465 70 l 444 119 l 551 211 q 609 164 581 196 q 655 85 637 132 q 674 -18 674 38 z "},"“":{"ha":817,"x_min":134,"x_max":770,"o":"m 479 844 q 515 1004 479 934 q 602 1121 551 1075 q 706 1191 654 1167 l 770 1105 l 769 1090 q 719 1047 744 1078 q 677 974 694 1017 q 661 879 661 930 q 675 797 661 838 q 713 735 689 756 l 709 707 l 603 615 q 545 662 573 630 q 498 741 517 694 q 479 844 479 788 m 134 844 q 170 1004 134 934 q 257 1121 205 1075 q 361 1191 309 1167 l 425 1105 l 424 1090 q 374 1047 399 1078 q 332 974 349 1017 q 315 879 315 930 q 330 797 315 838 q 368 735 344 756 l 364 707 l 258 615 q 200 662 228 630 q 153 741 172 694 q 134 844 134 788 z "},"”":{"ha":817,"x_min":163,"x_max":802,"o":"m 454 958 q 419 798 454 868 q 332 681 383 727 q 228 611 280 635 l 163 696 l 165 711 q 215 754 190 724 q 257 828 240 785 q 273 923 273 872 q 259 1005 273 964 q 221 1067 245 1046 l 224 1095 l 331 1187 q 389 1140 361 1172 q 436 1061 417 1108 q 454 958 454 1014 m 802 958 q 766 798 802 868 q 679 681 730 727 q 575 611 627 635 l 511 696 l 512 711 q 562 754 537 724 q 604 828 587 785 q 621 923 621 872 q 606 1005 621 964 q 568 1067 592 1046 l 572 1095 l 678 1187 q 736 1140 708 1172 q 783 1061 764 1108 q 802 958 802 1014 z "},"‘":{"ha":472,"x_min":134,"x_max":425,"o":"m 134 844 q 170 1004 134 934 q 257 1121 205 1075 q 361 1191 309 1167 l 425 1105 l 424 1090 q 374 1047 399 1078 q 332 974 349 1017 q 315 879 315 930 q 330 797 315 838 q 368 735 344 756 l 364 707 l 258 615 q 200 662 228 630 q 153 741 172 694 q 134 844 134 788 z "},"‛":{"ha":465,"x_min":136,"x_max":404,"o":"m 140 957 q 177 1067 147 1017 q 248 1147 207 1117 q 328 1183 288 1177 l 404 1065 l 399 1037 q 333 982 359 1021 q 301 894 307 943 q 298 857 298 878 q 318 758 298 804 q 364 688 338 711 l 361 673 l 282 604 q 178 731 220 656 q 136 899 136 806 q 140 957 136 922 z "},"’":{"ha":472,"x_min":130,"x_max":420,"o":"m 420 958 q 385 798 420 868 q 298 681 349 727 q 194 611 246 635 l 130 696 l 131 711 q 181 754 156 724 q 223 828 206 785 q 239 923 239 872 q 225 1005 239 964 q 187 1067 211 1046 l 191 1095 l 297 1187 q 355 1140 327 1172 q 402 1061 383 1108 q 420 958 420 1014 z "},"‚":{"ha":472,"x_min":38,"x_max":329,"o":"m 329 -18 q 293 -178 329 -108 q 206 -295 258 -249 q 102 -365 155 -341 l 38 -279 l 39 -264 q 90 -221 64 -252 q 131 -148 115 -191 q 148 -53 148 -104 q 134 29 148 -12 q 96 91 119 70 l 99 119 l 205 211 q 263 164 235 196 q 310 85 292 132 q 329 -18 329 38 z "}," ":{"ha":329,"x_min":0,"x_max":0,"o":""},"₵":{"ha":972,"x_min":111,"x_max":868,"o":"m 420 -7 q 242 75 312 9 q 142 236 173 142 q 111 437 111 331 q 170 730 111 600 q 331 942 228 861 q 568 1042 435 1023 l 594 1230 l 682 1230 l 657 1048 q 762 1040 720 1048 q 853 1017 805 1031 l 868 1012 l 821 862 q 785 883 812 872 q 720 901 759 894 q 637 908 682 908 l 528 121 q 653 143 600 123 q 758 200 707 164 l 801 86 q 685 19 763 46 q 509 -10 607 -7 l 477 -235 l 389 -235 l 420 -7 m 309 429 q 341 237 309 313 q 441 135 373 161 l 547 894 q 419 805 472 869 q 337 645 366 741 q 309 429 309 548 z "},"¢":{"ha":724,"x_min":77,"x_max":646,"o":"m 388 127 q 474 151 430 127 q 557 213 519 174 l 609 119 q 521 38 579 76 q 384 -9 463 0 l 355 -166 l 222 -166 l 254 2 q 121 109 165 30 q 77 297 77 187 q 116 507 77 407 q 226 679 154 608 q 394 773 298 749 l 435 945 l 567 945 l 528 782 q 594 773 563 779 q 646 757 626 766 l 600 584 q 540 622 576 604 q 469 640 503 640 q 373 601 419 640 q 297 490 326 562 q 268 323 268 418 q 296 173 268 218 q 388 127 325 127 z "},"₡":{"ha":943,"x_min":116,"x_max":909,"o":"m 517 -10 q 489 -11 508 -11 q 436 -8 470 -11 l 398 -235 l 322 -235 l 363 8 q 221 103 277 37 q 141 255 166 169 q 116 437 116 342 q 169 718 116 592 q 316 926 222 844 q 534 1036 411 1008 l 567 1230 l 643 1230 l 612 1047 q 654 1048 640 1048 l 694 1048 l 724 1230 l 800 1230 l 768 1040 q 890 1010 819 1031 l 909 1005 l 862 855 q 819 878 852 865 q 744 898 786 890 l 616 129 q 701 152 663 136 q 779 193 740 168 l 822 86 q 730 30 789 54 q 593 -4 671 6 l 555 -235 l 479 -235 l 517 -10 m 642 908 q 588 903 612 908 l 459 130 q 522 121 486 121 l 539 121 l 670 907 q 642 908 661 908 m 314 429 q 390 171 314 246 l 507 875 q 365 708 415 825 q 314 429 314 591 z "},"¤":{"ha":1044,"x_min":146,"x_max":919,"o":"m 829 468 q 781 305 829 379 l 918 168 l 831 82 l 694 219 q 530 171 620 171 q 372 216 444 171 l 235 79 l 148 165 l 283 300 q 245 379 258 336 q 232 468 232 422 q 245 555 232 513 q 282 633 258 597 l 146 770 l 232 857 l 370 718 q 446 753 405 741 q 530 765 486 765 q 699 713 623 765 l 833 848 l 919 761 l 783 625 q 829 468 829 555 m 530 292 q 615 316 576 292 q 676 380 654 340 q 699 468 699 420 q 676 556 699 515 q 615 621 654 597 q 530 645 576 645 q 446 621 484 645 q 384 556 407 597 q 361 468 361 515 q 384 380 361 420 q 446 316 407 340 q 530 292 484 292 z "},"$":{"ha":817,"x_min":68,"x_max":750,"o":"m 498 585 q 600 504 557 543 q 671 410 642 464 q 700 290 700 356 q 625 87 700 163 q 418 -7 550 12 l 390 -172 l 248 -172 l 275 -10 q 149 15 209 -3 q 68 50 88 33 l 126 199 q 177 169 143 184 q 251 143 210 153 q 328 134 292 134 q 460 166 411 134 q 509 262 509 198 q 478 359 509 315 q 370 456 447 404 q 227 591 281 519 q 172 762 172 664 q 205 896 172 838 q 298 992 239 955 q 437 1042 358 1029 l 462 1194 l 605 1194 l 580 1046 q 682 1024 639 1040 q 750 991 724 1009 l 692 844 q 612 887 666 871 q 509 903 557 903 q 395 874 440 903 q 351 785 351 845 q 366 714 351 744 q 411 655 380 684 q 498 585 441 627 z "},"₫":{"ha":827,"x_min":24,"x_max":882,"o":"m 592 1032 l 607 1146 l 777 1146 l 762 1032 l 882 1032 l 868 924 l 747 924 l 657 216 l 522 216 q 511 239 509 216 q 513 257 511 241 q 516 291 515 273 q 437 238 483 260 q 320 216 392 216 q 208 246 259 216 q 127 334 157 276 q 97 470 97 391 q 143 672 97 587 q 271 802 189 757 q 462 846 354 846 q 571 825 528 846 l 578 924 l 412 924 l 426 1032 l 592 1032 m 448 722 q 318 657 359 722 q 277 488 277 593 q 299 387 277 421 q 363 352 321 352 q 454 363 423 352 q 507 392 485 375 l 546 696 q 514 714 538 706 q 448 722 491 722 m 715 127 l 699 0 l 24 0 l 41 127 l 715 127 z "},"€":{"ha":942,"x_min":16,"x_max":866,"o":"m 653 1048 q 759 1040 717 1048 q 849 1017 800 1032 l 866 1012 l 819 867 q 783 887 810 877 q 718 905 757 898 q 633 912 678 912 q 485 858 548 912 q 386 704 422 803 l 729 704 l 716 595 l 357 595 q 344 475 347 536 l 701 475 l 689 366 l 344 366 q 531 118 360 118 q 654 139 602 118 q 758 199 706 161 l 801 85 q 682 16 764 43 q 499 -11 601 -11 q 315 41 389 -11 q 202 178 241 94 q 154 366 163 263 l 16 366 l 30 475 l 151 475 q 165 595 155 543 l 47 595 l 60 704 l 195 704 q 301 888 233 810 q 459 1007 369 966 q 653 1048 549 1048 z "},"ƒ":{"ha":718,"x_min":130,"x_max":703,"o":"m 130 657 l 141 755 l 273 783 l 281 840 q 339 996 294 929 q 450 1099 384 1063 q 590 1135 515 1135 q 703 1121 669 1135 l 678 983 q 643 1001 663 994 q 592 1009 623 1009 q 534 999 557 1009 q 495 959 511 988 q 470 878 479 930 l 455 783 l 612 783 l 598 657 l 439 657 q 371 149 410 444 q 319 -241 332 -147 l 134 -241 l 255 657 l 130 657 z "},"₣":{"ha":773,"x_min":-18,"x_max":795,"o":"m 139 273 l 243 1038 l 795 1038 l 774 886 l 416 890 l 376 591 l 679 596 l 662 435 l 355 443 l 332 273 l 524 273 l 511 155 l 317 155 l 296 0 l 102 0 l 123 155 l -18 155 l -5 273 l 139 273 z "},"₲":{"ha":1024,"x_min":97,"x_max":920,"o":"m 920 995 l 873 819 q 817 850 854 833 q 728 879 780 867 q 621 891 677 891 q 433 822 506 891 q 327 649 359 753 q 294 435 294 545 q 345 218 294 300 q 506 136 397 136 q 594 145 545 136 q 678 171 644 154 l 709 387 l 545 387 l 564 541 l 910 541 l 845 58 q 763 39 816 55 q 663 12 707 23 q 568 -5 619 1 l 545 -175 l 414 -175 l 436 -9 q 241 64 317 0 q 131 223 165 128 q 97 427 97 319 q 158 729 97 595 q 324 946 218 864 q 562 1044 430 1027 l 585 1201 l 716 1201 l 694 1046 q 793 1032 751 1042 q 872 1010 835 1023 l 920 995 z "},"₤":{"ha":1020,"x_min":-2,"x_max":965,"o":"m 178 176 q 211 237 197 194 q 234 330 226 279 l 244 395 l 113 395 l 125 496 l 259 496 l 274 595 l 154 595 l 164 696 l 290 696 l 291 706 q 349 874 305 798 q 470 1000 392 951 q 659 1048 548 1048 q 802 1027 741 1048 q 893 979 864 1006 l 803 834 q 778 863 798 845 q 726 896 758 882 q 656 911 694 911 q 574 897 605 911 q 522 841 543 884 q 489 713 501 799 l 487 696 l 692 696 l 681 595 l 472 595 l 457 496 l 652 496 l 641 395 l 442 395 q 403 260 428 313 q 342 157 378 207 q 455 134 385 143 q 587 125 526 125 q 706 140 664 125 q 765 179 749 154 q 781 243 781 205 q 763 297 781 269 q 726 336 745 325 l 852 435 q 932 355 900 407 q 965 252 965 304 q 895 68 965 150 q 627 -14 824 -14 q 497 -2 556 -14 q 355 33 437 10 q 234 62 275 56 q 165 8 208 29 q 84 -14 122 -14 q 21 5 43 -14 q -2 55 -2 24 q 26 118 -2 90 q 96 161 54 146 q 178 176 138 176 z "},"₺":{"ha":991,"x_min":72,"x_max":945,"o":"m 289 758 l 327 1038 l 530 1038 l 502 844 l 734 937 l 721 814 l 484 719 l 465 589 l 686 677 l 673 556 l 448 467 l 404 161 l 405 159 l 405 161 q 580 193 509 161 q 691 290 650 224 q 746 461 732 355 l 945 461 l 940 424 q 850 192 922 287 q 661 48 779 97 q 388 0 544 0 l 185 0 l 237 384 l 72 318 l 85 439 l 254 506 l 272 633 l 98 564 l 111 687 l 289 758 z "},"₦":{"ha":1153,"x_min":21,"x_max":1168,"o":"m 21 283 l 33 383 l 194 383 l 227 646 l 74 646 l 86 746 l 240 746 l 276 1032 l 433 1032 l 564 746 l 840 746 l 876 1032 l 1045 1032 l 1009 746 l 1168 746 l 1156 646 l 996 646 l 963 383 l 1109 383 l 1097 283 l 950 283 l 915 0 l 753 0 l 625 283 l 351 283 l 315 0 l 146 0 l 181 283 l 21 283 m 399 797 l 395 746 l 420 746 l 399 797 m 480 606 l 463 646 l 389 646 l 384 551 l 363 383 l 581 383 l 480 606 m 718 409 l 728 383 l 800 383 l 805 468 l 827 646 l 610 646 l 718 409 m 790 227 l 794 283 l 768 283 l 790 227 z "},"₧":{"ha":1062,"x_min":97,"x_max":1085,"o":"m 233 734 l 273 1035 l 374 1035 q 482 1040 414 1035 q 535 1043 490 1040 q 625 1046 581 1046 q 873 980 788 1046 q 958 773 958 915 q 957 734 958 748 l 1085 734 l 1072 635 l 942 635 q 859 469 918 538 q 710 365 800 400 q 507 329 621 329 q 377 333 446 329 l 333 0 l 134 0 l 220 635 l 97 635 l 111 734 l 233 734 m 588 907 q 520 904 559 907 q 452 896 481 901 l 431 734 l 762 734 q 763 752 763 741 q 720 868 763 828 q 588 907 676 907 m 397 479 q 523 471 445 471 q 747 635 700 473 l 418 635 l 397 479 z "},"₱":{"ha":1025,"x_min":94,"x_max":1034,"o":"m 232 800 l 264 1038 l 358 1038 q 448 1042 390 1038 q 576 1048 538 1048 q 807 983 720 1048 q 913 800 894 918 l 1034 800 l 1024 728 l 918 728 q 904 618 917 672 l 1013 618 l 1003 545 l 880 545 q 789 406 848 466 q 651 311 731 345 q 477 277 572 277 q 355 281 402 277 l 317 0 l 123 0 l 197 545 l 94 545 l 104 618 l 207 618 l 222 728 l 115 728 l 125 800 l 232 800 m 543 911 q 492 908 524 911 q 439 901 460 905 l 425 800 l 716 800 q 658 881 701 852 q 543 911 615 911 m 709 618 q 725 723 723 668 l 725 728 l 416 728 l 401 618 l 709 618 m 376 433 q 422 427 390 429 q 481 425 455 424 q 600 457 549 425 q 681 545 650 488 l 391 545 l 376 433 z "},"₹":{"ha":880,"x_min":102,"x_max":871,"o":"m 871 1035 l 857 921 l 693 921 q 726 797 726 871 l 726 781 l 845 781 l 829 669 l 708 669 q 629 525 684 587 q 503 428 575 463 q 550 355 530 401 q 599 227 570 310 q 651 91 628 144 q 705 0 675 37 l 494 0 q 457 43 474 0 q 414 176 439 85 q 367 321 387 269 q 323 400 348 374 q 257 398 287 398 q 168 400 218 398 q 102 404 117 401 l 121 527 q 298 522 158 522 q 433 559 378 522 q 515 669 489 595 l 137 669 l 153 781 l 534 781 l 534 805 q 523 878 534 849 q 486 921 512 907 l 153 921 l 168 1035 l 871 1035 z "},"₪":{"ha":1151,"x_min":24,"x_max":1197,"o":"m 168 1032 l 673 1031 q 837 967 787 1032 q 887 799 887 901 q 884 747 887 770 l 811 259 l 646 259 l 717 720 q 720 768 720 743 q 689 865 720 836 q 585 895 659 895 l 311 895 l 178 0 l 24 0 l 168 1032 m 1065 0 l 585 0 q 460 20 515 0 q 371 84 404 41 q 338 194 338 127 q 339 221 338 202 l 418 758 l 585 758 l 507 238 q 506 216 506 223 q 526 154 506 176 q 586 123 545 132 q 697 115 627 115 l 918 115 l 1038 1032 l 1197 1032 l 1065 0 z "},"£":{"ha":947,"x_min":-26,"x_max":915,"o":"m 810 430 q 885 347 856 401 q 915 239 915 293 q 849 62 914 138 q 596 -14 784 -14 q 453 0 519 -14 q 303 38 387 13 q 261 50 292 41 q 207 64 231 58 q 137 8 180 30 q 56 -14 95 -14 q -5 7 17 -14 q -24 65 -26 28 q 5 124 -22 96 q 72 170 32 153 q 149 186 112 186 q 186 245 170 205 q 210 330 203 284 l 239 496 l 121 496 l 137 619 l 260 619 l 273 701 q 331 872 288 793 q 452 999 374 950 q 641 1048 530 1048 q 870 980 800 1048 l 781 846 q 757 876 777 857 q 707 908 738 894 q 638 922 676 922 q 524 868 572 922 q 456 693 476 815 l 444 619 l 652 619 l 636 496 l 422 496 l 410 421 q 374 270 393 322 q 321 171 355 218 q 449 134 394 148 q 559 121 504 121 q 697 152 652 121 q 741 238 741 182 q 723 293 741 264 q 686 332 705 321 l 810 430 z "},"₩":{"ha":1135,"x_min":-30,"x_max":1206,"o":"m 161 451 l 140 636 l 3 636 l 15 745 l 128 745 l 94 1038 l 258 1038 l 284 745 l 526 745 l 563 845 l 544 1038 l 701 1038 l 723 745 l 939 745 l 1034 1038 l 1206 1038 l 1103 745 l 1185 745 l 1174 636 l 1065 636 l 1000 451 l 1151 451 l 1140 342 l 961 342 l 840 -3 l 644 -3 l 615 342 l 518 342 l 397 -3 l 214 -3 l 174 342 l -30 342 l -19 451 l 161 451 m 294 636 l 311 451 l 418 451 l 486 636 l 294 636 m 732 636 l 747 451 l 845 451 l 905 636 l 732 636 m 595 576 l 559 461 l 556 451 l 606 451 l 606 461 l 595 576 m 331 170 l 376 338 l 378 342 l 320 342 l 321 339 l 331 170 m 770 170 l 808 338 l 809 342 l 755 342 l 755 339 l 770 170 z "},"¥":{"ha":1001,"x_min":114,"x_max":1003,"o":"m 678 585 l 902 585 l 890 479 l 607 479 l 590 343 l 871 343 l 860 237 l 576 237 l 546 0 l 361 0 l 391 237 l 114 237 l 126 343 l 404 343 l 420 479 l 144 479 l 156 585 l 380 585 l 186 1038 l 372 1038 l 515 660 l 538 585 l 576 663 l 794 1038 l 1003 1038 l 678 585 z "},"Ω":{"ha":1125,"x_min":43,"x_max":1044,"o":"m 1044 635 q 1016 465 1044 555 q 934 288 987 374 q 808 140 880 203 l 1036 140 l 1023 0 l 632 0 l 602 111 q 733 226 673 149 q 828 402 793 303 q 863 602 863 501 q 824 772 863 705 q 724 871 785 840 q 597 902 663 902 q 438 863 508 902 q 329 740 369 824 q 288 525 288 655 q 314 354 288 439 q 380 203 339 269 q 463 111 420 138 l 419 0 l 43 0 l 60 137 l 286 137 q 197 252 237 186 q 135 393 158 317 q 113 542 113 468 q 174 825 113 711 q 348 993 235 938 q 616 1048 461 1048 q 835 1000 738 1048 q 988 857 932 951 q 1044 635 1044 764 z "},"≈":{"ha":721,"x_min":17,"x_max":732,"o":"m 17 293 q 62 361 28 327 q 143 417 96 395 q 239 439 191 439 q 313 422 281 439 q 388 373 346 405 q 444 334 422 347 q 491 322 466 322 q 621 398 569 322 l 691 326 q 648 254 682 289 q 568 198 615 220 q 473 177 522 177 q 417 186 443 177 q 372 209 392 195 q 326 243 353 222 q 270 284 293 271 q 218 297 247 297 q 148 276 180 297 q 92 220 116 254 l 17 293 m 58 612 q 103 680 68 646 q 184 736 137 714 q 279 758 231 758 q 354 741 321 758 q 429 692 387 724 q 485 654 463 666 q 532 642 507 642 q 662 718 610 642 l 732 646 q 689 574 722 608 q 609 518 656 539 q 513 496 562 496 q 458 506 484 496 q 413 528 433 515 q 367 563 393 541 q 311 603 334 590 q 259 616 288 616 q 189 595 220 616 q 132 540 157 574 l 58 612 z "},"~":{"ha":771,"x_min":71,"x_max":745,"o":"m 71 588 q 116 656 81 622 q 197 712 150 690 q 292 734 244 734 q 367 717 334 734 q 441 668 399 700 q 498 629 476 642 q 545 617 519 617 q 675 693 623 617 l 745 621 q 702 549 735 584 q 622 493 669 515 q 526 472 575 472 q 471 481 496 472 q 426 504 446 490 q 380 538 406 517 q 323 579 347 566 q 272 592 300 592 q 201 571 233 592 q 145 515 170 549 l 71 588 z "},"∙":{"ha":465,"x_min":121,"x_max":340,"o":"m 245 637 q 317 613 294 637 q 340 549 340 588 q 306 455 340 490 q 214 420 271 420 q 147 446 173 420 q 121 511 121 471 q 137 573 121 544 q 180 620 152 602 q 245 637 208 637 z "},"÷":{"ha":928,"x_min":158,"x_max":796,"o":"m 405 794 q 422 858 405 828 q 470 905 440 887 q 535 922 500 922 q 607 898 583 922 q 631 836 631 874 q 613 769 631 798 q 565 723 595 739 q 499 706 535 706 q 431 730 458 706 q 405 794 405 755 m 796 600 l 779 458 l 158 458 l 176 601 l 796 600 m 334 222 q 352 286 334 256 q 399 333 370 315 q 465 351 429 351 q 536 327 513 351 q 559 264 559 303 q 542 197 559 227 q 495 151 525 168 q 429 134 465 134 q 361 159 387 134 q 334 222 334 183 z "},"∕":{"ha":579,"x_min":-80,"x_max":656,"o":"m 505 1083 l 656 1083 l 71 -245 l -80 -245 l 505 1083 z "},"=":{"ha":728,"x_min":68,"x_max":691,"o":"m 691 699 l 672 562 l 111 562 l 130 699 l 691 699 m 648 359 l 630 222 l 68 222 l 87 359 l 648 359 z "},">":{"ha":937,"x_min":171,"x_max":873,"o":"m 171 123 l 191 294 l 665 523 l 248 753 l 263 909 l 873 559 l 862 472 l 171 123 z "},"≥":{"ha":936,"x_min":103,"x_max":826,"o":"m 826 521 l 216 834 l 197 678 l 561 504 l 151 336 l 131 169 l 817 460 l 826 521 m 758 121 l 116 121 l 103 -1 l 745 -1 l 758 121 z "},"∆":{"ha":954,"x_min":-30,"x_max":897,"o":"m 511 1023 l 897 18 l 885 0 l -22 0 l -30 15 l 489 1023 l 511 1023 m 479 668 l 229 155 l 665 155 l 479 668 z "},"∞":{"ha":1324,"x_min":55,"x_max":1279,"o":"m 55 416 q 95 571 55 505 q 205 673 134 637 q 369 709 277 709 q 548 666 475 709 q 677 545 621 622 q 809 663 735 618 q 970 708 883 708 q 1142 668 1072 708 q 1245 564 1212 629 q 1279 422 1279 498 q 1241 267 1279 334 q 1130 163 1202 200 q 960 125 1058 125 q 784 168 854 125 q 658 285 714 210 q 529 171 602 214 q 368 127 456 127 q 198 167 269 127 q 91 272 127 206 q 55 416 55 338 m 971 264 q 1043 284 1013 264 q 1090 340 1074 304 q 1106 420 1106 376 q 1087 495 1106 461 q 1032 548 1069 528 q 943 568 995 568 q 847 535 892 568 q 754 439 801 503 q 854 313 802 361 q 971 264 907 264 m 582 393 q 485 518 535 470 q 375 566 435 566 q 295 547 328 566 q 244 493 261 527 q 227 416 227 458 q 244 339 227 374 q 299 284 262 304 q 389 263 336 263 q 487 296 439 263 q 582 393 534 329 z "},"∫":{"ha":722,"x_min":74,"x_max":675,"o":"m 282 -213 q 393 -168 359 -213 q 426 -19 427 -122 q 407 107 426 43 q 362 230 389 172 q 289 379 335 289 q 213 535 241 472 q 165 669 184 599 q 144 808 145 740 q 178 981 143 905 q 285 1099 213 1056 q 464 1143 357 1143 q 591 1119 534 1143 q 675 1053 648 1096 l 593 953 q 546 990 581 973 q 469 1007 511 1007 q 357 956 393 1007 q 321 813 320 905 q 340 689 321 752 q 385 567 359 625 q 457 420 411 509 q 533 265 504 329 q 582 130 562 201 q 603 -11 602 58 q 573 -183 604 -106 q 473 -306 542 -260 q 298 -351 405 -351 q 208 -340 253 -351 q 126 -308 162 -328 q 74 -265 91 -288 l 137 -148 q 169 -176 147 -161 q 221 -202 191 -191 q 282 -213 250 -213 z "},"<":{"ha":937,"x_min":134,"x_max":836,"o":"m 836 907 l 815 736 l 341 507 l 759 277 l 743 121 l 134 470 l 144 557 l 836 907 z "},"≤":{"ha":936,"x_min":99,"x_max":825,"o":"m 825 825 l 805 665 l 394 494 l 766 322 l 749 169 l 137 472 l 142 526 l 825 825 m 753 121 l 741 -1 l 99 -1 l 111 121 l 753 121 z "},"¬":{"ha":929,"x_min":140,"x_max":806,"o":"m 806 578 l 764 218 l 616 218 l 644 450 l 140 450 l 155 578 l 806 578 z "},"µ":{"ha":925,"x_min":58,"x_max":886,"o":"m 58 -252 l 176 560 q 178 591 178 576 q 173 624 178 612 q 159 637 168 637 q 127 628 142 637 q 97 603 113 618 l 59 698 q 98 730 69 709 q 168 767 126 750 q 257 783 210 783 q 341 755 308 783 q 374 671 374 727 q 372 646 374 655 q 347 446 363 572 q 323 265 330 319 q 321 236 321 249 q 346 158 321 181 q 410 135 370 135 q 467 152 435 135 q 524 196 498 168 q 561 252 549 223 l 629 773 l 814 773 l 739 175 q 738 161 738 170 q 745 130 738 142 q 761 119 751 119 q 799 132 779 119 q 838 168 819 145 l 886 86 q 841 42 863 62 q 780 5 818 22 q 693 -12 741 -12 q 574 83 588 -12 q 496 12 536 35 q 391 -12 455 -12 q 327 1 363 -12 q 278 39 291 14 l 235 -252 l 58 -252 z "},"−":{"ha":859,"x_min":150,"x_max":737,"o":"m 737 593 l 718 455 l 150 455 l 168 593 l 737 593 z "},"×":{"ha":939,"x_min":135,"x_max":844,"o":"m 395 528 l 187 753 l 302 857 l 496 616 l 750 857 l 844 745 l 581 520 l 791 295 l 675 191 l 479 432 l 228 191 l 135 302 l 395 528 z "},"≠":{"ha":728,"x_min":68,"x_max":691,"o":"m 487 562 l 393 359 l 648 359 l 630 222 l 330 222 l 227 0 l 98 0 l 201 222 l 68 222 l 87 359 l 264 359 l 357 562 l 111 562 l 130 699 l 421 699 l 517 907 l 646 907 l 551 699 l 691 699 l 672 562 l 487 562 z "},"∂":{"ha":923,"x_min":94,"x_max":849,"o":"m 488 728 q 654 696 577 728 q 555 928 633 842 q 337 1013 476 1013 q 248 1001 294 1013 q 172 968 201 988 l 109 1078 q 229 1138 159 1117 q 367 1159 299 1159 q 641 1073 532 1159 q 799 848 749 987 q 849 549 849 710 q 751 137 849 284 q 446 -11 654 -11 q 274 34 353 -11 q 148 159 195 79 q 98 338 100 239 q 146 558 94 471 q 289 687 199 646 q 488 728 378 728 m 662 555 q 581 590 623 579 q 488 601 539 601 q 385 576 430 601 q 314 500 340 552 q 288 372 288 449 q 330 193 288 258 q 474 127 372 127 q 599 198 557 127 q 651 357 640 268 q 662 555 661 446 z "},"%":{"ha":1327,"x_min":103,"x_max":1257,"o":"m 1022 1038 l 461 0 l 316 0 l 884 1038 l 1022 1038 m 103 709 q 143 860 103 787 q 252 977 182 932 q 407 1021 322 1021 q 562 964 512 1021 q 611 805 611 907 q 573 648 611 723 q 466 527 535 574 q 307 481 397 481 q 196 509 241 481 q 126 589 150 538 q 103 709 103 640 m 470 793 q 447 879 470 847 q 382 911 424 911 q 304 879 337 911 q 254 802 271 848 q 237 715 237 757 q 262 626 237 660 q 332 593 288 593 q 408 625 376 593 q 455 705 439 658 q 470 793 470 751 m 1054 583 q 1208 525 1158 583 q 1257 366 1257 467 q 1220 209 1257 283 q 1113 88 1182 134 q 954 42 1044 42 q 842 71 888 42 q 773 150 796 99 q 749 270 749 201 q 789 420 749 348 q 899 538 829 493 q 1054 583 969 583 m 979 154 q 1055 187 1023 154 q 1101 267 1086 220 q 1117 354 1117 313 q 1094 440 1117 408 q 1029 471 1071 471 q 950 440 983 471 q 901 363 918 409 q 884 276 884 317 q 909 188 884 221 q 979 154 934 154 z "},"‰":{"ha":1902,"x_min":103,"x_max":1832,"o":"m 1022 1038 l 461 0 l 316 0 l 884 1038 l 1022 1038 m 103 709 q 143 860 103 787 q 252 977 182 932 q 407 1021 322 1021 q 562 964 512 1021 q 611 805 611 907 q 573 648 611 723 q 466 527 535 574 q 307 481 397 481 q 196 509 241 481 q 126 589 150 538 q 103 709 103 640 m 470 793 q 447 879 470 847 q 382 911 424 911 q 304 879 337 911 q 254 802 271 848 q 237 715 237 757 q 262 626 237 660 q 332 593 288 593 q 408 625 376 593 q 455 705 439 658 q 470 793 470 751 m 1054 583 q 1208 525 1158 583 q 1257 366 1257 467 q 1220 209 1257 283 q 1113 88 1182 134 q 954 42 1044 42 q 842 71 888 42 q 773 150 796 99 q 749 270 749 201 q 789 420 749 348 q 899 538 829 493 q 1054 583 969 583 m 1628 583 q 1783 525 1733 583 q 1832 366 1832 468 q 1794 209 1832 283 q 1687 88 1756 134 q 1529 42 1618 42 q 1417 71 1463 42 q 1348 150 1371 99 q 1324 270 1324 201 q 1364 420 1324 348 q 1474 538 1404 493 q 1628 583 1544 583 m 979 154 q 1055 187 1023 154 q 1101 267 1086 220 q 1117 354 1117 313 q 1094 440 1117 408 q 1029 471 1071 471 q 950 440 983 471 q 901 363 918 409 q 884 276 884 317 q 909 188 884 221 q 979 154 934 154 m 1553 154 q 1629 186 1598 154 q 1676 266 1661 219 q 1691 354 1691 313 q 1668 440 1691 408 q 1604 471 1645 471 q 1526 440 1558 471 q 1476 363 1493 409 q 1459 276 1459 317 q 1484 188 1459 221 q 1553 154 1509 154 z "},"+":{"ha":922,"x_min":144,"x_max":804,"o":"m 394 462 l 304 457 l 144 457 l 161 600 l 323 600 l 409 592 l 416 695 l 436 868 l 589 868 l 571 695 l 553 593 l 625 600 l 804 600 l 787 457 l 607 457 l 536 462 l 531 360 l 510 185 l 357 185 l 377 360 l 394 462 z "},"±":{"ha":923,"x_min":114,"x_max":804,"o":"m 394 462 l 304 457 l 144 457 l 161 600 l 322 600 l 409 592 l 417 695 l 436 868 l 589 868 l 571 695 l 553 593 l 625 600 l 804 600 l 787 457 l 607 457 l 536 462 l 530 360 l 510 185 l 357 185 l 377 360 l 394 462 m 727 132 l 715 10 l 114 10 l 125 132 l 727 132 z "},"∏":{"ha":1144,"x_min":104,"x_max":1107,"o":"m 104 882 l 104 1032 l 1107 1032 l 1107 882 l 963 882 l 963 -116 l 760 -116 l 760 882 l 450 882 l 450 -116 l 245 -116 l 245 882 l 104 882 z "},"√":{"ha":1102,"x_min":62,"x_max":1115,"o":"m 220 486 l 372 486 l 553 -6 l 919 1268 l 1115 1268 l 641 -240 l 475 -240 l 235 307 l 135 255 l 62 400 l 220 486 z "},"∑":{"ha":1050,"x_min":132,"x_max":900,"o":"m 132 978 l 153 1032 l 876 1032 l 876 882 l 409 882 l 707 465 l 414 28 l 900 28 l 900 -115 l 150 -115 l 132 -73 l 505 460 l 132 978 z "},"◊":{"ha":865,"x_min":46,"x_max":829,"o":"m 46 528 l 436 1040 l 439 1040 l 829 528 l 829 519 l 439 -1 l 435 -1 l 46 519 l 46 528 m 639 523 l 639 525 l 438 794 l 436 794 l 236 525 l 236 522 l 436 240 l 438 240 l 639 523 z "},"|":{"ha":579,"x_min":229,"x_max":373,"o":"m 373 1207 l 373 -126 l 229 -126 l 229 1207 l 373 1207 z "},"¦":{"ha":579,"x_min":229,"x_max":373,"o":"m 373 1207 l 373 611 l 229 611 l 229 1207 l 373 1207 m 373 470 l 373 -126 l 229 -126 l 229 470 l 373 470 z "}}}
